G04 #@! TF.GenerationSoftware,KiCad,Pcbnew,(6.0.0-0)*
G04 #@! TF.CreationDate,2022-01-07T14:07:45-07:00*
G04 #@! TF.ProjectId,Controller_T41_rev0.2a,436f6e74-726f-46c6-9c65-725f5434315f,rev?*
G04 #@! TF.SameCoordinates,Original*
G04 #@! TF.FileFunction,Paste,Top*
G04 #@! TF.FilePolarity,Positive*
%FSLAX46Y46*%
G04 Gerber Fmt 4.6, Leading zero omitted, Abs format (unit mm)*
G04 Created by KiCad (PCBNEW (6.0.0-0)) date 2022-01-07 14:07:45*
%MOMM*%
%LPD*%
G01*
G04 APERTURE LIST*
G04 Aperture macros list*
%AMRoundRect*
0 Rectangle with rounded corners*
0 $1 Rounding radius*
0 $2 $3 $4 $5 $6 $7 $8 $9 X,Y pos of 4 corners*
0 Add a 4 corners polygon primitive as box body*
4,1,4,$2,$3,$4,$5,$6,$7,$8,$9,$2,$3,0*
0 Add four circle primitives for the rounded corners*
1,1,$1+$1,$2,$3*
1,1,$1+$1,$4,$5*
1,1,$1+$1,$6,$7*
1,1,$1+$1,$8,$9*
0 Add four rect primitives between the rounded corners*
20,1,$1+$1,$2,$3,$4,$5,0*
20,1,$1+$1,$4,$5,$6,$7,0*
20,1,$1+$1,$6,$7,$8,$9,0*
20,1,$1+$1,$8,$9,$2,$3,0*%
G04 Aperture macros list end*
%ADD10RoundRect,0.250000X-0.250000X-0.475000X0.250000X-0.475000X0.250000X0.475000X-0.250000X0.475000X0*%
%ADD11R,2.000000X3.800000*%
%ADD12R,2.000000X1.500000*%
%ADD13RoundRect,0.250000X-0.262500X-0.450000X0.262500X-0.450000X0.262500X0.450000X-0.262500X0.450000X0*%
%ADD14RoundRect,0.218750X-0.218750X-0.256250X0.218750X-0.256250X0.218750X0.256250X-0.218750X0.256250X0*%
%ADD15RoundRect,0.218750X0.218750X0.381250X-0.218750X0.381250X-0.218750X-0.381250X0.218750X-0.381250X0*%
%ADD16R,0.900000X1.200000*%
%ADD17RoundRect,0.250000X0.325000X0.650000X-0.325000X0.650000X-0.325000X-0.650000X0.325000X-0.650000X0*%
%ADD18RoundRect,0.250000X-0.650000X0.325000X-0.650000X-0.325000X0.650000X-0.325000X0.650000X0.325000X0*%
%ADD19RoundRect,0.150000X0.875000X0.150000X-0.875000X0.150000X-0.875000X-0.150000X0.875000X-0.150000X0*%
%ADD20RoundRect,0.150000X-0.875000X-0.150000X0.875000X-0.150000X0.875000X0.150000X-0.875000X0.150000X0*%
%ADD21RoundRect,0.250000X0.312500X0.625000X-0.312500X0.625000X-0.312500X-0.625000X0.312500X-0.625000X0*%
%ADD22RoundRect,0.250000X-0.312500X-0.625000X0.312500X-0.625000X0.312500X0.625000X-0.312500X0.625000X0*%
%ADD23RoundRect,0.237500X0.237500X-0.287500X0.237500X0.287500X-0.237500X0.287500X-0.237500X-0.287500X0*%
G04 APERTURE END LIST*
D10*
X116972000Y-104902000D03*
X118872000Y-104902000D03*
D11*
X173584000Y-95631000D03*
D12*
X167284000Y-95631000D03*
X167284000Y-97931000D03*
X167284000Y-93331000D03*
D13*
X166958000Y-90551000D03*
X168783000Y-90551000D03*
D14*
X162915500Y-90551000D03*
X164490500Y-90551000D03*
D15*
X164685000Y-97409000D03*
X162560000Y-97409000D03*
D16*
X162584400Y-106121200D03*
X159284400Y-106121200D03*
D17*
X164543000Y-94234000D03*
X161593000Y-94234000D03*
D18*
X167259000Y-103427000D03*
X167259000Y-106377000D03*
D19*
X136222000Y-98171000D03*
X136222000Y-96901000D03*
X136222000Y-95631000D03*
X136222000Y-94361000D03*
X136222000Y-93091000D03*
X136222000Y-91821000D03*
X136222000Y-90551000D03*
X136222000Y-89281000D03*
X136222000Y-88011000D03*
X136222000Y-86741000D03*
X126922000Y-86741000D03*
X126922000Y-88011000D03*
X126922000Y-89281000D03*
X126922000Y-90551000D03*
X126922000Y-91821000D03*
X126922000Y-93091000D03*
X126922000Y-94361000D03*
X126922000Y-95631000D03*
X126922000Y-96901000D03*
X126922000Y-98171000D03*
D20*
X162736000Y-62103000D03*
X162736000Y-63373000D03*
X162736000Y-64643000D03*
X162736000Y-65913000D03*
X162736000Y-67183000D03*
X162736000Y-68453000D03*
X162736000Y-69723000D03*
X162736000Y-70993000D03*
X162736000Y-72263000D03*
X162736000Y-73533000D03*
X172036000Y-73533000D03*
X172036000Y-72263000D03*
X172036000Y-70993000D03*
X172036000Y-69723000D03*
X172036000Y-68453000D03*
X172036000Y-67183000D03*
X172036000Y-65913000D03*
X172036000Y-64643000D03*
X172036000Y-63373000D03*
X172036000Y-62103000D03*
D19*
X136222000Y-74295000D03*
X136222000Y-73025000D03*
X136222000Y-71755000D03*
X136222000Y-70485000D03*
X136222000Y-69215000D03*
X136222000Y-67945000D03*
X136222000Y-66675000D03*
X136222000Y-65405000D03*
X136222000Y-64135000D03*
X136222000Y-62865000D03*
X126922000Y-62865000D03*
X126922000Y-64135000D03*
X126922000Y-65405000D03*
X126922000Y-66675000D03*
X126922000Y-67945000D03*
X126922000Y-69215000D03*
X126922000Y-70485000D03*
X126922000Y-71755000D03*
X126922000Y-73025000D03*
X126922000Y-74295000D03*
D20*
X162736000Y-75946000D03*
X162736000Y-77216000D03*
X162736000Y-78486000D03*
X162736000Y-79756000D03*
X162736000Y-81026000D03*
X162736000Y-82296000D03*
X162736000Y-83566000D03*
X162736000Y-84836000D03*
X162736000Y-86106000D03*
X162736000Y-87376000D03*
X172036000Y-87376000D03*
X172036000Y-86106000D03*
X172036000Y-84836000D03*
X172036000Y-83566000D03*
X172036000Y-82296000D03*
X172036000Y-81026000D03*
X172036000Y-79756000D03*
X172036000Y-78486000D03*
X172036000Y-77216000D03*
X172036000Y-75946000D03*
D21*
X180278500Y-100330000D03*
X177353500Y-100330000D03*
D22*
X116393500Y-84074000D03*
X119318500Y-84074000D03*
X116393500Y-86614000D03*
X119318500Y-86614000D03*
X116393500Y-89154000D03*
X119318500Y-89154000D03*
X116393500Y-91694000D03*
X119318500Y-91694000D03*
X116393500Y-94234000D03*
X119318500Y-94234000D03*
X116393500Y-96774000D03*
X119318500Y-96774000D03*
X116393500Y-99314000D03*
X119318500Y-99314000D03*
X116393500Y-101854000D03*
X119318500Y-101854000D03*
D21*
X180278500Y-79248000D03*
X177353500Y-79248000D03*
X180278500Y-76708000D03*
X177353500Y-76708000D03*
X180278500Y-74168000D03*
X177353500Y-74168000D03*
X180278500Y-71628000D03*
X177353500Y-71628000D03*
X180278500Y-69088000D03*
X177353500Y-69088000D03*
X180278500Y-66548000D03*
X177353500Y-66548000D03*
X180278500Y-64008000D03*
X177353500Y-64008000D03*
X180278500Y-61468000D03*
X177353500Y-61468000D03*
D22*
X116393500Y-58928000D03*
X119318500Y-58928000D03*
X116393500Y-61468000D03*
X119318500Y-61468000D03*
X116393500Y-64008000D03*
X119318500Y-64008000D03*
X116393500Y-66619120D03*
X119318500Y-66619120D03*
X116393500Y-69088000D03*
X119318500Y-69088000D03*
X116393500Y-71628000D03*
X119318500Y-71628000D03*
X116393500Y-74155300D03*
X119318500Y-74155300D03*
X116393500Y-76708000D03*
X119318500Y-76708000D03*
D21*
X180278500Y-97790000D03*
X177353500Y-97790000D03*
X180278500Y-95250000D03*
X177353500Y-95250000D03*
X180278500Y-92710000D03*
X177353500Y-92710000D03*
X180278500Y-90170000D03*
X177353500Y-90170000D03*
X180278500Y-87630000D03*
X177353500Y-87630000D03*
X180278500Y-85090000D03*
X177353500Y-85090000D03*
X180278500Y-82550000D03*
X177353500Y-82550000D03*
D23*
X162560000Y-100852000D03*
X162560000Y-102602000D03*
M02*
