G04 #@! TF.GenerationSoftware,KiCad,Pcbnew,(6.0.0-0)*
G04 #@! TF.CreationDate,2022-01-07T14:07:45-07:00*
G04 #@! TF.ProjectId,Controller_T41_rev0.2a,436f6e74-726f-46c6-9c65-725f5434315f,rev?*
G04 #@! TF.SameCoordinates,Original*
G04 #@! TF.FileFunction,Soldermask,Bot*
G04 #@! TF.FilePolarity,Negative*
%FSLAX46Y46*%
G04 Gerber Fmt 4.6, Leading zero omitted, Abs format (unit mm)*
G04 Created by KiCad (PCBNEW (6.0.0-0)) date 2022-01-07 14:07:45*
%MOMM*%
%LPD*%
G01*
G04 APERTURE LIST*
G04 Aperture macros list*
%AMRoundRect*
0 Rectangle with rounded corners*
0 $1 Rounding radius*
0 $2 $3 $4 $5 $6 $7 $8 $9 X,Y pos of 4 corners*
0 Add a 4 corners polygon primitive as box body*
4,1,4,$2,$3,$4,$5,$6,$7,$8,$9,$2,$3,0*
0 Add four circle primitives for the rounded corners*
1,1,$1+$1,$2,$3*
1,1,$1+$1,$4,$5*
1,1,$1+$1,$6,$7*
1,1,$1+$1,$8,$9*
0 Add four rect primitives between the rounded corners*
20,1,$1+$1,$2,$3,$4,$5,0*
20,1,$1+$1,$4,$5,$6,$7,0*
20,1,$1+$1,$6,$7,$8,$9,0*
20,1,$1+$1,$8,$9,$2,$3,0*%
G04 Aperture macros list end*
%ADD10C,1.371600*%
%ADD11C,2.108200*%
%ADD12C,3.708400*%
%ADD13C,3.250000*%
%ADD14RoundRect,0.250500X-0.499500X-0.499500X0.499500X-0.499500X0.499500X0.499500X-0.499500X0.499500X0*%
%ADD15C,1.500000*%
%ADD16C,2.500000*%
%ADD17R,2.600000X2.600000*%
%ADD18C,2.600000*%
%ADD19C,1.600000*%
%ADD20R,1.600000X1.600000*%
%ADD21R,1.300000X1.300000*%
%ADD22C,1.300000*%
%ADD23C,0.800000*%
%ADD24C,6.400000*%
G04 APERTURE END LIST*
D10*
X185140600Y-93462000D03*
X185140600Y-90922000D03*
X185140600Y-79482000D03*
X185140600Y-76942000D03*
X187680600Y-94732000D03*
X187680600Y-92192000D03*
X187680600Y-80752000D03*
X187680600Y-78212000D03*
D11*
X182897602Y-99172000D03*
X182897602Y-85202000D03*
X182897602Y-71232000D03*
D12*
X193097600Y-111872000D03*
X193097600Y-58532000D03*
D11*
X196762800Y-114571994D03*
X196762800Y-55832005D03*
D10*
X185140600Y-82022000D03*
X187680600Y-83292000D03*
X185140600Y-96002000D03*
X187680600Y-97272000D03*
X185140600Y-88382000D03*
X187680600Y-89652000D03*
X185140600Y-74402000D03*
X187680600Y-75672000D03*
X185140600Y-107442000D03*
X185140600Y-104902000D03*
X187680600Y-108712000D03*
X187680600Y-106172000D03*
X185140600Y-109982000D03*
X187680600Y-111252000D03*
X185140600Y-102362000D03*
X187680600Y-103632000D03*
X185140600Y-65522000D03*
X185140600Y-62982000D03*
X187680600Y-66792000D03*
X187680600Y-64252000D03*
X185140600Y-68062000D03*
X187680600Y-69332000D03*
X185140600Y-60442000D03*
X187680600Y-61712000D03*
X111531400Y-76870400D03*
X111531400Y-79410400D03*
X111531400Y-90850400D03*
X111531400Y-93390400D03*
X108991400Y-75600400D03*
X108991400Y-78140400D03*
X108991400Y-89580400D03*
X108991400Y-92120400D03*
D11*
X113774398Y-71160400D03*
X113774398Y-85130400D03*
X113774398Y-99100400D03*
D12*
X103574400Y-58460400D03*
X103574400Y-111800400D03*
D11*
X99909200Y-55760406D03*
X99909200Y-114500395D03*
D10*
X111531400Y-88310400D03*
X108991400Y-87040400D03*
X111531400Y-74330400D03*
X108991400Y-73060400D03*
X111531400Y-81950400D03*
X108991400Y-80680400D03*
X111531400Y-95930400D03*
X108991400Y-94660400D03*
X111531400Y-62890400D03*
X111531400Y-65430400D03*
X108991400Y-61620400D03*
X108991400Y-64160400D03*
X111531400Y-60350400D03*
X108991400Y-59080400D03*
X111531400Y-67970400D03*
X108991400Y-66700400D03*
X111531400Y-104810400D03*
X111531400Y-107350400D03*
X108991400Y-103540400D03*
X108991400Y-106080400D03*
X111531400Y-102270400D03*
X108991400Y-101000400D03*
X111531400Y-109890400D03*
X108991400Y-108620400D03*
D13*
X135128000Y-111506000D03*
X123698000Y-111506000D03*
D14*
X124968000Y-105156000D03*
D15*
X126238000Y-102616000D03*
X127508000Y-105156000D03*
X128778000Y-102616000D03*
X130048000Y-105156000D03*
X131318000Y-102616000D03*
X132588000Y-105156000D03*
D16*
X121538000Y-108456000D03*
D15*
X133858000Y-102616000D03*
D16*
X137288000Y-108456000D03*
D15*
X123088000Y-116586000D03*
X125628000Y-114886000D03*
X135738000Y-114886000D03*
X133198000Y-116586000D03*
D17*
X162087560Y-114300000D03*
D18*
X167167560Y-114300000D03*
D19*
X141168120Y-113718340D03*
X141168120Y-111178340D03*
X141168120Y-108638340D03*
X141168120Y-106098340D03*
X141168120Y-103558340D03*
X141168120Y-101018340D03*
X141168120Y-98478340D03*
X141168120Y-95938340D03*
X141168120Y-93398340D03*
X141168120Y-90858340D03*
X141168120Y-88318340D03*
X141168120Y-85778340D03*
X141168120Y-83238340D03*
X141168120Y-80698340D03*
D20*
X156408120Y-113718340D03*
D19*
X156408120Y-111178340D03*
X156408120Y-108638340D03*
X156408120Y-106098340D03*
X156408120Y-103558340D03*
X156408120Y-101018340D03*
X156408120Y-98478340D03*
X156408120Y-95938340D03*
X156408120Y-93398340D03*
X156408120Y-90858340D03*
X156408120Y-88318340D03*
X156408120Y-85778340D03*
X156408120Y-83238340D03*
X141168120Y-78158340D03*
X141168120Y-75618340D03*
X141168120Y-73078340D03*
X141168120Y-70538340D03*
X141168120Y-67998340D03*
X141168120Y-65458340D03*
X141168120Y-62918340D03*
X141168120Y-60378340D03*
X141168120Y-57838340D03*
X141168120Y-55298340D03*
X156408120Y-55298340D03*
X156408120Y-57838340D03*
X156408120Y-60378340D03*
X156408120Y-62918340D03*
X156408120Y-80698340D03*
X156408120Y-78158340D03*
X156408120Y-75618340D03*
X156408120Y-65458340D03*
X156408120Y-67998340D03*
X156408120Y-70538340D03*
X156408120Y-73078340D03*
D21*
X143606520Y-100748340D03*
D22*
X143606520Y-98748340D03*
X145606520Y-100748340D03*
X145606520Y-98748340D03*
X147606520Y-98748340D03*
X147606520Y-100748340D03*
D23*
X176070596Y-105722084D03*
X174373540Y-105019140D03*
X172676484Y-105722084D03*
X171973540Y-107419140D03*
X172676484Y-109116196D03*
X174373540Y-109819140D03*
X176070596Y-109116196D03*
X176773540Y-107419140D03*
D24*
X174373540Y-107419140D03*
D23*
X125270596Y-80322084D03*
X123573540Y-79619140D03*
X121876484Y-80322084D03*
X121173540Y-82019140D03*
X121876484Y-83716196D03*
X123573540Y-84419140D03*
X125270596Y-83716196D03*
X125973540Y-82019140D03*
D24*
X123573540Y-82019140D03*
D23*
X176070596Y-54922084D03*
X174373540Y-54219140D03*
X172676484Y-54922084D03*
X171973540Y-56619140D03*
X172676484Y-58316196D03*
X174373540Y-59019140D03*
X176070596Y-58316196D03*
X176773540Y-56619140D03*
D24*
X174373540Y-56619140D03*
D23*
X125270596Y-54922084D03*
X123573540Y-54219140D03*
X121876484Y-54922084D03*
X121173540Y-56619140D03*
X121876484Y-58316196D03*
X123573540Y-59019140D03*
X125270596Y-58316196D03*
X125973540Y-56619140D03*
D24*
X123573540Y-56619140D03*
M02*
