G04 #@! TF.GenerationSoftware,KiCad,Pcbnew,(6.0.0-0)*
G04 #@! TF.CreationDate,2022-01-07T14:07:45-07:00*
G04 #@! TF.ProjectId,Controller_T41_rev0.2a,436f6e74-726f-46c6-9c65-725f5434315f,rev?*
G04 #@! TF.SameCoordinates,Original*
G04 #@! TF.FileFunction,Legend,Bot*
G04 #@! TF.FilePolarity,Positive*
%FSLAX46Y46*%
G04 Gerber Fmt 4.6, Leading zero omitted, Abs format (unit mm)*
G04 Created by KiCad (PCBNEW (6.0.0-0)) date 2022-01-07 14:07:45*
%MOMM*%
%LPD*%
G01*
G04 APERTURE LIST*
G04 Aperture macros list*
%AMRoundRect*
0 Rectangle with rounded corners*
0 $1 Rounding radius*
0 $2 $3 $4 $5 $6 $7 $8 $9 X,Y pos of 4 corners*
0 Add a 4 corners polygon primitive as box body*
4,1,4,$2,$3,$4,$5,$6,$7,$8,$9,$2,$3,0*
0 Add four circle primitives for the rounded corners*
1,1,$1+$1,$2,$3*
1,1,$1+$1,$4,$5*
1,1,$1+$1,$6,$7*
1,1,$1+$1,$8,$9*
0 Add four rect primitives between the rounded corners*
20,1,$1+$1,$2,$3,$4,$5,0*
20,1,$1+$1,$4,$5,$6,$7,0*
20,1,$1+$1,$6,$7,$8,$9,0*
20,1,$1+$1,$8,$9,$2,$3,0*%
G04 Aperture macros list end*
%ADD10C,0.150000*%
%ADD11C,0.120000*%
%ADD12C,1.371600*%
%ADD13C,2.108200*%
%ADD14C,3.708400*%
%ADD15C,3.250000*%
%ADD16RoundRect,0.250500X-0.499500X-0.499500X0.499500X-0.499500X0.499500X0.499500X-0.499500X0.499500X0*%
%ADD17C,1.500000*%
%ADD18C,2.500000*%
%ADD19R,2.600000X2.600000*%
%ADD20C,2.600000*%
%ADD21C,1.600000*%
%ADD22R,1.600000X1.600000*%
%ADD23R,1.300000X1.300000*%
%ADD24C,1.300000*%
%ADD25C,0.800000*%
%ADD26C,6.400000*%
G04 APERTURE END LIST*
D10*
X197048000Y-106763428D02*
X196976571Y-106692000D01*
X196833714Y-106620571D01*
X196476571Y-106620571D01*
X196333714Y-106692000D01*
X196262285Y-106763428D01*
X196190857Y-106906285D01*
X196190857Y-107049142D01*
X196262285Y-107263428D01*
X197119428Y-108120571D01*
X196190857Y-108120571D01*
X195476571Y-108120571D02*
X195190857Y-108120571D01*
X195048000Y-108049142D01*
X194976571Y-107977714D01*
X194833714Y-107763428D01*
X194762285Y-107477714D01*
X194762285Y-106906285D01*
X194833714Y-106763428D01*
X194905142Y-106692000D01*
X195048000Y-106620571D01*
X195333714Y-106620571D01*
X195476571Y-106692000D01*
X195548000Y-106763428D01*
X195619428Y-106906285D01*
X195619428Y-107263428D01*
X195548000Y-107406285D01*
X195476571Y-107477714D01*
X195333714Y-107549142D01*
X195048000Y-107549142D01*
X194905142Y-107477714D01*
X194833714Y-107406285D01*
X194762285Y-107263428D01*
X194119428Y-107549142D02*
X192976571Y-107549142D01*
X192405142Y-106620571D02*
X191476571Y-106620571D01*
X191976571Y-107192000D01*
X191762285Y-107192000D01*
X191619428Y-107263428D01*
X191548000Y-107334857D01*
X191476571Y-107477714D01*
X191476571Y-107834857D01*
X191548000Y-107977714D01*
X191619428Y-108049142D01*
X191762285Y-108120571D01*
X192190857Y-108120571D01*
X192333714Y-108049142D01*
X192405142Y-107977714D01*
X190905142Y-106763428D02*
X190833714Y-106692000D01*
X190690857Y-106620571D01*
X190333714Y-106620571D01*
X190190857Y-106692000D01*
X190119428Y-106763428D01*
X190048000Y-106906285D01*
X190048000Y-107049142D01*
X190119428Y-107263428D01*
X190976571Y-108120571D01*
X190048000Y-108120571D01*
X197048000Y-92793428D02*
X196976571Y-92722000D01*
X196833714Y-92650571D01*
X196476571Y-92650571D01*
X196333714Y-92722000D01*
X196262285Y-92793428D01*
X196190857Y-92936285D01*
X196190857Y-93079142D01*
X196262285Y-93293428D01*
X197119428Y-94150571D01*
X196190857Y-94150571D01*
X194833714Y-92650571D02*
X195548000Y-92650571D01*
X195619428Y-93364857D01*
X195548000Y-93293428D01*
X195405142Y-93222000D01*
X195048000Y-93222000D01*
X194905142Y-93293428D01*
X194833714Y-93364857D01*
X194762285Y-93507714D01*
X194762285Y-93864857D01*
X194833714Y-94007714D01*
X194905142Y-94079142D01*
X195048000Y-94150571D01*
X195405142Y-94150571D01*
X195548000Y-94079142D01*
X195619428Y-94007714D01*
X194119428Y-93579142D02*
X192976571Y-93579142D01*
X192333714Y-92793428D02*
X192262285Y-92722000D01*
X192119428Y-92650571D01*
X191762285Y-92650571D01*
X191619428Y-92722000D01*
X191548000Y-92793428D01*
X191476571Y-92936285D01*
X191476571Y-93079142D01*
X191548000Y-93293428D01*
X192405142Y-94150571D01*
X191476571Y-94150571D01*
X190619428Y-93293428D02*
X190762285Y-93222000D01*
X190833714Y-93150571D01*
X190905142Y-93007714D01*
X190905142Y-92936285D01*
X190833714Y-92793428D01*
X190762285Y-92722000D01*
X190619428Y-92650571D01*
X190333714Y-92650571D01*
X190190857Y-92722000D01*
X190119428Y-92793428D01*
X190048000Y-92936285D01*
X190048000Y-93007714D01*
X190119428Y-93150571D01*
X190190857Y-93222000D01*
X190333714Y-93293428D01*
X190619428Y-93293428D01*
X190762285Y-93364857D01*
X190833714Y-93436285D01*
X190905142Y-93579142D01*
X190905142Y-93864857D01*
X190833714Y-94007714D01*
X190762285Y-94079142D01*
X190619428Y-94150571D01*
X190333714Y-94150571D01*
X190190857Y-94079142D01*
X190119428Y-94007714D01*
X190048000Y-93864857D01*
X190048000Y-93579142D01*
X190119428Y-93436285D01*
X190190857Y-93364857D01*
X190333714Y-93293428D01*
X196794000Y-78823428D02*
X196722571Y-78752000D01*
X196579714Y-78680571D01*
X196222571Y-78680571D01*
X196079714Y-78752000D01*
X196008285Y-78823428D01*
X195936857Y-78966285D01*
X195936857Y-79109142D01*
X196008285Y-79323428D01*
X196865428Y-80180571D01*
X195936857Y-80180571D01*
X194508285Y-80180571D02*
X195365428Y-80180571D01*
X194936857Y-80180571D02*
X194936857Y-78680571D01*
X195079714Y-78894857D01*
X195222571Y-79037714D01*
X195365428Y-79109142D01*
X193865428Y-79609142D02*
X192722571Y-79609142D01*
X192079714Y-78823428D02*
X192008285Y-78752000D01*
X191865428Y-78680571D01*
X191508285Y-78680571D01*
X191365428Y-78752000D01*
X191294000Y-78823428D01*
X191222571Y-78966285D01*
X191222571Y-79109142D01*
X191294000Y-79323428D01*
X192151142Y-80180571D01*
X191222571Y-80180571D01*
X189936857Y-79180571D02*
X189936857Y-80180571D01*
X190294000Y-78609142D02*
X190651142Y-79680571D01*
X189722571Y-79680571D01*
X195936857Y-66210571D02*
X196794000Y-66210571D01*
X196365428Y-66210571D02*
X196365428Y-64710571D01*
X196508285Y-64924857D01*
X196651142Y-65067714D01*
X196794000Y-65139142D01*
X195436857Y-64710571D02*
X194436857Y-64710571D01*
X195079714Y-66210571D01*
X193865428Y-65639142D02*
X192722571Y-65639142D01*
X192079714Y-64853428D02*
X192008285Y-64782000D01*
X191865428Y-64710571D01*
X191508285Y-64710571D01*
X191365428Y-64782000D01*
X191294000Y-64853428D01*
X191222571Y-64996285D01*
X191222571Y-65139142D01*
X191294000Y-65353428D01*
X192151142Y-66210571D01*
X191222571Y-66210571D01*
X190294000Y-64710571D02*
X190151142Y-64710571D01*
X190008285Y-64782000D01*
X189936857Y-64853428D01*
X189865428Y-64996285D01*
X189794000Y-65282000D01*
X189794000Y-65639142D01*
X189865428Y-65924857D01*
X189936857Y-66067714D01*
X190008285Y-66139142D01*
X190151142Y-66210571D01*
X190294000Y-66210571D01*
X190436857Y-66139142D01*
X190508285Y-66067714D01*
X190579714Y-65924857D01*
X190651142Y-65639142D01*
X190651142Y-65282000D01*
X190579714Y-64996285D01*
X190508285Y-64853428D01*
X190436857Y-64782000D01*
X190294000Y-64710571D01*
X105258857Y-105326571D02*
X106116000Y-105326571D01*
X105687428Y-105326571D02*
X105687428Y-103826571D01*
X105830285Y-104040857D01*
X105973142Y-104183714D01*
X106116000Y-104255142D01*
X104758857Y-103826571D02*
X103830285Y-103826571D01*
X104330285Y-104398000D01*
X104116000Y-104398000D01*
X103973142Y-104469428D01*
X103901714Y-104540857D01*
X103830285Y-104683714D01*
X103830285Y-105040857D01*
X103901714Y-105183714D01*
X103973142Y-105255142D01*
X104116000Y-105326571D01*
X104544571Y-105326571D01*
X104687428Y-105255142D01*
X104758857Y-105183714D01*
X103187428Y-104755142D02*
X102044571Y-104755142D01*
X100544571Y-105326571D02*
X101401714Y-105326571D01*
X100973142Y-105326571D02*
X100973142Y-103826571D01*
X101116000Y-104040857D01*
X101258857Y-104183714D01*
X101401714Y-104255142D01*
X99258857Y-103826571D02*
X99544571Y-103826571D01*
X99687428Y-103898000D01*
X99758857Y-103969428D01*
X99901714Y-104183714D01*
X99973142Y-104469428D01*
X99973142Y-105040857D01*
X99901714Y-105183714D01*
X99830285Y-105255142D01*
X99687428Y-105326571D01*
X99401714Y-105326571D01*
X99258857Y-105255142D01*
X99187428Y-105183714D01*
X99116000Y-105040857D01*
X99116000Y-104683714D01*
X99187428Y-104540857D01*
X99258857Y-104469428D01*
X99401714Y-104398000D01*
X99687428Y-104398000D01*
X99830285Y-104469428D01*
X99901714Y-104540857D01*
X99973142Y-104683714D01*
X104242857Y-91864571D02*
X103957142Y-91864571D01*
X103814285Y-91793142D01*
X103742857Y-91721714D01*
X103600000Y-91507428D01*
X103528571Y-91221714D01*
X103528571Y-90650285D01*
X103600000Y-90507428D01*
X103671428Y-90436000D01*
X103814285Y-90364571D01*
X104100000Y-90364571D01*
X104242857Y-90436000D01*
X104314285Y-90507428D01*
X104385714Y-90650285D01*
X104385714Y-91007428D01*
X104314285Y-91150285D01*
X104242857Y-91221714D01*
X104100000Y-91293142D01*
X103814285Y-91293142D01*
X103671428Y-91221714D01*
X103600000Y-91150285D01*
X103528571Y-91007428D01*
X102885714Y-91293142D02*
X101742857Y-91293142D01*
X100242857Y-91864571D02*
X101100000Y-91864571D01*
X100671428Y-91864571D02*
X100671428Y-90364571D01*
X100814285Y-90578857D01*
X100957142Y-90721714D01*
X101100000Y-90793142D01*
X99671428Y-90507428D02*
X99600000Y-90436000D01*
X99457142Y-90364571D01*
X99100000Y-90364571D01*
X98957142Y-90436000D01*
X98885714Y-90507428D01*
X98814285Y-90650285D01*
X98814285Y-90793142D01*
X98885714Y-91007428D01*
X99742857Y-91864571D01*
X98814285Y-91864571D01*
X102377714Y-76648571D02*
X103092000Y-76648571D01*
X103163428Y-77362857D01*
X103092000Y-77291428D01*
X102949142Y-77220000D01*
X102592000Y-77220000D01*
X102449142Y-77291428D01*
X102377714Y-77362857D01*
X102306285Y-77505714D01*
X102306285Y-77862857D01*
X102377714Y-78005714D01*
X102449142Y-78077142D01*
X102592000Y-78148571D01*
X102949142Y-78148571D01*
X103092000Y-78077142D01*
X103163428Y-78005714D01*
X101663428Y-77577142D02*
X100520571Y-77577142D01*
X99592000Y-77291428D02*
X99734857Y-77220000D01*
X99806285Y-77148571D01*
X99877714Y-77005714D01*
X99877714Y-76934285D01*
X99806285Y-76791428D01*
X99734857Y-76720000D01*
X99592000Y-76648571D01*
X99306285Y-76648571D01*
X99163428Y-76720000D01*
X99092000Y-76791428D01*
X99020571Y-76934285D01*
X99020571Y-77005714D01*
X99092000Y-77148571D01*
X99163428Y-77220000D01*
X99306285Y-77291428D01*
X99592000Y-77291428D01*
X99734857Y-77362857D01*
X99806285Y-77434285D01*
X99877714Y-77577142D01*
X99877714Y-77862857D01*
X99806285Y-78005714D01*
X99734857Y-78077142D01*
X99592000Y-78148571D01*
X99306285Y-78148571D01*
X99163428Y-78077142D01*
X99092000Y-78005714D01*
X99020571Y-77862857D01*
X99020571Y-77577142D01*
X99092000Y-77434285D01*
X99163428Y-77362857D01*
X99306285Y-77291428D01*
X102306285Y-63924571D02*
X103163428Y-63924571D01*
X102734857Y-63924571D02*
X102734857Y-62424571D01*
X102877714Y-62638857D01*
X103020571Y-62781714D01*
X103163428Y-62853142D01*
X101663428Y-63353142D02*
X100520571Y-63353142D01*
X99163428Y-62924571D02*
X99163428Y-63924571D01*
X99520571Y-62353142D02*
X99877714Y-63424571D01*
X98949142Y-63424571D01*
D11*
X185775600Y-112014000D02*
G75*
G03*
X185775600Y-112014000I-381000J0D01*
G01*
X111658400Y-58318400D02*
G75*
G03*
X111658400Y-58318400I-381000J0D01*
G01*
%LPC*%
D12*
X185140600Y-93462000D03*
X185140600Y-90922000D03*
X185140600Y-79482000D03*
X185140600Y-76942000D03*
X187680600Y-94732000D03*
X187680600Y-92192000D03*
X187680600Y-80752000D03*
X187680600Y-78212000D03*
D13*
X182897602Y-99172000D03*
X182897602Y-85202000D03*
X182897602Y-71232000D03*
D14*
X193097600Y-111872000D03*
X193097600Y-58532000D03*
D13*
X196762800Y-114571994D03*
X196762800Y-55832005D03*
D12*
X185140600Y-82022000D03*
X187680600Y-83292000D03*
X185140600Y-96002000D03*
X187680600Y-97272000D03*
X185140600Y-88382000D03*
X187680600Y-89652000D03*
X185140600Y-74402000D03*
X187680600Y-75672000D03*
X185140600Y-107442000D03*
X185140600Y-104902000D03*
X187680600Y-108712000D03*
X187680600Y-106172000D03*
X185140600Y-109982000D03*
X187680600Y-111252000D03*
X185140600Y-102362000D03*
X187680600Y-103632000D03*
X185140600Y-65522000D03*
X185140600Y-62982000D03*
X187680600Y-66792000D03*
X187680600Y-64252000D03*
X185140600Y-68062000D03*
X187680600Y-69332000D03*
X185140600Y-60442000D03*
X187680600Y-61712000D03*
X111531400Y-76870400D03*
X111531400Y-79410400D03*
X111531400Y-90850400D03*
X111531400Y-93390400D03*
X108991400Y-75600400D03*
X108991400Y-78140400D03*
X108991400Y-89580400D03*
X108991400Y-92120400D03*
D13*
X113774398Y-71160400D03*
X113774398Y-85130400D03*
X113774398Y-99100400D03*
D14*
X103574400Y-58460400D03*
X103574400Y-111800400D03*
D13*
X99909200Y-55760406D03*
X99909200Y-114500395D03*
D12*
X111531400Y-88310400D03*
X108991400Y-87040400D03*
X111531400Y-74330400D03*
X108991400Y-73060400D03*
X111531400Y-81950400D03*
X108991400Y-80680400D03*
X111531400Y-95930400D03*
X108991400Y-94660400D03*
X111531400Y-62890400D03*
X111531400Y-65430400D03*
X108991400Y-61620400D03*
X108991400Y-64160400D03*
X111531400Y-60350400D03*
X108991400Y-59080400D03*
X111531400Y-67970400D03*
X108991400Y-66700400D03*
X111531400Y-104810400D03*
X111531400Y-107350400D03*
X108991400Y-103540400D03*
X108991400Y-106080400D03*
X111531400Y-102270400D03*
X108991400Y-101000400D03*
X111531400Y-109890400D03*
X108991400Y-108620400D03*
D15*
X135128000Y-111506000D03*
X123698000Y-111506000D03*
D16*
X124968000Y-105156000D03*
D17*
X126238000Y-102616000D03*
X127508000Y-105156000D03*
X128778000Y-102616000D03*
X130048000Y-105156000D03*
X131318000Y-102616000D03*
X132588000Y-105156000D03*
D18*
X121538000Y-108456000D03*
D17*
X133858000Y-102616000D03*
D18*
X137288000Y-108456000D03*
D17*
X123088000Y-116586000D03*
X125628000Y-114886000D03*
X135738000Y-114886000D03*
X133198000Y-116586000D03*
D19*
X162087560Y-114300000D03*
D20*
X167167560Y-114300000D03*
D21*
X141168120Y-113718340D03*
X141168120Y-111178340D03*
X141168120Y-108638340D03*
X141168120Y-106098340D03*
X141168120Y-103558340D03*
X141168120Y-101018340D03*
X141168120Y-98478340D03*
X141168120Y-95938340D03*
X141168120Y-93398340D03*
X141168120Y-90858340D03*
X141168120Y-88318340D03*
X141168120Y-85778340D03*
X141168120Y-83238340D03*
X141168120Y-80698340D03*
D22*
X156408120Y-113718340D03*
D21*
X156408120Y-111178340D03*
X156408120Y-108638340D03*
X156408120Y-106098340D03*
X156408120Y-103558340D03*
X156408120Y-101018340D03*
X156408120Y-98478340D03*
X156408120Y-95938340D03*
X156408120Y-93398340D03*
X156408120Y-90858340D03*
X156408120Y-88318340D03*
X156408120Y-85778340D03*
X156408120Y-83238340D03*
X141168120Y-78158340D03*
X141168120Y-75618340D03*
X141168120Y-73078340D03*
X141168120Y-70538340D03*
X141168120Y-67998340D03*
X141168120Y-65458340D03*
X141168120Y-62918340D03*
X141168120Y-60378340D03*
X141168120Y-57838340D03*
X141168120Y-55298340D03*
X156408120Y-55298340D03*
X156408120Y-57838340D03*
X156408120Y-60378340D03*
X156408120Y-62918340D03*
X156408120Y-80698340D03*
X156408120Y-78158340D03*
X156408120Y-75618340D03*
X156408120Y-65458340D03*
X156408120Y-67998340D03*
X156408120Y-70538340D03*
X156408120Y-73078340D03*
D23*
X143606520Y-100748340D03*
D24*
X143606520Y-98748340D03*
X145606520Y-100748340D03*
X145606520Y-98748340D03*
X147606520Y-98748340D03*
X147606520Y-100748340D03*
D25*
X176070596Y-105722084D03*
X174373540Y-105019140D03*
X172676484Y-105722084D03*
X171973540Y-107419140D03*
X172676484Y-109116196D03*
X174373540Y-109819140D03*
X176070596Y-109116196D03*
X176773540Y-107419140D03*
D26*
X174373540Y-107419140D03*
D25*
X125270596Y-80322084D03*
X123573540Y-79619140D03*
X121876484Y-80322084D03*
X121173540Y-82019140D03*
X121876484Y-83716196D03*
X123573540Y-84419140D03*
X125270596Y-83716196D03*
X125973540Y-82019140D03*
D26*
X123573540Y-82019140D03*
D25*
X176070596Y-54922084D03*
X174373540Y-54219140D03*
X172676484Y-54922084D03*
X171973540Y-56619140D03*
X172676484Y-58316196D03*
X174373540Y-59019140D03*
X176070596Y-58316196D03*
X176773540Y-56619140D03*
D26*
X174373540Y-56619140D03*
D25*
X125270596Y-54922084D03*
X123573540Y-54219140D03*
X121876484Y-54922084D03*
X121173540Y-56619140D03*
X121876484Y-58316196D03*
X123573540Y-59019140D03*
X125270596Y-58316196D03*
X125973540Y-56619140D03*
D26*
X123573540Y-56619140D03*
M02*
