M48
; DRILL file {KiCad (6.0.0-0)} date Friday, January 07, 2022 at 02:08:11 PM
; FORMAT={-:-/ absolute / metric / decimal}
; #@! TF.CreationDate,2022-01-07T14:08:11-07:00
; #@! TF.GenerationSoftware,Kicad,Pcbnew,(6.0.0-0)
; #@! TF.FileFunction,Plated,1,2,PTH
FMAT,2
METRIC
; #@! TA.AperFunction,Plated,PTH,ViaDrill
T1C0.400
; #@! TA.AperFunction,Plated,PTH,ViaDrill
T2C0.500
; #@! TA.AperFunction,Plated,PTH,ComponentDrill
T3C0.500
; #@! TA.AperFunction,Plated,PTH,ComponentDrill
T4C0.800
; #@! TA.AperFunction,Plated,PTH,ComponentDrill
T5C0.864
; #@! TA.AperFunction,Plated,PTH,ComponentDrill
T6C0.900
; #@! TA.AperFunction,Plated,PTH,ComponentDrill
T7C1.020
; #@! TA.AperFunction,Plated,PTH,ComponentDrill
T8C1.100
; #@! TA.AperFunction,Plated,PTH,ComponentDrill
T9C1.300
; #@! TA.AperFunction,Plated,PTH,ComponentDrill
T10C1.600
; #@! TA.AperFunction,Plated,PTH,ComponentDrill
T11C1.600
; #@! TA.AperFunction,Plated,PTH,ComponentDrill
T12C3.200
; #@! TA.AperFunction,Plated,PTH,ComponentDrill
T13C3.200
%
G90
G05
T1
X103.251Y-70.358
X103.251Y-78.105
X103.251Y-85.725
X103.378Y-62.23
X103.378Y-93.218
X103.378Y-101.346
X107.061Y-85.344
X107.823Y-101.473
X115.697Y-111.379
X117.856Y-103.505
X117.856Y-109.474
X117.856Y-113.284
X128.524Y-56.642
X128.651Y-77.343
X128.651Y-83.185
X129.413Y-64.389
X129.413Y-71.755
X129.413Y-88.646
X129.413Y-94.234
X131.191Y-59.69
X133.35Y-71.755
X133.35Y-88.646
X133.35Y-94.234
X133.477Y-64.389
X133.985Y-77.724
X133.985Y-83.439
X134.239Y-56.642
X135.636Y-80.264
X137.287Y-59.69
X144.907Y-72.517
X144.907Y-88.138
X146.431Y-59.817
X150.368Y-72.517
X150.368Y-88.138
X151.384Y-59.944
X161.29Y-59.436
X165.1Y-64.135
X165.1Y-72.898
X165.1Y-79.248
X165.1Y-82.804
X169.164Y-79.248
X169.164Y-82.804
X169.418Y-64.135
X169.418Y-72.898
X169.672Y-92.583
X170.942Y-93.853
X188.087Y-85.979
X188.214Y-101.346
X193.04Y-70.612
X193.04Y-78.486
X193.04Y-85.979
X193.04Y-101.092
X193.294Y-92.964
T2
X138.811Y-104.14
T3
X121.174Y-56.619
X121.174Y-82.019
X121.876Y-54.922
X121.876Y-58.316
X121.876Y-80.322
X121.876Y-83.716
X123.574Y-54.219
X123.574Y-59.019
X123.574Y-79.619
X123.574Y-84.419
X125.271Y-54.922
X125.271Y-58.316
X125.271Y-80.322
X125.271Y-83.716
X125.974Y-56.619
X125.974Y-82.019
X171.974Y-56.619
X171.974Y-107.419
X172.676Y-54.922
X172.676Y-58.316
X172.676Y-105.722
X172.676Y-109.116
X174.374Y-54.219
X174.374Y-59.019
X174.374Y-105.019
X174.374Y-109.819
X176.071Y-54.922
X176.071Y-58.316
X176.071Y-105.722
X176.071Y-109.116
X176.774Y-56.619
X176.774Y-107.419
T4
X143.607Y-98.748
X143.607Y-100.748
X145.607Y-98.748
X145.607Y-100.748
X147.607Y-98.748
X147.607Y-100.748
T5
X108.991Y-59.08
X108.991Y-61.62
X108.991Y-64.16
X108.991Y-66.7
X108.991Y-73.06
X108.991Y-75.6
X108.991Y-78.14
X108.991Y-80.68
X108.991Y-87.04
X108.991Y-89.58
X108.991Y-92.12
X108.991Y-94.66
X108.991Y-101.0
X108.991Y-103.54
X108.991Y-106.08
X108.991Y-108.62
X111.531Y-60.35
X111.531Y-62.89
X111.531Y-65.43
X111.531Y-67.97
X111.531Y-74.33
X111.531Y-76.87
X111.531Y-79.41
X111.531Y-81.95
X111.531Y-88.31
X111.531Y-90.85
X111.531Y-93.39
X111.531Y-95.93
X111.531Y-102.27
X111.531Y-104.81
X111.531Y-107.35
X111.531Y-109.89
X185.141Y-60.442
X185.141Y-62.982
X185.141Y-65.522
X185.141Y-68.062
X185.141Y-74.402
X185.141Y-76.942
X185.141Y-79.482
X185.141Y-82.022
X185.141Y-88.382
X185.141Y-90.922
X185.141Y-93.462
X185.141Y-96.002
X185.141Y-102.362
X185.141Y-104.902
X185.141Y-107.442
X185.141Y-109.982
X187.681Y-61.712
X187.681Y-64.252
X187.681Y-66.792
X187.681Y-69.332
X187.681Y-75.672
X187.681Y-78.212
X187.681Y-80.752
X187.681Y-83.292
X187.681Y-89.652
X187.681Y-92.192
X187.681Y-94.732
X187.681Y-97.272
X187.681Y-103.632
X187.681Y-106.172
X187.681Y-108.712
X187.681Y-111.252
T6
X124.968Y-105.156
X126.238Y-102.616
X127.508Y-105.156
X128.778Y-102.616
X130.048Y-105.156
X131.318Y-102.616
X132.588Y-105.156
X133.858Y-102.616
T7
X123.088Y-116.586
X125.628Y-114.886
X133.198Y-116.586
X135.738Y-114.886
T8
X141.168Y-55.298
X141.168Y-57.838
X141.168Y-60.378
X141.168Y-62.918
X141.168Y-65.458
X141.168Y-67.998
X141.168Y-70.538
X141.168Y-73.078
X141.168Y-75.618
X141.168Y-78.158
X141.168Y-80.698
X141.168Y-83.238
X141.168Y-85.778
X141.168Y-88.318
X141.168Y-90.858
X141.168Y-93.398
X141.168Y-95.938
X141.168Y-98.478
X141.168Y-101.018
X141.168Y-103.558
X141.168Y-106.098
X141.168Y-108.638
X141.168Y-111.178
X141.168Y-113.718
X156.408Y-55.298
X156.408Y-57.838
X156.408Y-60.378
X156.408Y-62.918
X156.408Y-65.458
X156.408Y-67.998
X156.408Y-70.538
X156.408Y-73.078
X156.408Y-75.618
X156.408Y-78.158
X156.408Y-80.698
X156.408Y-83.238
X156.408Y-85.778
X156.408Y-88.318
X156.408Y-90.858
X156.408Y-93.398
X156.408Y-95.938
X156.408Y-98.478
X156.408Y-101.018
X156.408Y-103.558
X156.408Y-106.098
X156.408Y-108.638
X156.408Y-111.178
X156.408Y-113.718
T9
X162.088Y-114.3
X167.168Y-114.3
T10
X121.538Y-108.456
X137.288Y-108.456
T11
X99.909Y-55.76
X99.909Y-114.5
X113.774Y-71.16
X113.774Y-85.13
X113.774Y-99.1
X182.898Y-71.232
X182.898Y-85.202
X182.898Y-99.172
X196.763Y-55.832
X196.763Y-114.572
T12
X123.574Y-56.619
X123.574Y-82.019
X174.374Y-56.619
X174.374Y-107.419
T13
X103.574Y-58.46
X103.574Y-111.8
X193.098Y-58.532
X193.098Y-111.872
T0
M30
