G04 #@! TF.GenerationSoftware,KiCad,Pcbnew,(6.0.0-0)*
G04 #@! TF.CreationDate,2022-01-07T14:07:45-07:00*
G04 #@! TF.ProjectId,Controller_T41_rev0.2a,436f6e74-726f-46c6-9c65-725f5434315f,rev?*
G04 #@! TF.SameCoordinates,Original*
G04 #@! TF.FileFunction,Legend,Top*
G04 #@! TF.FilePolarity,Positive*
%FSLAX46Y46*%
G04 Gerber Fmt 4.6, Leading zero omitted, Abs format (unit mm)*
G04 Created by KiCad (PCBNEW (6.0.0-0)) date 2022-01-07 14:07:45*
%MOMM*%
%LPD*%
G01*
G04 APERTURE LIST*
G04 Aperture macros list*
%AMRoundRect*
0 Rectangle with rounded corners*
0 $1 Rounding radius*
0 $2 $3 $4 $5 $6 $7 $8 $9 X,Y pos of 4 corners*
0 Add a 4 corners polygon primitive as box body*
4,1,4,$2,$3,$4,$5,$6,$7,$8,$9,$2,$3,0*
0 Add four circle primitives for the rounded corners*
1,1,$1+$1,$2,$3*
1,1,$1+$1,$4,$5*
1,1,$1+$1,$6,$7*
1,1,$1+$1,$8,$9*
0 Add four rect primitives between the rounded corners*
20,1,$1+$1,$2,$3,$4,$5,0*
20,1,$1+$1,$4,$5,$6,$7,0*
20,1,$1+$1,$6,$7,$8,$9,0*
20,1,$1+$1,$8,$9,$2,$3,0*%
G04 Aperture macros list end*
%ADD10C,0.150000*%
%ADD11C,0.200000*%
%ADD12C,0.300000*%
%ADD13C,0.120000*%
%ADD14C,0.010000*%
%ADD15RoundRect,0.250000X-0.250000X-0.475000X0.250000X-0.475000X0.250000X0.475000X-0.250000X0.475000X0*%
%ADD16R,2.000000X3.800000*%
%ADD17R,2.000000X1.500000*%
%ADD18RoundRect,0.250000X-0.262500X-0.450000X0.262500X-0.450000X0.262500X0.450000X-0.262500X0.450000X0*%
%ADD19RoundRect,0.218750X-0.218750X-0.256250X0.218750X-0.256250X0.218750X0.256250X-0.218750X0.256250X0*%
%ADD20RoundRect,0.218750X0.218750X0.381250X-0.218750X0.381250X-0.218750X-0.381250X0.218750X-0.381250X0*%
%ADD21C,1.371600*%
%ADD22C,2.108200*%
%ADD23C,3.708400*%
%ADD24C,3.250000*%
%ADD25RoundRect,0.250500X-0.499500X-0.499500X0.499500X-0.499500X0.499500X0.499500X-0.499500X0.499500X0*%
%ADD26C,1.500000*%
%ADD27C,2.500000*%
%ADD28R,0.900000X1.200000*%
%ADD29RoundRect,0.250000X0.325000X0.650000X-0.325000X0.650000X-0.325000X-0.650000X0.325000X-0.650000X0*%
%ADD30RoundRect,0.250000X-0.650000X0.325000X-0.650000X-0.325000X0.650000X-0.325000X0.650000X0.325000X0*%
%ADD31RoundRect,0.150000X0.875000X0.150000X-0.875000X0.150000X-0.875000X-0.150000X0.875000X-0.150000X0*%
%ADD32RoundRect,0.150000X-0.875000X-0.150000X0.875000X-0.150000X0.875000X0.150000X-0.875000X0.150000X0*%
%ADD33RoundRect,0.250000X0.312500X0.625000X-0.312500X0.625000X-0.312500X-0.625000X0.312500X-0.625000X0*%
%ADD34RoundRect,0.250000X-0.312500X-0.625000X0.312500X-0.625000X0.312500X0.625000X-0.312500X0.625000X0*%
%ADD35R,2.600000X2.600000*%
%ADD36C,2.600000*%
%ADD37C,1.600000*%
%ADD38R,1.600000X1.600000*%
%ADD39R,1.300000X1.300000*%
%ADD40C,1.300000*%
%ADD41C,0.800000*%
%ADD42C,6.400000*%
%ADD43RoundRect,0.237500X0.237500X-0.287500X0.237500X0.287500X-0.237500X0.287500X-0.237500X-0.287500X0*%
G04 APERTURE END LIST*
D10*
X171450095Y-88860380D02*
X171450095Y-89669904D01*
X171497714Y-89765142D01*
X171545333Y-89812761D01*
X171640571Y-89860380D01*
X171831047Y-89860380D01*
X171926285Y-89812761D01*
X171973904Y-89765142D01*
X172021523Y-89669904D01*
X172021523Y-88860380D01*
X172926285Y-89193714D02*
X172926285Y-89860380D01*
X172688190Y-88812761D02*
X172450095Y-89527047D01*
X173069142Y-89527047D01*
X161798095Y-59650380D02*
X161798095Y-60459904D01*
X161845714Y-60555142D01*
X161893333Y-60602761D01*
X161988571Y-60650380D01*
X162179047Y-60650380D01*
X162274285Y-60602761D01*
X162321904Y-60555142D01*
X162369523Y-60459904D01*
X162369523Y-59650380D01*
X162750476Y-59650380D02*
X163369523Y-59650380D01*
X163036190Y-60031333D01*
X163179047Y-60031333D01*
X163274285Y-60078952D01*
X163321904Y-60126571D01*
X163369523Y-60221809D01*
X163369523Y-60459904D01*
X163321904Y-60555142D01*
X163274285Y-60602761D01*
X163179047Y-60650380D01*
X162893333Y-60650380D01*
X162798095Y-60602761D01*
X162750476Y-60555142D01*
X133604095Y-84542380D02*
X133604095Y-85351904D01*
X133651714Y-85447142D01*
X133699333Y-85494761D01*
X133794571Y-85542380D01*
X133985047Y-85542380D01*
X134080285Y-85494761D01*
X134127904Y-85447142D01*
X134175523Y-85351904D01*
X134175523Y-84542380D01*
X134604095Y-84637619D02*
X134651714Y-84590000D01*
X134746952Y-84542380D01*
X134985047Y-84542380D01*
X135080285Y-84590000D01*
X135127904Y-84637619D01*
X135175523Y-84732857D01*
X135175523Y-84828095D01*
X135127904Y-84970952D01*
X134556476Y-85542380D01*
X135175523Y-85542380D01*
X133350095Y-60412380D02*
X133350095Y-61221904D01*
X133397714Y-61317142D01*
X133445333Y-61364761D01*
X133540571Y-61412380D01*
X133731047Y-61412380D01*
X133826285Y-61364761D01*
X133873904Y-61317142D01*
X133921523Y-61221904D01*
X133921523Y-60412380D01*
X134921523Y-61412380D02*
X134350095Y-61412380D01*
X134635809Y-61412380D02*
X134635809Y-60412380D01*
X134540571Y-60555238D01*
X134445333Y-60650476D01*
X134350095Y-60698095D01*
X140763809Y-115784380D02*
X141335238Y-115784380D01*
X141049523Y-116784380D02*
X141049523Y-115784380D01*
X142097142Y-116117714D02*
X142097142Y-116784380D01*
X141859047Y-115736761D02*
X141620952Y-116451047D01*
X142240000Y-116451047D01*
X142620952Y-116689142D02*
X142668571Y-116736761D01*
X142620952Y-116784380D01*
X142573333Y-116736761D01*
X142620952Y-116689142D01*
X142620952Y-116784380D01*
X143620952Y-116784380D02*
X143049523Y-116784380D01*
X143335238Y-116784380D02*
X143335238Y-115784380D01*
X143240000Y-115927238D01*
X143144761Y-116022476D01*
X143049523Y-116070095D01*
X116685428Y-118764857D02*
X117185428Y-118764857D01*
X117399714Y-119550571D02*
X116685428Y-119550571D01*
X116685428Y-118050571D01*
X117399714Y-118050571D01*
X117828285Y-118050571D02*
X118685428Y-118050571D01*
X118256857Y-119550571D02*
X118256857Y-118050571D01*
X119185428Y-119550571D02*
X119185428Y-118050571D01*
X119185428Y-118764857D02*
X120042571Y-118764857D01*
X120042571Y-119550571D02*
X120042571Y-118050571D01*
D11*
X171461857Y-117817200D02*
X171319000Y-117745771D01*
X171104714Y-117745771D01*
X170890428Y-117817200D01*
X170747571Y-117960057D01*
X170676142Y-118102914D01*
X170604714Y-118388628D01*
X170604714Y-118602914D01*
X170676142Y-118888628D01*
X170747571Y-119031485D01*
X170890428Y-119174342D01*
X171104714Y-119245771D01*
X171247571Y-119245771D01*
X171461857Y-119174342D01*
X171533285Y-119102914D01*
X171533285Y-118602914D01*
X171247571Y-118602914D01*
X153033742Y-118572742D02*
X154176600Y-118572742D01*
X153605171Y-119144171D02*
X153605171Y-118001314D01*
X155676600Y-119144171D02*
X154819457Y-119144171D01*
X155248028Y-119144171D02*
X155248028Y-117644171D01*
X155105171Y-117858457D01*
X154962314Y-118001314D01*
X154819457Y-118072742D01*
X156248028Y-117787028D02*
X156319457Y-117715600D01*
X156462314Y-117644171D01*
X156819457Y-117644171D01*
X156962314Y-117715600D01*
X157033742Y-117787028D01*
X157105171Y-117929885D01*
X157105171Y-118072742D01*
X157033742Y-118287028D01*
X156176600Y-119144171D01*
X157105171Y-119144171D01*
X157533742Y-117644171D02*
X158033742Y-119144171D01*
X158533742Y-117644171D01*
D12*
X193996571Y-75127571D02*
X195068000Y-75127571D01*
X195282285Y-75199000D01*
X195425142Y-75341857D01*
X195496571Y-75556142D01*
X195496571Y-75699000D01*
X195496571Y-73699000D02*
X195496571Y-74413285D01*
X193996571Y-74413285D01*
X195353714Y-72341857D02*
X195425142Y-72413285D01*
X195496571Y-72627571D01*
X195496571Y-72770428D01*
X195425142Y-72984714D01*
X195282285Y-73127571D01*
X195139428Y-73199000D01*
X194853714Y-73270428D01*
X194639428Y-73270428D01*
X194353714Y-73199000D01*
X194210857Y-73127571D01*
X194068000Y-72984714D01*
X193996571Y-72770428D01*
X193996571Y-72627571D01*
X194068000Y-72413285D01*
X194139428Y-72341857D01*
X193996571Y-71270428D02*
X195068000Y-71270428D01*
X195282285Y-71341857D01*
X195425142Y-71484714D01*
X195496571Y-71699000D01*
X195496571Y-71841857D01*
X195496571Y-69841857D02*
X195496571Y-70556142D01*
X193996571Y-70556142D01*
X195353714Y-68484714D02*
X195425142Y-68556142D01*
X195496571Y-68770428D01*
X195496571Y-68913285D01*
X195425142Y-69127571D01*
X195282285Y-69270428D01*
X195139428Y-69341857D01*
X194853714Y-69413285D01*
X194639428Y-69413285D01*
X194353714Y-69341857D01*
X194210857Y-69270428D01*
X194068000Y-69127571D01*
X193996571Y-68913285D01*
X193996571Y-68770428D01*
X194068000Y-68556142D01*
X194139428Y-68484714D01*
X193996571Y-67413285D02*
X195068000Y-67413285D01*
X195282285Y-67484714D01*
X195425142Y-67627571D01*
X195496571Y-67841857D01*
X195496571Y-67984714D01*
X195496571Y-65984714D02*
X195496571Y-66699000D01*
X193996571Y-66699000D01*
X195353714Y-64627571D02*
X195425142Y-64699000D01*
X195496571Y-64913285D01*
X195496571Y-65056142D01*
X195425142Y-65270428D01*
X195282285Y-65413285D01*
X195139428Y-65484714D01*
X194853714Y-65556142D01*
X194639428Y-65556142D01*
X194353714Y-65484714D01*
X194210857Y-65413285D01*
X194068000Y-65270428D01*
X193996571Y-65056142D01*
X193996571Y-64913285D01*
X194068000Y-64699000D01*
X194139428Y-64627571D01*
X193996571Y-63556142D02*
X195068000Y-63556142D01*
X195282285Y-63627571D01*
X195425142Y-63770428D01*
X195496571Y-63984714D01*
X195496571Y-64127571D01*
X195496571Y-62127571D02*
X195496571Y-62841857D01*
X193996571Y-62841857D01*
X195353714Y-60770428D02*
X195425142Y-60841857D01*
X195496571Y-61056142D01*
X195496571Y-61199000D01*
X195425142Y-61413285D01*
X195282285Y-61556142D01*
X195139428Y-61627571D01*
X194853714Y-61699000D01*
X194639428Y-61699000D01*
X194353714Y-61627571D01*
X194210857Y-61556142D01*
X194068000Y-61413285D01*
X193996571Y-61199000D01*
X193996571Y-61056142D01*
X194068000Y-60841857D01*
X194139428Y-60770428D01*
D10*
X98529428Y-52538380D02*
X99100857Y-52538380D01*
X98815142Y-53538380D02*
X98815142Y-52538380D01*
X99815142Y-53490761D02*
X99719904Y-53538380D01*
X99529428Y-53538380D01*
X99434190Y-53490761D01*
X99386571Y-53395523D01*
X99386571Y-53014571D01*
X99434190Y-52919333D01*
X99529428Y-52871714D01*
X99719904Y-52871714D01*
X99815142Y-52919333D01*
X99862761Y-53014571D01*
X99862761Y-53109809D01*
X99386571Y-53205047D01*
X100672285Y-53490761D02*
X100577047Y-53538380D01*
X100386571Y-53538380D01*
X100291333Y-53490761D01*
X100243714Y-53395523D01*
X100243714Y-53014571D01*
X100291333Y-52919333D01*
X100386571Y-52871714D01*
X100577047Y-52871714D01*
X100672285Y-52919333D01*
X100719904Y-53014571D01*
X100719904Y-53109809D01*
X100243714Y-53205047D01*
X101148476Y-52871714D02*
X101148476Y-53538380D01*
X101148476Y-52966952D02*
X101196095Y-52919333D01*
X101291333Y-52871714D01*
X101434190Y-52871714D01*
X101529428Y-52919333D01*
X101577047Y-53014571D01*
X101577047Y-53538380D01*
X102005619Y-53490761D02*
X102100857Y-53538380D01*
X102291333Y-53538380D01*
X102386571Y-53490761D01*
X102434190Y-53395523D01*
X102434190Y-53347904D01*
X102386571Y-53252666D01*
X102291333Y-53205047D01*
X102148476Y-53205047D01*
X102053238Y-53157428D01*
X102005619Y-53062190D01*
X102005619Y-53014571D01*
X102053238Y-52919333D01*
X102148476Y-52871714D01*
X102291333Y-52871714D01*
X102386571Y-52919333D01*
X102767523Y-52871714D02*
X103005619Y-53538380D01*
X103243714Y-52871714D02*
X103005619Y-53538380D01*
X102910380Y-53776476D01*
X102862761Y-53824095D01*
X102767523Y-53871714D01*
X104386571Y-53538380D02*
X104386571Y-52538380D01*
X104767523Y-52538380D01*
X104862761Y-52586000D01*
X104910380Y-52633619D01*
X104958000Y-52728857D01*
X104958000Y-52871714D01*
X104910380Y-52966952D01*
X104862761Y-53014571D01*
X104767523Y-53062190D01*
X104386571Y-53062190D01*
X105386571Y-53538380D02*
X105386571Y-52871714D01*
X105386571Y-52538380D02*
X105338952Y-52586000D01*
X105386571Y-52633619D01*
X105434190Y-52586000D01*
X105386571Y-52538380D01*
X105386571Y-52633619D01*
X105767523Y-53538380D02*
X106291333Y-52871714D01*
X105767523Y-52871714D02*
X106291333Y-53538380D01*
X107053238Y-53490761D02*
X106958000Y-53538380D01*
X106767523Y-53538380D01*
X106672285Y-53490761D01*
X106624666Y-53395523D01*
X106624666Y-53014571D01*
X106672285Y-52919333D01*
X106767523Y-52871714D01*
X106958000Y-52871714D01*
X107053238Y-52919333D01*
X107100857Y-53014571D01*
X107100857Y-53109809D01*
X106624666Y-53205047D01*
X107672285Y-53538380D02*
X107577047Y-53490761D01*
X107529428Y-53395523D01*
X107529428Y-52538380D01*
X108815142Y-53538380D02*
X108815142Y-52538380D01*
X109196095Y-52538380D01*
X109291333Y-52586000D01*
X109338952Y-52633619D01*
X109386571Y-52728857D01*
X109386571Y-52871714D01*
X109338952Y-52966952D01*
X109291333Y-53014571D01*
X109196095Y-53062190D01*
X108815142Y-53062190D01*
X110243714Y-52871714D02*
X110243714Y-53538380D01*
X109815142Y-52871714D02*
X109815142Y-53395523D01*
X109862761Y-53490761D01*
X109958000Y-53538380D01*
X110100857Y-53538380D01*
X110196095Y-53490761D01*
X110243714Y-53443142D01*
X110672285Y-53490761D02*
X110767523Y-53538380D01*
X110958000Y-53538380D01*
X111053238Y-53490761D01*
X111100857Y-53395523D01*
X111100857Y-53347904D01*
X111053238Y-53252666D01*
X110958000Y-53205047D01*
X110815142Y-53205047D01*
X110719904Y-53157428D01*
X110672285Y-53062190D01*
X110672285Y-53014571D01*
X110719904Y-52919333D01*
X110815142Y-52871714D01*
X110958000Y-52871714D01*
X111053238Y-52919333D01*
X111529428Y-53538380D02*
X111529428Y-52538380D01*
X111958000Y-53538380D02*
X111958000Y-53014571D01*
X111910380Y-52919333D01*
X111815142Y-52871714D01*
X111672285Y-52871714D01*
X111577047Y-52919333D01*
X111529428Y-52966952D01*
X112815142Y-53490761D02*
X112719904Y-53538380D01*
X112529428Y-53538380D01*
X112434190Y-53490761D01*
X112386571Y-53395523D01*
X112386571Y-53014571D01*
X112434190Y-52919333D01*
X112529428Y-52871714D01*
X112719904Y-52871714D01*
X112815142Y-52919333D01*
X112862761Y-53014571D01*
X112862761Y-53109809D01*
X112386571Y-53205047D01*
X113291333Y-53538380D02*
X113291333Y-52871714D01*
X113291333Y-53062190D02*
X113338952Y-52966952D01*
X113386571Y-52919333D01*
X113481809Y-52871714D01*
X113577047Y-52871714D01*
X114577047Y-52871714D02*
X114815142Y-53538380D01*
X115053238Y-52871714D01*
X115624666Y-52538380D02*
X115719904Y-52538380D01*
X115815142Y-52586000D01*
X115862761Y-52633619D01*
X115910380Y-52728857D01*
X115958000Y-52919333D01*
X115958000Y-53157428D01*
X115910380Y-53347904D01*
X115862761Y-53443142D01*
X115815142Y-53490761D01*
X115719904Y-53538380D01*
X115624666Y-53538380D01*
X115529428Y-53490761D01*
X115481809Y-53443142D01*
X115434190Y-53347904D01*
X115386571Y-53157428D01*
X115386571Y-52919333D01*
X115434190Y-52728857D01*
X115481809Y-52633619D01*
X115529428Y-52586000D01*
X115624666Y-52538380D01*
X116386571Y-53443142D02*
X116434190Y-53490761D01*
X116386571Y-53538380D01*
X116338952Y-53490761D01*
X116386571Y-53443142D01*
X116386571Y-53538380D01*
X116815142Y-52633619D02*
X116862761Y-52586000D01*
X116958000Y-52538380D01*
X117196095Y-52538380D01*
X117291333Y-52586000D01*
X117338952Y-52633619D01*
X117386571Y-52728857D01*
X117386571Y-52824095D01*
X117338952Y-52966952D01*
X116767523Y-53538380D01*
X117386571Y-53538380D01*
X118243714Y-53538380D02*
X118243714Y-53014571D01*
X118196095Y-52919333D01*
X118100857Y-52871714D01*
X117910380Y-52871714D01*
X117815142Y-52919333D01*
X118243714Y-53490761D02*
X118148476Y-53538380D01*
X117910380Y-53538380D01*
X117815142Y-53490761D01*
X117767523Y-53395523D01*
X117767523Y-53300285D01*
X117815142Y-53205047D01*
X117910380Y-53157428D01*
X118148476Y-53157428D01*
X118243714Y-53109809D01*
D12*
X160141457Y-103288885D02*
X160141457Y-103788885D01*
X160927171Y-103788885D02*
X159427171Y-103788885D01*
X159427171Y-103074600D01*
X159927171Y-101860314D02*
X160927171Y-101860314D01*
X159927171Y-102503171D02*
X160712885Y-102503171D01*
X160855742Y-102431742D01*
X160927171Y-102288885D01*
X160927171Y-102074600D01*
X160855742Y-101931742D01*
X160784314Y-101860314D01*
X160855742Y-101217457D02*
X160927171Y-101074600D01*
X160927171Y-100788885D01*
X160855742Y-100646028D01*
X160712885Y-100574600D01*
X160641457Y-100574600D01*
X160498600Y-100646028D01*
X160427171Y-100788885D01*
X160427171Y-101003171D01*
X160355742Y-101146028D01*
X160212885Y-101217457D01*
X160141457Y-101217457D01*
X159998600Y-101146028D01*
X159927171Y-101003171D01*
X159927171Y-100788885D01*
X159998600Y-100646028D01*
X160855742Y-99360314D02*
X160927171Y-99503171D01*
X160927171Y-99788885D01*
X160855742Y-99931742D01*
X160712885Y-100003171D01*
X160141457Y-100003171D01*
X159998600Y-99931742D01*
X159927171Y-99788885D01*
X159927171Y-99503171D01*
X159998600Y-99360314D01*
X160141457Y-99288885D01*
X160284314Y-99288885D01*
X160427171Y-100003171D01*
D10*
X160043904Y-91130380D02*
X160043904Y-90130380D01*
X160282000Y-90130380D01*
X160424857Y-90178000D01*
X160520095Y-90273238D01*
X160567714Y-90368476D01*
X160615333Y-90558952D01*
X160615333Y-90701809D01*
X160567714Y-90892285D01*
X160520095Y-90987523D01*
X160424857Y-91082761D01*
X160282000Y-91130380D01*
X160043904Y-91130380D01*
X160996285Y-90225619D02*
X161043904Y-90178000D01*
X161139142Y-90130380D01*
X161377238Y-90130380D01*
X161472476Y-90178000D01*
X161520095Y-90225619D01*
X161567714Y-90320857D01*
X161567714Y-90416095D01*
X161520095Y-90558952D01*
X160948666Y-91130380D01*
X161567714Y-91130380D01*
X192412980Y-85535333D02*
X193127266Y-85535333D01*
X193270123Y-85582952D01*
X193365361Y-85678190D01*
X193412980Y-85821047D01*
X193412980Y-85916285D01*
X193412980Y-84535333D02*
X193412980Y-85106761D01*
X193412980Y-84821047D02*
X192412980Y-84821047D01*
X192555838Y-84916285D01*
X192651076Y-85011523D01*
X192698695Y-85106761D01*
X184592980Y-109982000D02*
X184831076Y-109982000D01*
X184735838Y-110220095D02*
X184831076Y-109982000D01*
X184735838Y-109743904D01*
X185021552Y-110124857D02*
X184831076Y-109982000D01*
X185021552Y-109839142D01*
X103163780Y-85463733D02*
X103878066Y-85463733D01*
X104020923Y-85511352D01*
X104116161Y-85606590D01*
X104163780Y-85749447D01*
X104163780Y-85844685D01*
X103259019Y-85035161D02*
X103211400Y-84987542D01*
X103163780Y-84892304D01*
X103163780Y-84654209D01*
X103211400Y-84558971D01*
X103259019Y-84511352D01*
X103354257Y-84463733D01*
X103449495Y-84463733D01*
X103592352Y-84511352D01*
X104163780Y-85082780D01*
X104163780Y-84463733D01*
X110983780Y-60350400D02*
X111221876Y-60350400D01*
X111126638Y-60588495D02*
X111221876Y-60350400D01*
X111126638Y-60112304D01*
X111412352Y-60493257D02*
X111221876Y-60350400D01*
X111412352Y-60207542D01*
X142654377Y-96501911D02*
X142987710Y-96501911D01*
X143130567Y-97025720D02*
X142654377Y-97025720D01*
X142654377Y-96025720D01*
X143130567Y-96025720D01*
X143416281Y-96359054D02*
X143797234Y-96359054D01*
X143559139Y-96025720D02*
X143559139Y-96882863D01*
X143606758Y-96978101D01*
X143701996Y-97025720D01*
X143797234Y-97025720D01*
X144130567Y-97025720D02*
X144130567Y-96025720D01*
X144559139Y-97025720D02*
X144559139Y-96501911D01*
X144511520Y-96406673D01*
X144416281Y-96359054D01*
X144273424Y-96359054D01*
X144178186Y-96406673D01*
X144130567Y-96454292D01*
X145416281Y-96978101D02*
X145321043Y-97025720D01*
X145130567Y-97025720D01*
X145035329Y-96978101D01*
X144987710Y-96882863D01*
X144987710Y-96501911D01*
X145035329Y-96406673D01*
X145130567Y-96359054D01*
X145321043Y-96359054D01*
X145416281Y-96406673D01*
X145463900Y-96501911D01*
X145463900Y-96597149D01*
X144987710Y-96692387D01*
X145892472Y-97025720D02*
X145892472Y-96359054D01*
X145892472Y-96549530D02*
X145940091Y-96454292D01*
X145987710Y-96406673D01*
X146082948Y-96359054D01*
X146178186Y-96359054D01*
X146511520Y-96359054D02*
X146511520Y-97025720D01*
X146511520Y-96454292D02*
X146559139Y-96406673D01*
X146654377Y-96359054D01*
X146797234Y-96359054D01*
X146892472Y-96406673D01*
X146940091Y-96501911D01*
X146940091Y-97025720D01*
X147797234Y-96978101D02*
X147701996Y-97025720D01*
X147511520Y-97025720D01*
X147416281Y-96978101D01*
X147368662Y-96882863D01*
X147368662Y-96501911D01*
X147416281Y-96406673D01*
X147511520Y-96359054D01*
X147701996Y-96359054D01*
X147797234Y-96406673D01*
X147844853Y-96501911D01*
X147844853Y-96597149D01*
X147368662Y-96692387D01*
X148130567Y-96359054D02*
X148511520Y-96359054D01*
X148273424Y-96025720D02*
X148273424Y-96882863D01*
X148321043Y-96978101D01*
X148416281Y-97025720D01*
X148511520Y-97025720D01*
D13*
X117660748Y-104167000D02*
X118183252Y-104167000D01*
X117660748Y-105637000D02*
X118183252Y-105637000D01*
X172344000Y-99041000D02*
X172344000Y-97781000D01*
X172344000Y-92221000D02*
X172344000Y-93481000D01*
X168584000Y-99041000D02*
X172344000Y-99041000D01*
X166334000Y-92221000D02*
X172344000Y-92221000D01*
X167643436Y-89816000D02*
X168097564Y-89816000D01*
X167643436Y-91286000D02*
X168097564Y-91286000D01*
X164503000Y-89816000D02*
X162218000Y-89816000D01*
X162218000Y-89816000D02*
X162218000Y-91286000D01*
X162218000Y-91286000D02*
X164503000Y-91286000D01*
X164022122Y-97969000D02*
X163222878Y-97969000D01*
X164022122Y-96849000D02*
X163222878Y-96849000D01*
X203755600Y-114920000D02*
X203755600Y-55484000D01*
X203755600Y-55484000D02*
X191763067Y-55484000D01*
X182165600Y-55484000D02*
X182165600Y-114920000D01*
X182165600Y-114920000D02*
X189078133Y-114920000D01*
X191763067Y-114920000D02*
X203755600Y-114920000D01*
X189078133Y-55484000D02*
X182165600Y-55484000D01*
X185521600Y-112014000D02*
G75*
G03*
X185521600Y-112014000I-381000J0D01*
G01*
X92916400Y-55412400D02*
X92916400Y-114848400D01*
X92916400Y-114848400D02*
X104908933Y-114848400D01*
X114506400Y-114848400D02*
X114506400Y-55412400D01*
X114506400Y-55412400D02*
X107593867Y-55412400D01*
X104908933Y-55412400D02*
X92916400Y-55412400D01*
X107593867Y-114848400D02*
X114506400Y-114848400D01*
X111912400Y-58318400D02*
G75*
G03*
X111912400Y-58318400I-381000J0D01*
G01*
X124968000Y-100846000D02*
X137528000Y-100846000D01*
X137528000Y-100846000D02*
X137528000Y-106966000D01*
X121298000Y-105156000D02*
X121298000Y-106966000D01*
X121298000Y-109956000D02*
X121298000Y-122366000D01*
X137528000Y-122366000D02*
X121298000Y-122366000D01*
X137528000Y-109946000D02*
X137528000Y-122366000D01*
X163184400Y-107121200D02*
X163184400Y-105121200D01*
X163184400Y-105121200D02*
X159284400Y-105121200D01*
X163184400Y-107121200D02*
X159284400Y-107121200D01*
X163779252Y-95144000D02*
X162356748Y-95144000D01*
X163779252Y-93324000D02*
X162356748Y-93324000D01*
X168169000Y-104190748D02*
X168169000Y-105613252D01*
X166349000Y-104190748D02*
X166349000Y-105613252D01*
X131572000Y-85946000D02*
X127712000Y-85946000D01*
X127712000Y-85946000D02*
X127712000Y-86181000D01*
X131572000Y-85946000D02*
X135432000Y-85946000D01*
X135432000Y-85946000D02*
X135432000Y-86181000D01*
X131572000Y-98966000D02*
X127712000Y-98966000D01*
X127712000Y-98966000D02*
X127712000Y-98731000D01*
X131572000Y-98966000D02*
X135432000Y-98966000D01*
X135432000Y-98966000D02*
X135432000Y-98731000D01*
X135432000Y-98731000D02*
X137247000Y-98731000D01*
X167386000Y-74328000D02*
X171246000Y-74328000D01*
X171246000Y-74328000D02*
X171246000Y-74093000D01*
X167386000Y-74328000D02*
X163526000Y-74328000D01*
X163526000Y-74328000D02*
X163526000Y-74093000D01*
X167386000Y-61308000D02*
X171246000Y-61308000D01*
X171246000Y-61308000D02*
X171246000Y-61543000D01*
X167386000Y-61308000D02*
X163526000Y-61308000D01*
X163526000Y-61308000D02*
X163526000Y-61543000D01*
X163526000Y-61543000D02*
X161711000Y-61543000D01*
X131572000Y-62070000D02*
X127712000Y-62070000D01*
X127712000Y-62070000D02*
X127712000Y-62305000D01*
X131572000Y-62070000D02*
X135432000Y-62070000D01*
X135432000Y-62070000D02*
X135432000Y-62305000D01*
X131572000Y-75090000D02*
X127712000Y-75090000D01*
X127712000Y-75090000D02*
X127712000Y-74855000D01*
X131572000Y-75090000D02*
X135432000Y-75090000D01*
X135432000Y-75090000D02*
X135432000Y-74855000D01*
X135432000Y-74855000D02*
X137247000Y-74855000D01*
X167386000Y-88171000D02*
X171246000Y-88171000D01*
X171246000Y-88171000D02*
X171246000Y-87936000D01*
X167386000Y-88171000D02*
X163526000Y-88171000D01*
X163526000Y-88171000D02*
X163526000Y-87936000D01*
X167386000Y-75151000D02*
X171246000Y-75151000D01*
X171246000Y-75151000D02*
X171246000Y-75386000D01*
X167386000Y-75151000D02*
X163526000Y-75151000D01*
X163526000Y-75151000D02*
X163526000Y-75386000D01*
X163526000Y-75386000D02*
X161711000Y-75386000D01*
X179543064Y-101240000D02*
X178088936Y-101240000D01*
X179543064Y-99420000D02*
X178088936Y-99420000D01*
X117128936Y-83164000D02*
X118583064Y-83164000D01*
X117128936Y-84984000D02*
X118583064Y-84984000D01*
X117128936Y-85704000D02*
X118583064Y-85704000D01*
X117128936Y-87524000D02*
X118583064Y-87524000D01*
X117128936Y-88244000D02*
X118583064Y-88244000D01*
X117128936Y-90064000D02*
X118583064Y-90064000D01*
X117128936Y-90784000D02*
X118583064Y-90784000D01*
X117128936Y-92604000D02*
X118583064Y-92604000D01*
X117128936Y-93324000D02*
X118583064Y-93324000D01*
X117128936Y-95144000D02*
X118583064Y-95144000D01*
X117128936Y-95864000D02*
X118583064Y-95864000D01*
X117128936Y-97684000D02*
X118583064Y-97684000D01*
X117128936Y-98404000D02*
X118583064Y-98404000D01*
X117128936Y-100224000D02*
X118583064Y-100224000D01*
X117128936Y-100944000D02*
X118583064Y-100944000D01*
X117128936Y-102764000D02*
X118583064Y-102764000D01*
X179543064Y-80158000D02*
X178088936Y-80158000D01*
X179543064Y-78338000D02*
X178088936Y-78338000D01*
X179543064Y-77618000D02*
X178088936Y-77618000D01*
X179543064Y-75798000D02*
X178088936Y-75798000D01*
X179543064Y-75078000D02*
X178088936Y-75078000D01*
X179543064Y-73258000D02*
X178088936Y-73258000D01*
X179543064Y-72538000D02*
X178088936Y-72538000D01*
X179543064Y-70718000D02*
X178088936Y-70718000D01*
X179543064Y-69998000D02*
X178088936Y-69998000D01*
X179543064Y-68178000D02*
X178088936Y-68178000D01*
X179543064Y-67458000D02*
X178088936Y-67458000D01*
X179543064Y-65638000D02*
X178088936Y-65638000D01*
X179543064Y-64918000D02*
X178088936Y-64918000D01*
X179543064Y-63098000D02*
X178088936Y-63098000D01*
X179543064Y-62378000D02*
X178088936Y-62378000D01*
X179543064Y-60558000D02*
X178088936Y-60558000D01*
X117128936Y-58018000D02*
X118583064Y-58018000D01*
X117128936Y-59838000D02*
X118583064Y-59838000D01*
X117128936Y-60558000D02*
X118583064Y-60558000D01*
X117128936Y-62378000D02*
X118583064Y-62378000D01*
X117128936Y-63098000D02*
X118583064Y-63098000D01*
X117128936Y-64918000D02*
X118583064Y-64918000D01*
X117128936Y-65709120D02*
X118583064Y-65709120D01*
X117128936Y-67529120D02*
X118583064Y-67529120D01*
X117128936Y-68178000D02*
X118583064Y-68178000D01*
X117128936Y-69998000D02*
X118583064Y-69998000D01*
X117128936Y-70718000D02*
X118583064Y-70718000D01*
X117128936Y-72538000D02*
X118583064Y-72538000D01*
X117128936Y-73245300D02*
X118583064Y-73245300D01*
X117128936Y-75065300D02*
X118583064Y-75065300D01*
X117128936Y-75798000D02*
X118583064Y-75798000D01*
X117128936Y-77618000D02*
X118583064Y-77618000D01*
X179543064Y-98700000D02*
X178088936Y-98700000D01*
X179543064Y-96880000D02*
X178088936Y-96880000D01*
X179543064Y-96160000D02*
X178088936Y-96160000D01*
X179543064Y-94340000D02*
X178088936Y-94340000D01*
X179543064Y-93620000D02*
X178088936Y-93620000D01*
X179543064Y-91800000D02*
X178088936Y-91800000D01*
X179543064Y-91080000D02*
X178088936Y-91080000D01*
X179543064Y-89260000D02*
X178088936Y-89260000D01*
X179543064Y-88540000D02*
X178088936Y-88540000D01*
X179543064Y-86720000D02*
X178088936Y-86720000D01*
X179543064Y-86000000D02*
X178088936Y-86000000D01*
X179543064Y-84180000D02*
X178088936Y-84180000D01*
X179543064Y-83460000D02*
X178088936Y-83460000D01*
X179543064Y-81640000D02*
X178088936Y-81640000D01*
X164267560Y-114300000D02*
G75*
G03*
X164267560Y-114300000I-2180000J0D01*
G01*
X169347560Y-114300000D02*
G75*
G03*
X169347560Y-114300000I-2180000J0D01*
G01*
X159487560Y-119100000D02*
X169767560Y-119100000D01*
X159487560Y-116600000D02*
X169767560Y-116600000D01*
X159487560Y-110400000D02*
X169767560Y-110400000D01*
X159487560Y-108340000D02*
X169767560Y-108340000D01*
X159487560Y-119660000D02*
X169767560Y-119660000D01*
X159487560Y-108340000D02*
X159487560Y-119660000D01*
X169767560Y-108340000D02*
X169767560Y-119660000D01*
X163741560Y-112912000D02*
X163634560Y-113019000D01*
X160805560Y-115847000D02*
X160699560Y-115954000D01*
X163475560Y-112646000D02*
X163368560Y-112753000D01*
X160539560Y-115581000D02*
X160433560Y-115688000D01*
X168821560Y-112912000D02*
X168426560Y-113308000D01*
X166160560Y-115574000D02*
X165780560Y-115954000D01*
X168555560Y-112646000D02*
X168175560Y-113026000D01*
X165909560Y-115292000D02*
X165514560Y-115688000D01*
X159247560Y-119160000D02*
X159247560Y-119900000D01*
X159247560Y-119900000D02*
X159747560Y-119900000D01*
D10*
X157678120Y-114988340D02*
X139898120Y-114988340D01*
X157678120Y-54028340D02*
X157678120Y-114988340D01*
X139898120Y-54028340D02*
X157678120Y-54028340D01*
X139898120Y-114988340D02*
X139898120Y-54028340D01*
X142686520Y-101758340D02*
X148686520Y-101758340D01*
X148686520Y-101758340D02*
X148686520Y-97758340D01*
X148686520Y-97758340D02*
X142436520Y-97758340D01*
X142436520Y-97758340D02*
X142436520Y-101758340D01*
X142436520Y-101758340D02*
X142686520Y-101758340D01*
D14*
X185076813Y-116936060D02*
X185103666Y-116936328D01*
X185103666Y-116936328D02*
X185215040Y-116937569D01*
X185215040Y-116937569D02*
X185302859Y-116938889D01*
X185302859Y-116938889D02*
X185370304Y-116940526D01*
X185370304Y-116940526D02*
X185420557Y-116942721D01*
X185420557Y-116942721D02*
X185456798Y-116945712D01*
X185456798Y-116945712D02*
X185482209Y-116949741D01*
X185482209Y-116949741D02*
X185499972Y-116955045D01*
X185499972Y-116955045D02*
X185513267Y-116961866D01*
X185513267Y-116961866D02*
X185521827Y-116967826D01*
X185521827Y-116967826D02*
X185557505Y-116999668D01*
X185557505Y-116999668D02*
X185586279Y-117032291D01*
X185586279Y-117032291D02*
X185592942Y-117042054D01*
X185592942Y-117042054D02*
X185598461Y-117053525D01*
X185598461Y-117053525D02*
X185602967Y-117069209D01*
X185602967Y-117069209D02*
X185606589Y-117091607D01*
X185606589Y-117091607D02*
X185609456Y-117123224D01*
X185609456Y-117123224D02*
X185611698Y-117166563D01*
X185611698Y-117166563D02*
X185613446Y-117224126D01*
X185613446Y-117224126D02*
X185614827Y-117298417D01*
X185614827Y-117298417D02*
X185615973Y-117391940D01*
X185615973Y-117391940D02*
X185617012Y-117507197D01*
X185617012Y-117507197D02*
X185618072Y-117646412D01*
X185618072Y-117646412D02*
X185618959Y-117809913D01*
X185618959Y-117809913D02*
X185619014Y-117947942D01*
X185619014Y-117947942D02*
X185618217Y-118061749D01*
X185618217Y-118061749D02*
X185616545Y-118152589D01*
X185616545Y-118152589D02*
X185613976Y-118221712D01*
X185613976Y-118221712D02*
X185610488Y-118270371D01*
X185610488Y-118270371D02*
X185606662Y-118297158D01*
X185606662Y-118297158D02*
X185571882Y-118403775D01*
X185571882Y-118403775D02*
X185516853Y-118493277D01*
X185516853Y-118493277D02*
X185442216Y-118564885D01*
X185442216Y-118564885D02*
X185348609Y-118617822D01*
X185348609Y-118617822D02*
X185340850Y-118621014D01*
X185340850Y-118621014D02*
X185319203Y-118629255D01*
X185319203Y-118629255D02*
X185297545Y-118635877D01*
X185297545Y-118635877D02*
X185272689Y-118641095D01*
X185272689Y-118641095D02*
X185241450Y-118645121D01*
X185241450Y-118645121D02*
X185200639Y-118648170D01*
X185200639Y-118648170D02*
X185147069Y-118650455D01*
X185147069Y-118650455D02*
X185077555Y-118652190D01*
X185077555Y-118652190D02*
X184988909Y-118653589D01*
X184988909Y-118653589D02*
X184877944Y-118654865D01*
X184877944Y-118654865D02*
X184828448Y-118655370D01*
X184828448Y-118655370D02*
X184390632Y-118659762D01*
X184390632Y-118659762D02*
X184390632Y-118364000D01*
X184390632Y-118364000D02*
X184714816Y-118363925D01*
X184714816Y-118363925D02*
X184809426Y-118363344D01*
X184809426Y-118363344D02*
X184897097Y-118361751D01*
X184897097Y-118361751D02*
X184973512Y-118359306D01*
X184973512Y-118359306D02*
X185034350Y-118356167D01*
X185034350Y-118356167D02*
X185075292Y-118352493D01*
X185075292Y-118352493D02*
X185088272Y-118350166D01*
X185088272Y-118350166D02*
X185123338Y-118333688D01*
X185123338Y-118333688D02*
X185159612Y-118306627D01*
X185159612Y-118306627D02*
X185189460Y-118275949D01*
X185189460Y-118275949D02*
X185205245Y-118248621D01*
X185205245Y-118248621D02*
X185206105Y-118242659D01*
X185206105Y-118242659D02*
X185193336Y-118238522D01*
X185193336Y-118238522D02*
X185157417Y-118235041D01*
X185157417Y-118235041D02*
X185101929Y-118232396D01*
X185101929Y-118232396D02*
X185030455Y-118230767D01*
X185030455Y-118230767D02*
X184961216Y-118230316D01*
X184961216Y-118230316D02*
X184855208Y-118229459D01*
X184855208Y-118229459D02*
X184771155Y-118226321D01*
X184771155Y-118226321D02*
X184704314Y-118220047D01*
X184704314Y-118220047D02*
X184649942Y-118209785D01*
X184649942Y-118209785D02*
X184603296Y-118194681D01*
X184603296Y-118194681D02*
X184559632Y-118173881D01*
X184559632Y-118173881D02*
X184521524Y-118151216D01*
X184521524Y-118151216D02*
X184450634Y-118092799D01*
X184450634Y-118092799D02*
X184394002Y-118015482D01*
X184394002Y-118015482D02*
X184349530Y-117916371D01*
X184349530Y-117916371D02*
X184347966Y-117911889D01*
X184347966Y-117911889D02*
X184336702Y-117876910D01*
X184336702Y-117876910D02*
X184328543Y-117843606D01*
X184328543Y-117843606D02*
X184322999Y-117806736D01*
X184322999Y-117806736D02*
X184319579Y-117761061D01*
X184319579Y-117761061D02*
X184317793Y-117701343D01*
X184317793Y-117701343D02*
X184317151Y-117622342D01*
X184317151Y-117622342D02*
X184317105Y-117581947D01*
X184317105Y-117581947D02*
X184317128Y-117575114D01*
X184317128Y-117575114D02*
X184731527Y-117575114D01*
X184731527Y-117575114D02*
X184731527Y-117575263D01*
X184731527Y-117575263D02*
X184732146Y-117649057D01*
X184732146Y-117649057D02*
X184734552Y-117702556D01*
X184734552Y-117702556D02*
X184739564Y-117742185D01*
X184739564Y-117742185D02*
X184748004Y-117774369D01*
X184748004Y-117774369D02*
X184760691Y-117805531D01*
X184760691Y-117805531D02*
X184761029Y-117806264D01*
X184761029Y-117806264D02*
X184786218Y-117850297D01*
X184786218Y-117850297D02*
X184817792Y-117882047D01*
X184817792Y-117882047D02*
X184860002Y-117903128D01*
X184860002Y-117903128D02*
X184917102Y-117915155D01*
X184917102Y-117915155D02*
X184993343Y-117919743D01*
X184993343Y-117919743D02*
X185059053Y-117919422D01*
X185059053Y-117919422D02*
X185212790Y-117916158D01*
X185212790Y-117916158D02*
X185216388Y-117610071D01*
X185216388Y-117610071D02*
X185217817Y-117500383D01*
X185217817Y-117500383D02*
X185218196Y-117414563D01*
X185218196Y-117414563D02*
X185215981Y-117349747D01*
X185215981Y-117349747D02*
X185209631Y-117303071D01*
X185209631Y-117303071D02*
X185197602Y-117271670D01*
X185197602Y-117271670D02*
X185178352Y-117252681D01*
X185178352Y-117252681D02*
X185150339Y-117243238D01*
X185150339Y-117243238D02*
X185112020Y-117240479D01*
X185112020Y-117240479D02*
X185061852Y-117241538D01*
X185061852Y-117241538D02*
X185018717Y-117243022D01*
X185018717Y-117243022D02*
X184938046Y-117246886D01*
X184938046Y-117246886D02*
X184878885Y-117254423D01*
X184878885Y-117254423D02*
X184836049Y-117267881D01*
X184836049Y-117267881D02*
X184804348Y-117289507D01*
X184804348Y-117289507D02*
X184778595Y-117321547D01*
X184778595Y-117321547D02*
X184759181Y-117355442D01*
X184759181Y-117355442D02*
X184747217Y-117381890D01*
X184747217Y-117381890D02*
X184739224Y-117411093D01*
X184739224Y-117411093D02*
X184734446Y-117449038D01*
X184734446Y-117449038D02*
X184732132Y-117501716D01*
X184732132Y-117501716D02*
X184731527Y-117575114D01*
X184731527Y-117575114D02*
X184317128Y-117575114D01*
X184317128Y-117575114D02*
X184317411Y-117493237D01*
X184317411Y-117493237D02*
X184318654Y-117426020D01*
X184318654Y-117426020D02*
X184321325Y-117375057D01*
X184321325Y-117375057D02*
X184325913Y-117335111D01*
X184325913Y-117335111D02*
X184332909Y-117300941D01*
X184332909Y-117300941D02*
X184342802Y-117267308D01*
X184342802Y-117267308D02*
X184347966Y-117252006D01*
X184347966Y-117252006D02*
X184392005Y-117151938D01*
X184392005Y-117151938D02*
X184448141Y-117073760D01*
X184448141Y-117073760D02*
X184518484Y-117014560D01*
X184518484Y-117014560D02*
X184521524Y-117012609D01*
X184521524Y-117012609D02*
X184557912Y-116990559D01*
X184557912Y-116990559D02*
X184592515Y-116972958D01*
X184592515Y-116972958D02*
X184628808Y-116959351D01*
X184628808Y-116959351D02*
X184670269Y-116949283D01*
X184670269Y-116949283D02*
X184720376Y-116942296D01*
X184720376Y-116942296D02*
X184782607Y-116937936D01*
X184782607Y-116937936D02*
X184860438Y-116935748D01*
X184860438Y-116935748D02*
X184957348Y-116935274D01*
X184957348Y-116935274D02*
X185076813Y-116936060D01*
X185076813Y-116936060D02*
X185076813Y-116936060D01*
G36*
X184318654Y-117426020D02*
G01*
X184321325Y-117375057D01*
X184325913Y-117335111D01*
X184332909Y-117300941D01*
X184342802Y-117267308D01*
X184347966Y-117252006D01*
X184392005Y-117151938D01*
X184448141Y-117073760D01*
X184518484Y-117014560D01*
X184521524Y-117012609D01*
X184557912Y-116990559D01*
X184592515Y-116972958D01*
X184628808Y-116959351D01*
X184670269Y-116949283D01*
X184720376Y-116942296D01*
X184782607Y-116937936D01*
X184860438Y-116935748D01*
X184957348Y-116935274D01*
X185076813Y-116936060D01*
X185103666Y-116936328D01*
X185215040Y-116937569D01*
X185302859Y-116938889D01*
X185370304Y-116940526D01*
X185420557Y-116942721D01*
X185456798Y-116945712D01*
X185482209Y-116949741D01*
X185499972Y-116955045D01*
X185513267Y-116961866D01*
X185521827Y-116967826D01*
X185557505Y-116999668D01*
X185586279Y-117032291D01*
X185592942Y-117042054D01*
X185598461Y-117053525D01*
X185602967Y-117069209D01*
X185606589Y-117091607D01*
X185609456Y-117123224D01*
X185611698Y-117166563D01*
X185613446Y-117224126D01*
X185614827Y-117298417D01*
X185615973Y-117391940D01*
X185617012Y-117507197D01*
X185618072Y-117646412D01*
X185618959Y-117809913D01*
X185619014Y-117947942D01*
X185618217Y-118061749D01*
X185616545Y-118152589D01*
X185613976Y-118221712D01*
X185610488Y-118270371D01*
X185606662Y-118297158D01*
X185571882Y-118403775D01*
X185516853Y-118493277D01*
X185442216Y-118564885D01*
X185348609Y-118617822D01*
X185340850Y-118621014D01*
X185319203Y-118629255D01*
X185297545Y-118635877D01*
X185272689Y-118641095D01*
X185241450Y-118645121D01*
X185200639Y-118648170D01*
X185147069Y-118650455D01*
X185077555Y-118652190D01*
X184988909Y-118653589D01*
X184877944Y-118654865D01*
X184828448Y-118655370D01*
X184390632Y-118659762D01*
X184390632Y-118364000D01*
X184714816Y-118363925D01*
X184809426Y-118363344D01*
X184897097Y-118361751D01*
X184973512Y-118359306D01*
X185034350Y-118356167D01*
X185075292Y-118352493D01*
X185088272Y-118350166D01*
X185123338Y-118333688D01*
X185159612Y-118306627D01*
X185189460Y-118275949D01*
X185205245Y-118248621D01*
X185206105Y-118242659D01*
X185193336Y-118238522D01*
X185157417Y-118235041D01*
X185101929Y-118232396D01*
X185030455Y-118230767D01*
X184961216Y-118230316D01*
X184855208Y-118229459D01*
X184771155Y-118226321D01*
X184704314Y-118220047D01*
X184649942Y-118209785D01*
X184603296Y-118194681D01*
X184559632Y-118173881D01*
X184521524Y-118151216D01*
X184450634Y-118092799D01*
X184394002Y-118015482D01*
X184349530Y-117916371D01*
X184347966Y-117911889D01*
X184336702Y-117876910D01*
X184328543Y-117843606D01*
X184322999Y-117806736D01*
X184319579Y-117761061D01*
X184317793Y-117701343D01*
X184317151Y-117622342D01*
X184317105Y-117581947D01*
X184317127Y-117575263D01*
X184731527Y-117575263D01*
X184732146Y-117649057D01*
X184734552Y-117702556D01*
X184739564Y-117742185D01*
X184748004Y-117774369D01*
X184760691Y-117805531D01*
X184761029Y-117806264D01*
X184786218Y-117850297D01*
X184817792Y-117882047D01*
X184860002Y-117903128D01*
X184917102Y-117915155D01*
X184993343Y-117919743D01*
X185059053Y-117919422D01*
X185212790Y-117916158D01*
X185216388Y-117610071D01*
X185217817Y-117500383D01*
X185218196Y-117414563D01*
X185215981Y-117349747D01*
X185209631Y-117303071D01*
X185197602Y-117271670D01*
X185178352Y-117252681D01*
X185150339Y-117243238D01*
X185112020Y-117240479D01*
X185061852Y-117241538D01*
X185018717Y-117243022D01*
X184938046Y-117246886D01*
X184878885Y-117254423D01*
X184836049Y-117267881D01*
X184804348Y-117289507D01*
X184778595Y-117321547D01*
X184759181Y-117355442D01*
X184747217Y-117381890D01*
X184739224Y-117411093D01*
X184734446Y-117449038D01*
X184732132Y-117501716D01*
X184731527Y-117575114D01*
X184731527Y-117575263D01*
X184317127Y-117575263D01*
X184317128Y-117575114D01*
X184317411Y-117493237D01*
X184318654Y-117426020D01*
G37*
X184318654Y-117426020D02*
X184321325Y-117375057D01*
X184325913Y-117335111D01*
X184332909Y-117300941D01*
X184342802Y-117267308D01*
X184347966Y-117252006D01*
X184392005Y-117151938D01*
X184448141Y-117073760D01*
X184518484Y-117014560D01*
X184521524Y-117012609D01*
X184557912Y-116990559D01*
X184592515Y-116972958D01*
X184628808Y-116959351D01*
X184670269Y-116949283D01*
X184720376Y-116942296D01*
X184782607Y-116937936D01*
X184860438Y-116935748D01*
X184957348Y-116935274D01*
X185076813Y-116936060D01*
X185103666Y-116936328D01*
X185215040Y-116937569D01*
X185302859Y-116938889D01*
X185370304Y-116940526D01*
X185420557Y-116942721D01*
X185456798Y-116945712D01*
X185482209Y-116949741D01*
X185499972Y-116955045D01*
X185513267Y-116961866D01*
X185521827Y-116967826D01*
X185557505Y-116999668D01*
X185586279Y-117032291D01*
X185592942Y-117042054D01*
X185598461Y-117053525D01*
X185602967Y-117069209D01*
X185606589Y-117091607D01*
X185609456Y-117123224D01*
X185611698Y-117166563D01*
X185613446Y-117224126D01*
X185614827Y-117298417D01*
X185615973Y-117391940D01*
X185617012Y-117507197D01*
X185618072Y-117646412D01*
X185618959Y-117809913D01*
X185619014Y-117947942D01*
X185618217Y-118061749D01*
X185616545Y-118152589D01*
X185613976Y-118221712D01*
X185610488Y-118270371D01*
X185606662Y-118297158D01*
X185571882Y-118403775D01*
X185516853Y-118493277D01*
X185442216Y-118564885D01*
X185348609Y-118617822D01*
X185340850Y-118621014D01*
X185319203Y-118629255D01*
X185297545Y-118635877D01*
X185272689Y-118641095D01*
X185241450Y-118645121D01*
X185200639Y-118648170D01*
X185147069Y-118650455D01*
X185077555Y-118652190D01*
X184988909Y-118653589D01*
X184877944Y-118654865D01*
X184828448Y-118655370D01*
X184390632Y-118659762D01*
X184390632Y-118364000D01*
X184714816Y-118363925D01*
X184809426Y-118363344D01*
X184897097Y-118361751D01*
X184973512Y-118359306D01*
X185034350Y-118356167D01*
X185075292Y-118352493D01*
X185088272Y-118350166D01*
X185123338Y-118333688D01*
X185159612Y-118306627D01*
X185189460Y-118275949D01*
X185205245Y-118248621D01*
X185206105Y-118242659D01*
X185193336Y-118238522D01*
X185157417Y-118235041D01*
X185101929Y-118232396D01*
X185030455Y-118230767D01*
X184961216Y-118230316D01*
X184855208Y-118229459D01*
X184771155Y-118226321D01*
X184704314Y-118220047D01*
X184649942Y-118209785D01*
X184603296Y-118194681D01*
X184559632Y-118173881D01*
X184521524Y-118151216D01*
X184450634Y-118092799D01*
X184394002Y-118015482D01*
X184349530Y-117916371D01*
X184347966Y-117911889D01*
X184336702Y-117876910D01*
X184328543Y-117843606D01*
X184322999Y-117806736D01*
X184319579Y-117761061D01*
X184317793Y-117701343D01*
X184317151Y-117622342D01*
X184317105Y-117581947D01*
X184317127Y-117575263D01*
X184731527Y-117575263D01*
X184732146Y-117649057D01*
X184734552Y-117702556D01*
X184739564Y-117742185D01*
X184748004Y-117774369D01*
X184760691Y-117805531D01*
X184761029Y-117806264D01*
X184786218Y-117850297D01*
X184817792Y-117882047D01*
X184860002Y-117903128D01*
X184917102Y-117915155D01*
X184993343Y-117919743D01*
X185059053Y-117919422D01*
X185212790Y-117916158D01*
X185216388Y-117610071D01*
X185217817Y-117500383D01*
X185218196Y-117414563D01*
X185215981Y-117349747D01*
X185209631Y-117303071D01*
X185197602Y-117271670D01*
X185178352Y-117252681D01*
X185150339Y-117243238D01*
X185112020Y-117240479D01*
X185061852Y-117241538D01*
X185018717Y-117243022D01*
X184938046Y-117246886D01*
X184878885Y-117254423D01*
X184836049Y-117267881D01*
X184804348Y-117289507D01*
X184778595Y-117321547D01*
X184759181Y-117355442D01*
X184747217Y-117381890D01*
X184739224Y-117411093D01*
X184734446Y-117449038D01*
X184732132Y-117501716D01*
X184731527Y-117575114D01*
X184731527Y-117575263D01*
X184317127Y-117575263D01*
X184317128Y-117575114D01*
X184317411Y-117493237D01*
X184318654Y-117426020D01*
X179472209Y-116975286D02*
X179559130Y-117028437D01*
X179559130Y-117028437D02*
X179629303Y-117099038D01*
X179629303Y-117099038D02*
X179683190Y-117188094D01*
X179683190Y-117188094D02*
X179721256Y-117296614D01*
X179721256Y-117296614D02*
X179743965Y-117425603D01*
X179743965Y-117425603D02*
X179751780Y-117576068D01*
X179751780Y-117576068D02*
X179751790Y-117581947D01*
X179751790Y-117581947D02*
X179744495Y-117733276D01*
X179744495Y-117733276D02*
X179722307Y-117863089D01*
X179722307Y-117863089D02*
X179684771Y-117972372D01*
X179684771Y-117972372D02*
X179631432Y-118062114D01*
X179631432Y-118062114D02*
X179561835Y-118133300D01*
X179561835Y-118133300D02*
X179475525Y-118186919D01*
X179475525Y-118186919D02*
X179472209Y-118188483D01*
X179472209Y-118188483D02*
X179445207Y-118200475D01*
X179445207Y-118200475D02*
X179419637Y-118209509D01*
X179419637Y-118209509D02*
X179390994Y-118216134D01*
X179390994Y-118216134D02*
X179354771Y-118220900D01*
X179354771Y-118220900D02*
X179306463Y-118224356D01*
X179306463Y-118224356D02*
X179241564Y-118227051D01*
X179241564Y-118227051D02*
X179155568Y-118229536D01*
X179155568Y-118229536D02*
X179130158Y-118230190D01*
X179130158Y-118230190D02*
X178862790Y-118237000D01*
X178862790Y-118237000D02*
X178859099Y-118440868D01*
X178859099Y-118440868D02*
X178855409Y-118644737D01*
X178855409Y-118644737D02*
X178454432Y-118644737D01*
X178454432Y-118644737D02*
X178458084Y-117856971D01*
X178458084Y-117856971D02*
X178458870Y-117692118D01*
X178458870Y-117692118D02*
X178459631Y-117551895D01*
X178459631Y-117551895D02*
X178459639Y-117550715D01*
X178459639Y-117550715D02*
X178856068Y-117550715D01*
X178856068Y-117550715D02*
X178856105Y-117602747D01*
X178856105Y-117602747D02*
X178856484Y-117690069D01*
X178856484Y-117690069D02*
X178857543Y-117768292D01*
X178857543Y-117768292D02*
X178859172Y-117833502D01*
X178859172Y-117833502D02*
X178861258Y-117881784D01*
X178861258Y-117881784D02*
X178863689Y-117909227D01*
X178863689Y-117909227D02*
X178865018Y-117913930D01*
X178865018Y-117913930D02*
X178884022Y-117919468D01*
X178884022Y-117919468D02*
X178922950Y-117922577D01*
X178922950Y-117922577D02*
X178975116Y-117923447D01*
X178975116Y-117923447D02*
X179033834Y-117922268D01*
X179033834Y-117922268D02*
X179092420Y-117919227D01*
X179092420Y-117919227D02*
X179144187Y-117914514D01*
X179144187Y-117914514D02*
X179182451Y-117908318D01*
X179182451Y-117908318D02*
X179194712Y-117904607D01*
X179194712Y-117904607D02*
X179243601Y-117876801D01*
X179243601Y-117876801D02*
X179280248Y-117837606D01*
X179280248Y-117837606D02*
X179305814Y-117783923D01*
X179305814Y-117783923D02*
X179321459Y-117712650D01*
X179321459Y-117712650D02*
X179328343Y-117620686D01*
X179328343Y-117620686D02*
X179328645Y-117546715D01*
X179328645Y-117546715D02*
X179322759Y-117447521D01*
X179322759Y-117447521D02*
X179306868Y-117371348D01*
X179306868Y-117371348D02*
X179278322Y-117315508D01*
X179278322Y-117315508D02*
X179234472Y-117277319D01*
X179234472Y-117277319D02*
X179172667Y-117254093D01*
X179172667Y-117254093D02*
X179090258Y-117243146D01*
X179090258Y-117243146D02*
X179027311Y-117241346D01*
X179027311Y-117241346D02*
X178976340Y-117241112D01*
X178976340Y-117241112D02*
X178936621Y-117242639D01*
X178936621Y-117242639D02*
X178906752Y-117248879D01*
X178906752Y-117248879D02*
X178885336Y-117262786D01*
X178885336Y-117262786D02*
X178870974Y-117287315D01*
X178870974Y-117287315D02*
X178862265Y-117325418D01*
X178862265Y-117325418D02*
X178857810Y-117380050D01*
X178857810Y-117380050D02*
X178856211Y-117454165D01*
X178856211Y-117454165D02*
X178856068Y-117550715D01*
X178856068Y-117550715D02*
X178459639Y-117550715D01*
X178459639Y-117550715D02*
X178460448Y-117434194D01*
X178460448Y-117434194D02*
X178461399Y-117336910D01*
X178461399Y-117336910D02*
X178462564Y-117257935D01*
X178462564Y-117257935D02*
X178464024Y-117195163D01*
X178464024Y-117195163D02*
X178465858Y-117146486D01*
X178465858Y-117146486D02*
X178468146Y-117109799D01*
X178468146Y-117109799D02*
X178470968Y-117082993D01*
X178470968Y-117082993D02*
X178474402Y-117063962D01*
X178474402Y-117063962D02*
X178478530Y-117050600D01*
X178478530Y-117050600D02*
X178483431Y-117040799D01*
X178483431Y-117040799D02*
X178489184Y-117032453D01*
X178489184Y-117032453D02*
X178489300Y-117032297D01*
X178489300Y-117032297D02*
X178521139Y-116996621D01*
X178521139Y-116996621D02*
X178553802Y-116967826D01*
X178553802Y-116967826D02*
X178565379Y-116959994D01*
X178565379Y-116959994D02*
X178578797Y-116953804D01*
X178578797Y-116953804D02*
X178597132Y-116949063D01*
X178597132Y-116949063D02*
X178623464Y-116945578D01*
X178623464Y-116945578D02*
X178660868Y-116943158D01*
X178660868Y-116943158D02*
X178712423Y-116941609D01*
X178712423Y-116941609D02*
X178781205Y-116940739D01*
X178781205Y-116940739D02*
X178870292Y-116940354D01*
X178870292Y-116940354D02*
X178982762Y-116940264D01*
X178982762Y-116940264D02*
X178994134Y-116940263D01*
X178994134Y-116940263D02*
X179397527Y-116940263D01*
X179397527Y-116940263D02*
X179472209Y-116975286D01*
X179472209Y-116975286D02*
X179472209Y-116975286D01*
G36*
X178461399Y-117336910D02*
G01*
X178462564Y-117257935D01*
X178464024Y-117195163D01*
X178465858Y-117146486D01*
X178468146Y-117109799D01*
X178470968Y-117082993D01*
X178474402Y-117063962D01*
X178478530Y-117050600D01*
X178483431Y-117040799D01*
X178489184Y-117032453D01*
X178489300Y-117032297D01*
X178521139Y-116996621D01*
X178553802Y-116967826D01*
X178565379Y-116959994D01*
X178578797Y-116953804D01*
X178597132Y-116949063D01*
X178623464Y-116945578D01*
X178660868Y-116943158D01*
X178712423Y-116941609D01*
X178781205Y-116940739D01*
X178870292Y-116940354D01*
X178982762Y-116940264D01*
X178994134Y-116940263D01*
X179397527Y-116940263D01*
X179472209Y-116975286D01*
X179559130Y-117028437D01*
X179629303Y-117099038D01*
X179683190Y-117188094D01*
X179721256Y-117296614D01*
X179743965Y-117425603D01*
X179751780Y-117576068D01*
X179751790Y-117581947D01*
X179744495Y-117733276D01*
X179722307Y-117863089D01*
X179684771Y-117972372D01*
X179631432Y-118062114D01*
X179561835Y-118133300D01*
X179475525Y-118186919D01*
X179472209Y-118188483D01*
X179445207Y-118200475D01*
X179419637Y-118209509D01*
X179390994Y-118216134D01*
X179354771Y-118220900D01*
X179306463Y-118224356D01*
X179241564Y-118227051D01*
X179155568Y-118229536D01*
X179130158Y-118230190D01*
X178862790Y-118237000D01*
X178859099Y-118440868D01*
X178855409Y-118644737D01*
X178454432Y-118644737D01*
X178458084Y-117856971D01*
X178458870Y-117692118D01*
X178459631Y-117551895D01*
X178459639Y-117550715D01*
X178856068Y-117550715D01*
X178856105Y-117602747D01*
X178856484Y-117690069D01*
X178857543Y-117768292D01*
X178859172Y-117833502D01*
X178861258Y-117881784D01*
X178863689Y-117909227D01*
X178865018Y-117913930D01*
X178884022Y-117919468D01*
X178922950Y-117922577D01*
X178975116Y-117923447D01*
X179033834Y-117922268D01*
X179092420Y-117919227D01*
X179144187Y-117914514D01*
X179182451Y-117908318D01*
X179194712Y-117904607D01*
X179243601Y-117876801D01*
X179280248Y-117837606D01*
X179305814Y-117783923D01*
X179321459Y-117712650D01*
X179328343Y-117620686D01*
X179328645Y-117546715D01*
X179322759Y-117447521D01*
X179306868Y-117371348D01*
X179278322Y-117315508D01*
X179234472Y-117277319D01*
X179172667Y-117254093D01*
X179090258Y-117243146D01*
X179027311Y-117241346D01*
X178976340Y-117241112D01*
X178936621Y-117242639D01*
X178906752Y-117248879D01*
X178885336Y-117262786D01*
X178870974Y-117287315D01*
X178862265Y-117325418D01*
X178857810Y-117380050D01*
X178856211Y-117454165D01*
X178856068Y-117550715D01*
X178459639Y-117550715D01*
X178460448Y-117434194D01*
X178461399Y-117336910D01*
G37*
X178461399Y-117336910D02*
X178462564Y-117257935D01*
X178464024Y-117195163D01*
X178465858Y-117146486D01*
X178468146Y-117109799D01*
X178470968Y-117082993D01*
X178474402Y-117063962D01*
X178478530Y-117050600D01*
X178483431Y-117040799D01*
X178489184Y-117032453D01*
X178489300Y-117032297D01*
X178521139Y-116996621D01*
X178553802Y-116967826D01*
X178565379Y-116959994D01*
X178578797Y-116953804D01*
X178597132Y-116949063D01*
X178623464Y-116945578D01*
X178660868Y-116943158D01*
X178712423Y-116941609D01*
X178781205Y-116940739D01*
X178870292Y-116940354D01*
X178982762Y-116940264D01*
X178994134Y-116940263D01*
X179397527Y-116940263D01*
X179472209Y-116975286D01*
X179559130Y-117028437D01*
X179629303Y-117099038D01*
X179683190Y-117188094D01*
X179721256Y-117296614D01*
X179743965Y-117425603D01*
X179751780Y-117576068D01*
X179751790Y-117581947D01*
X179744495Y-117733276D01*
X179722307Y-117863089D01*
X179684771Y-117972372D01*
X179631432Y-118062114D01*
X179561835Y-118133300D01*
X179475525Y-118186919D01*
X179472209Y-118188483D01*
X179445207Y-118200475D01*
X179419637Y-118209509D01*
X179390994Y-118216134D01*
X179354771Y-118220900D01*
X179306463Y-118224356D01*
X179241564Y-118227051D01*
X179155568Y-118229536D01*
X179130158Y-118230190D01*
X178862790Y-118237000D01*
X178859099Y-118440868D01*
X178855409Y-118644737D01*
X178454432Y-118644737D01*
X178458084Y-117856971D01*
X178458870Y-117692118D01*
X178459631Y-117551895D01*
X178459639Y-117550715D01*
X178856068Y-117550715D01*
X178856105Y-117602747D01*
X178856484Y-117690069D01*
X178857543Y-117768292D01*
X178859172Y-117833502D01*
X178861258Y-117881784D01*
X178863689Y-117909227D01*
X178865018Y-117913930D01*
X178884022Y-117919468D01*
X178922950Y-117922577D01*
X178975116Y-117923447D01*
X179033834Y-117922268D01*
X179092420Y-117919227D01*
X179144187Y-117914514D01*
X179182451Y-117908318D01*
X179194712Y-117904607D01*
X179243601Y-117876801D01*
X179280248Y-117837606D01*
X179305814Y-117783923D01*
X179321459Y-117712650D01*
X179328343Y-117620686D01*
X179328645Y-117546715D01*
X179322759Y-117447521D01*
X179306868Y-117371348D01*
X179278322Y-117315508D01*
X179234472Y-117277319D01*
X179172667Y-117254093D01*
X179090258Y-117243146D01*
X179027311Y-117241346D01*
X178976340Y-117241112D01*
X178936621Y-117242639D01*
X178906752Y-117248879D01*
X178885336Y-117262786D01*
X178870974Y-117287315D01*
X178862265Y-117325418D01*
X178857810Y-117380050D01*
X178856211Y-117454165D01*
X178856068Y-117550715D01*
X178459639Y-117550715D01*
X178460448Y-117434194D01*
X178461399Y-117336910D01*
X175584919Y-116923452D02*
X175677558Y-116926568D01*
X175677558Y-116926568D02*
X175748931Y-116930610D01*
X175748931Y-116930610D02*
X175804507Y-116936174D01*
X175804507Y-116936174D02*
X175849753Y-116943859D01*
X175849753Y-116943859D02*
X175890140Y-116954263D01*
X175890140Y-116954263D02*
X175902822Y-116958230D01*
X175902822Y-116958230D02*
X176005990Y-117002459D01*
X176005990Y-117002459D02*
X176088671Y-117062615D01*
X176088671Y-117062615D02*
X176153013Y-117140881D01*
X176153013Y-117140881D02*
X176201160Y-117239439D01*
X176201160Y-117239439D02*
X176212887Y-117273671D01*
X176212887Y-117273671D02*
X176224587Y-117314433D01*
X176224587Y-117314433D02*
X176232808Y-117354065D01*
X176232808Y-117354065D02*
X176238131Y-117398606D01*
X176238131Y-117398606D02*
X176241136Y-117454096D01*
X176241136Y-117454096D02*
X176242407Y-117526573D01*
X176242407Y-117526573D02*
X176242579Y-117581947D01*
X176242579Y-117581947D02*
X176242084Y-117667811D01*
X176242084Y-117667811D02*
X176240209Y-117732988D01*
X176240209Y-117732988D02*
X176236375Y-117783518D01*
X176236375Y-117783518D02*
X176229998Y-117825440D01*
X176229998Y-117825440D02*
X176220498Y-117864793D01*
X176220498Y-117864793D02*
X176212887Y-117890224D01*
X176212887Y-117890224D02*
X176169246Y-117995337D01*
X176169246Y-117995337D02*
X176110060Y-118079513D01*
X176110060Y-118079513D02*
X176033148Y-118144971D01*
X176033148Y-118144971D02*
X175936329Y-118193929D01*
X175936329Y-118193929D02*
X175902822Y-118205814D01*
X175902822Y-118205814D02*
X175866961Y-118216350D01*
X175866961Y-118216350D02*
X175829895Y-118224211D01*
X175829895Y-118224211D02*
X175786597Y-118229881D01*
X175786597Y-118229881D02*
X175732039Y-118233844D01*
X175732039Y-118233844D02*
X175661194Y-118236583D01*
X175661194Y-118236583D02*
X175569032Y-118238582D01*
X175569032Y-118238582D02*
X175560790Y-118238721D01*
X175560790Y-118238721D02*
X175450306Y-118239665D01*
X175450306Y-118239665D02*
X175362898Y-118238298D01*
X175362898Y-118238298D02*
X175294989Y-118234466D01*
X175294989Y-118234466D02*
X175243004Y-118228017D01*
X175243004Y-118228017D02*
X175224135Y-118224284D01*
X175224135Y-118224284D02*
X175112535Y-118190991D01*
X175112535Y-118190991D02*
X175020138Y-118144873D01*
X175020138Y-118144873D02*
X174945841Y-118084232D01*
X174945841Y-118084232D02*
X174888538Y-118007374D01*
X174888538Y-118007374D02*
X174847127Y-117912601D01*
X174847127Y-117912601D02*
X174820502Y-117798219D01*
X174820502Y-117798219D02*
X174807559Y-117662531D01*
X174807559Y-117662531D02*
X174805869Y-117581947D01*
X174805869Y-117581947D02*
X174806195Y-117572798D01*
X174806195Y-117572798D02*
X175221627Y-117572798D01*
X175221627Y-117572798D02*
X175223679Y-117632452D01*
X175223679Y-117632452D02*
X175239248Y-117734696D01*
X175239248Y-117734696D02*
X175270413Y-117815839D01*
X175270413Y-117815839D02*
X175316968Y-117875558D01*
X175316968Y-117875558D02*
X175378706Y-117913529D01*
X175378706Y-117913529D02*
X175408695Y-117922814D01*
X175408695Y-117922814D02*
X175496206Y-117933867D01*
X175496206Y-117933867D02*
X175589412Y-117929805D01*
X175589412Y-117929805D02*
X175657623Y-117915938D01*
X175657623Y-117915938D02*
X175718854Y-117889463D01*
X175718854Y-117889463D02*
X175764919Y-117849418D01*
X175764919Y-117849418D02*
X175797145Y-117793166D01*
X175797145Y-117793166D02*
X175816861Y-117718076D01*
X175816861Y-117718076D02*
X175825394Y-117621511D01*
X175825394Y-117621511D02*
X175825984Y-117581947D01*
X175825984Y-117581947D02*
X175821325Y-117478182D01*
X175821325Y-117478182D02*
X175806343Y-117396769D01*
X175806343Y-117396769D02*
X175779527Y-117334818D01*
X175779527Y-117334818D02*
X175739370Y-117289441D01*
X175739370Y-117289441D02*
X175684362Y-117257748D01*
X175684362Y-117257748D02*
X175650567Y-117246057D01*
X175650567Y-117246057D02*
X175581459Y-117233218D01*
X175581459Y-117233218D02*
X175505515Y-117230700D01*
X175505515Y-117230700D02*
X175432089Y-117237933D01*
X175432089Y-117237933D02*
X175370537Y-117254343D01*
X175370537Y-117254343D02*
X175349377Y-117264468D01*
X175349377Y-117264468D02*
X175294460Y-117311795D01*
X175294460Y-117311795D02*
X175254496Y-117380035D01*
X175254496Y-117380035D02*
X175230034Y-117467574D01*
X175230034Y-117467574D02*
X175221627Y-117572798D01*
X175221627Y-117572798D02*
X174806195Y-117572798D01*
X174806195Y-117572798D02*
X174810783Y-117444357D01*
X174810783Y-117444357D02*
X174826167Y-117328733D01*
X174826167Y-117328733D02*
X174852982Y-117232052D01*
X174852982Y-117232052D02*
X174892193Y-117151291D01*
X174892193Y-117151291D02*
X174944761Y-117083427D01*
X174944761Y-117083427D02*
X174973322Y-117056034D01*
X174973322Y-117056034D02*
X175033669Y-117010815D01*
X175033669Y-117010815D02*
X175102128Y-116975721D01*
X175102128Y-116975721D02*
X175182005Y-116950034D01*
X175182005Y-116950034D02*
X175276607Y-116933037D01*
X175276607Y-116933037D02*
X175389240Y-116924015D01*
X175389240Y-116924015D02*
X175523212Y-116922249D01*
X175523212Y-116922249D02*
X175584919Y-116923452D01*
X175584919Y-116923452D02*
X175584919Y-116923452D01*
G36*
X174826167Y-117328733D02*
G01*
X174852982Y-117232052D01*
X174892193Y-117151291D01*
X174944761Y-117083427D01*
X174973322Y-117056034D01*
X175033669Y-117010815D01*
X175102128Y-116975721D01*
X175182005Y-116950034D01*
X175276607Y-116933037D01*
X175389240Y-116924015D01*
X175523212Y-116922249D01*
X175584919Y-116923452D01*
X175677558Y-116926568D01*
X175748931Y-116930610D01*
X175804507Y-116936174D01*
X175849753Y-116943859D01*
X175890140Y-116954263D01*
X175902822Y-116958230D01*
X176005990Y-117002459D01*
X176088671Y-117062615D01*
X176153013Y-117140881D01*
X176201160Y-117239439D01*
X176212887Y-117273671D01*
X176224587Y-117314433D01*
X176232808Y-117354065D01*
X176238131Y-117398606D01*
X176241136Y-117454096D01*
X176242407Y-117526573D01*
X176242579Y-117581947D01*
X176242084Y-117667811D01*
X176240209Y-117732988D01*
X176236375Y-117783518D01*
X176229998Y-117825440D01*
X176220498Y-117864793D01*
X176212887Y-117890224D01*
X176169246Y-117995337D01*
X176110060Y-118079513D01*
X176033148Y-118144971D01*
X175936329Y-118193929D01*
X175902822Y-118205814D01*
X175866961Y-118216350D01*
X175829895Y-118224211D01*
X175786597Y-118229881D01*
X175732039Y-118233844D01*
X175661194Y-118236583D01*
X175569032Y-118238582D01*
X175560790Y-118238721D01*
X175450306Y-118239665D01*
X175362898Y-118238298D01*
X175294989Y-118234466D01*
X175243004Y-118228017D01*
X175224135Y-118224284D01*
X175112535Y-118190991D01*
X175020138Y-118144873D01*
X174945841Y-118084232D01*
X174888538Y-118007374D01*
X174847127Y-117912601D01*
X174820502Y-117798219D01*
X174807559Y-117662531D01*
X174805869Y-117581947D01*
X174806195Y-117572798D01*
X175221627Y-117572798D01*
X175223679Y-117632452D01*
X175239248Y-117734696D01*
X175270413Y-117815839D01*
X175316968Y-117875558D01*
X175378706Y-117913529D01*
X175408695Y-117922814D01*
X175496206Y-117933867D01*
X175589412Y-117929805D01*
X175657623Y-117915938D01*
X175718854Y-117889463D01*
X175764919Y-117849418D01*
X175797145Y-117793166D01*
X175816861Y-117718076D01*
X175825394Y-117621511D01*
X175825984Y-117581947D01*
X175821325Y-117478182D01*
X175806343Y-117396769D01*
X175779527Y-117334818D01*
X175739370Y-117289441D01*
X175684362Y-117257748D01*
X175650567Y-117246057D01*
X175581459Y-117233218D01*
X175505515Y-117230700D01*
X175432089Y-117237933D01*
X175370537Y-117254343D01*
X175349377Y-117264468D01*
X175294460Y-117311795D01*
X175254496Y-117380035D01*
X175230034Y-117467574D01*
X175221627Y-117572798D01*
X174806195Y-117572798D01*
X174810783Y-117444357D01*
X174826167Y-117328733D01*
G37*
X174826167Y-117328733D02*
X174852982Y-117232052D01*
X174892193Y-117151291D01*
X174944761Y-117083427D01*
X174973322Y-117056034D01*
X175033669Y-117010815D01*
X175102128Y-116975721D01*
X175182005Y-116950034D01*
X175276607Y-116933037D01*
X175389240Y-116924015D01*
X175523212Y-116922249D01*
X175584919Y-116923452D01*
X175677558Y-116926568D01*
X175748931Y-116930610D01*
X175804507Y-116936174D01*
X175849753Y-116943859D01*
X175890140Y-116954263D01*
X175902822Y-116958230D01*
X176005990Y-117002459D01*
X176088671Y-117062615D01*
X176153013Y-117140881D01*
X176201160Y-117239439D01*
X176212887Y-117273671D01*
X176224587Y-117314433D01*
X176232808Y-117354065D01*
X176238131Y-117398606D01*
X176241136Y-117454096D01*
X176242407Y-117526573D01*
X176242579Y-117581947D01*
X176242084Y-117667811D01*
X176240209Y-117732988D01*
X176236375Y-117783518D01*
X176229998Y-117825440D01*
X176220498Y-117864793D01*
X176212887Y-117890224D01*
X176169246Y-117995337D01*
X176110060Y-118079513D01*
X176033148Y-118144971D01*
X175936329Y-118193929D01*
X175902822Y-118205814D01*
X175866961Y-118216350D01*
X175829895Y-118224211D01*
X175786597Y-118229881D01*
X175732039Y-118233844D01*
X175661194Y-118236583D01*
X175569032Y-118238582D01*
X175560790Y-118238721D01*
X175450306Y-118239665D01*
X175362898Y-118238298D01*
X175294989Y-118234466D01*
X175243004Y-118228017D01*
X175224135Y-118224284D01*
X175112535Y-118190991D01*
X175020138Y-118144873D01*
X174945841Y-118084232D01*
X174888538Y-118007374D01*
X174847127Y-117912601D01*
X174820502Y-117798219D01*
X174807559Y-117662531D01*
X174805869Y-117581947D01*
X174806195Y-117572798D01*
X175221627Y-117572798D01*
X175223679Y-117632452D01*
X175239248Y-117734696D01*
X175270413Y-117815839D01*
X175316968Y-117875558D01*
X175378706Y-117913529D01*
X175408695Y-117922814D01*
X175496206Y-117933867D01*
X175589412Y-117929805D01*
X175657623Y-117915938D01*
X175718854Y-117889463D01*
X175764919Y-117849418D01*
X175797145Y-117793166D01*
X175816861Y-117718076D01*
X175825394Y-117621511D01*
X175825984Y-117581947D01*
X175821325Y-117478182D01*
X175806343Y-117396769D01*
X175779527Y-117334818D01*
X175739370Y-117289441D01*
X175684362Y-117257748D01*
X175650567Y-117246057D01*
X175581459Y-117233218D01*
X175505515Y-117230700D01*
X175432089Y-117237933D01*
X175370537Y-117254343D01*
X175349377Y-117264468D01*
X175294460Y-117311795D01*
X175254496Y-117380035D01*
X175230034Y-117467574D01*
X175221627Y-117572798D01*
X174806195Y-117572798D01*
X174810783Y-117444357D01*
X174826167Y-117328733D01*
X174752000Y-117239215D02*
X174454553Y-117243476D01*
X174454553Y-117243476D02*
X174345782Y-117245422D01*
X174345782Y-117245422D02*
X174260274Y-117248459D01*
X174260274Y-117248459D02*
X174194555Y-117253607D01*
X174194555Y-117253607D02*
X174145152Y-117261890D01*
X174145152Y-117261890D02*
X174108589Y-117274327D01*
X174108589Y-117274327D02*
X174081394Y-117291940D01*
X174081394Y-117291940D02*
X174060093Y-117315751D01*
X174060093Y-117315751D02*
X174041211Y-117346781D01*
X174041211Y-117346781D02*
X174030105Y-117368277D01*
X174030105Y-117368277D02*
X174014950Y-117401454D01*
X174014950Y-117401454D02*
X174005169Y-117433192D01*
X174005169Y-117433192D02*
X173999624Y-117470764D01*
X173999624Y-117470764D02*
X173997178Y-117521446D01*
X173997178Y-117521446D02*
X173996684Y-117581947D01*
X173996684Y-117581947D02*
X173997359Y-117649975D01*
X173997359Y-117649975D02*
X174000141Y-117698558D01*
X174000141Y-117698558D02*
X174006168Y-117734970D01*
X174006168Y-117734970D02*
X174016579Y-117766485D01*
X174016579Y-117766485D02*
X174030105Y-117795618D01*
X174030105Y-117795618D02*
X174048767Y-117830673D01*
X174048767Y-117830673D02*
X174067732Y-117858185D01*
X174067732Y-117858185D02*
X174090391Y-117879120D01*
X174090391Y-117879120D02*
X174120136Y-117894445D01*
X174120136Y-117894445D02*
X174160357Y-117905125D01*
X174160357Y-117905125D02*
X174214445Y-117912128D01*
X174214445Y-117912128D02*
X174285792Y-117916420D01*
X174285792Y-117916420D02*
X174377789Y-117918967D01*
X174377789Y-117918967D02*
X174467921Y-117920389D01*
X174467921Y-117920389D02*
X174778737Y-117924620D01*
X174778737Y-117924620D02*
X174778737Y-118230316D01*
X174778737Y-118230316D02*
X174381027Y-118228973D01*
X174381027Y-118228973D02*
X174277960Y-118228238D01*
X174277960Y-118228238D02*
X174181391Y-118226820D01*
X174181391Y-118226820D02*
X174095177Y-118224831D01*
X174095177Y-118224831D02*
X174023174Y-118222384D01*
X174023174Y-118222384D02*
X173969239Y-118219594D01*
X173969239Y-118219594D02*
X173937228Y-118216573D01*
X173937228Y-118216573D02*
X173933130Y-118215802D01*
X173933130Y-118215802D02*
X173859589Y-118190648D01*
X173859589Y-118190648D02*
X173787763Y-118152576D01*
X173787763Y-118152576D02*
X173728208Y-118107556D01*
X173728208Y-118107556D02*
X173711484Y-118090434D01*
X173711484Y-118090434D02*
X173662628Y-118024684D01*
X173662628Y-118024684D02*
X173625765Y-117950553D01*
X173625765Y-117950553D02*
X173599848Y-117864113D01*
X173599848Y-117864113D02*
X173583831Y-117761433D01*
X173583831Y-117761433D02*
X173576665Y-117638583D01*
X173576665Y-117638583D02*
X173576043Y-117581947D01*
X173576043Y-117581947D02*
X173581398Y-117436476D01*
X173581398Y-117436476D02*
X173598094Y-117313525D01*
X173598094Y-117313525D02*
X173627076Y-117210983D01*
X173627076Y-117210983D02*
X173669290Y-117126738D01*
X173669290Y-117126738D02*
X173725683Y-117058678D01*
X173725683Y-117058678D02*
X173797202Y-117004689D01*
X173797202Y-117004689D02*
X173846132Y-116978923D01*
X173846132Y-116978923D02*
X173929842Y-116940263D01*
X173929842Y-116940263D02*
X174340921Y-116936050D01*
X174340921Y-116936050D02*
X174752000Y-116931838D01*
X174752000Y-116931838D02*
X174752000Y-117239215D01*
X174752000Y-117239215D02*
X174752000Y-117239215D01*
G36*
X174752000Y-117239215D02*
G01*
X174454553Y-117243476D01*
X174345782Y-117245422D01*
X174260274Y-117248459D01*
X174194555Y-117253607D01*
X174145152Y-117261890D01*
X174108589Y-117274327D01*
X174081394Y-117291940D01*
X174060093Y-117315751D01*
X174041211Y-117346781D01*
X174030105Y-117368277D01*
X174014950Y-117401454D01*
X174005169Y-117433192D01*
X173999624Y-117470764D01*
X173997178Y-117521446D01*
X173996684Y-117581947D01*
X173997359Y-117649975D01*
X174000141Y-117698558D01*
X174006168Y-117734970D01*
X174016579Y-117766485D01*
X174030105Y-117795618D01*
X174048767Y-117830673D01*
X174067732Y-117858185D01*
X174090391Y-117879120D01*
X174120136Y-117894445D01*
X174160357Y-117905125D01*
X174214445Y-117912128D01*
X174285792Y-117916420D01*
X174377789Y-117918967D01*
X174467921Y-117920389D01*
X174778737Y-117924620D01*
X174778737Y-118230316D01*
X174381027Y-118228973D01*
X174277960Y-118228238D01*
X174181391Y-118226820D01*
X174095177Y-118224831D01*
X174023174Y-118222384D01*
X173969239Y-118219594D01*
X173937228Y-118216573D01*
X173933130Y-118215802D01*
X173859589Y-118190648D01*
X173787763Y-118152576D01*
X173728208Y-118107556D01*
X173711484Y-118090434D01*
X173662628Y-118024684D01*
X173625765Y-117950553D01*
X173599848Y-117864113D01*
X173583831Y-117761433D01*
X173576665Y-117638583D01*
X173576043Y-117581947D01*
X173581398Y-117436476D01*
X173598094Y-117313525D01*
X173627076Y-117210983D01*
X173669290Y-117126738D01*
X173725683Y-117058678D01*
X173797202Y-117004689D01*
X173846132Y-116978923D01*
X173929842Y-116940263D01*
X174340921Y-116936050D01*
X174752000Y-116931838D01*
X174752000Y-117239215D01*
G37*
X174752000Y-117239215D02*
X174454553Y-117243476D01*
X174345782Y-117245422D01*
X174260274Y-117248459D01*
X174194555Y-117253607D01*
X174145152Y-117261890D01*
X174108589Y-117274327D01*
X174081394Y-117291940D01*
X174060093Y-117315751D01*
X174041211Y-117346781D01*
X174030105Y-117368277D01*
X174014950Y-117401454D01*
X174005169Y-117433192D01*
X173999624Y-117470764D01*
X173997178Y-117521446D01*
X173996684Y-117581947D01*
X173997359Y-117649975D01*
X174000141Y-117698558D01*
X174006168Y-117734970D01*
X174016579Y-117766485D01*
X174030105Y-117795618D01*
X174048767Y-117830673D01*
X174067732Y-117858185D01*
X174090391Y-117879120D01*
X174120136Y-117894445D01*
X174160357Y-117905125D01*
X174214445Y-117912128D01*
X174285792Y-117916420D01*
X174377789Y-117918967D01*
X174467921Y-117920389D01*
X174778737Y-117924620D01*
X174778737Y-118230316D01*
X174381027Y-118228973D01*
X174277960Y-118228238D01*
X174181391Y-118226820D01*
X174095177Y-118224831D01*
X174023174Y-118222384D01*
X173969239Y-118219594D01*
X173937228Y-118216573D01*
X173933130Y-118215802D01*
X173859589Y-118190648D01*
X173787763Y-118152576D01*
X173728208Y-118107556D01*
X173711484Y-118090434D01*
X173662628Y-118024684D01*
X173625765Y-117950553D01*
X173599848Y-117864113D01*
X173583831Y-117761433D01*
X173576665Y-117638583D01*
X173576043Y-117581947D01*
X173581398Y-117436476D01*
X173598094Y-117313525D01*
X173627076Y-117210983D01*
X173669290Y-117126738D01*
X173725683Y-117058678D01*
X173797202Y-117004689D01*
X173846132Y-116978923D01*
X173929842Y-116940263D01*
X174340921Y-116936050D01*
X174752000Y-116931838D01*
X174752000Y-117239215D01*
X177368938Y-116933626D02*
X177497077Y-116933826D01*
X177497077Y-116933826D02*
X177603418Y-116934266D01*
X177603418Y-116934266D02*
X177690433Y-116935033D01*
X177690433Y-116935033D02*
X177760592Y-116936214D01*
X177760592Y-116936214D02*
X177816364Y-116937896D01*
X177816364Y-116937896D02*
X177860220Y-116940167D01*
X177860220Y-116940167D02*
X177894629Y-116943114D01*
X177894629Y-116943114D02*
X177922062Y-116946824D01*
X177922062Y-116946824D02*
X177944989Y-116951385D01*
X177944989Y-116951385D02*
X177965880Y-116956883D01*
X177965880Y-116956883D02*
X177977773Y-116960454D01*
X177977773Y-116960454D02*
X178068503Y-117001186D01*
X178068503Y-117001186D02*
X178147002Y-117061600D01*
X178147002Y-117061600D02*
X178207953Y-117137113D01*
X178207953Y-117137113D02*
X178229316Y-117177159D01*
X178229316Y-117177159D02*
X178237601Y-117196083D01*
X178237601Y-117196083D02*
X178244336Y-117214431D01*
X178244336Y-117214431D02*
X178249708Y-117235121D01*
X178249708Y-117235121D02*
X178253902Y-117261074D01*
X178253902Y-117261074D02*
X178257105Y-117295209D01*
X178257105Y-117295209D02*
X178259504Y-117340445D01*
X178259504Y-117340445D02*
X178261284Y-117399703D01*
X178261284Y-117399703D02*
X178262632Y-117475901D01*
X178262632Y-117475901D02*
X178263734Y-117571960D01*
X178263734Y-117571960D02*
X178264777Y-117690799D01*
X178264777Y-117690799D02*
X178265168Y-117739026D01*
X178265168Y-117739026D02*
X178269126Y-118230316D01*
X178269126Y-118230316D02*
X177866842Y-118230316D01*
X177866842Y-118230316D02*
X177866260Y-117852658D01*
X177866260Y-117852658D02*
X177865713Y-117751603D01*
X177865713Y-117751603D02*
X177864460Y-117656525D01*
X177864460Y-117656525D02*
X177862615Y-117571519D01*
X177862615Y-117571519D02*
X177860288Y-117500681D01*
X177860288Y-117500681D02*
X177857590Y-117448107D01*
X177857590Y-117448107D02*
X177854633Y-117417891D01*
X177854633Y-117417891D02*
X177854422Y-117416738D01*
X177854422Y-117416738D02*
X177832138Y-117347286D01*
X177832138Y-117347286D02*
X177794668Y-117297375D01*
X177794668Y-117297375D02*
X177739877Y-117265469D01*
X177739877Y-117265469D02*
X177665630Y-117250035D01*
X177665630Y-117250035D02*
X177619527Y-117248012D01*
X177619527Y-117248012D02*
X177525948Y-117247737D01*
X177525948Y-117247737D02*
X177522441Y-117739026D01*
X177522441Y-117739026D02*
X177518934Y-118230316D01*
X177518934Y-118230316D02*
X177118540Y-118230316D01*
X177118540Y-118230316D02*
X177115033Y-117739026D01*
X177115033Y-117739026D02*
X177111527Y-117247737D01*
X177111527Y-117247737D02*
X176969209Y-117243957D01*
X176969209Y-117243957D02*
X176902534Y-117242923D01*
X176902534Y-117242923D02*
X176857344Y-117244397D01*
X176857344Y-117244397D02*
X176828459Y-117248940D01*
X176828459Y-117248940D02*
X176810700Y-117257109D01*
X176810700Y-117257109D02*
X176805446Y-117261622D01*
X176805446Y-117261622D02*
X176799715Y-117269898D01*
X176799715Y-117269898D02*
X176795088Y-117283848D01*
X176795088Y-117283848D02*
X176791451Y-117306119D01*
X176791451Y-117306119D02*
X176788690Y-117339358D01*
X176788690Y-117339358D02*
X176786690Y-117386212D01*
X176786690Y-117386212D02*
X176785335Y-117449327D01*
X176785335Y-117449327D02*
X176784512Y-117531351D01*
X176784512Y-117531351D02*
X176784105Y-117634931D01*
X176784105Y-117634931D02*
X176784000Y-117756692D01*
X176784000Y-117756692D02*
X176784000Y-118230316D01*
X176784000Y-118230316D02*
X176382948Y-118230316D01*
X176382948Y-118230316D02*
X176382948Y-117661625D01*
X176382948Y-117661625D02*
X176382997Y-117523038D01*
X176382997Y-117523038D02*
X176383221Y-117408592D01*
X176383221Y-117408592D02*
X176383730Y-117315693D01*
X176383730Y-117315693D02*
X176384639Y-117241746D01*
X176384639Y-117241746D02*
X176386059Y-117184155D01*
X176386059Y-117184155D02*
X176388102Y-117140327D01*
X176388102Y-117140327D02*
X176390881Y-117107666D01*
X176390881Y-117107666D02*
X176394509Y-117083577D01*
X176394509Y-117083577D02*
X176399097Y-117065464D01*
X176399097Y-117065464D02*
X176404759Y-117050734D01*
X176404759Y-117050734D02*
X176409864Y-117040174D01*
X176409864Y-117040174D02*
X176451791Y-116986267D01*
X176451791Y-116986267D02*
X176489542Y-116960496D01*
X176489542Y-116960496D02*
X176502316Y-116954437D01*
X176502316Y-116954437D02*
X176516409Y-116949362D01*
X176516409Y-116949362D02*
X176534171Y-116945183D01*
X176534171Y-116945183D02*
X176557949Y-116941814D01*
X176557949Y-116941814D02*
X176590095Y-116939168D01*
X176590095Y-116939168D02*
X176632957Y-116937158D01*
X176632957Y-116937158D02*
X176688884Y-116935697D01*
X176688884Y-116935697D02*
X176760225Y-116934698D01*
X176760225Y-116934698D02*
X176849330Y-116934073D01*
X176849330Y-116934073D02*
X176958549Y-116933737D01*
X176958549Y-116933737D02*
X177090230Y-116933601D01*
X177090230Y-116933601D02*
X177216533Y-116933579D01*
X177216533Y-116933579D02*
X177368938Y-116933626D01*
X177368938Y-116933626D02*
X177368938Y-116933626D01*
G36*
X177368938Y-116933626D02*
G01*
X177497077Y-116933826D01*
X177603418Y-116934266D01*
X177690433Y-116935033D01*
X177760592Y-116936214D01*
X177816364Y-116937896D01*
X177860220Y-116940167D01*
X177894629Y-116943114D01*
X177922062Y-116946824D01*
X177944989Y-116951385D01*
X177965880Y-116956883D01*
X177977773Y-116960454D01*
X178068503Y-117001186D01*
X178147002Y-117061600D01*
X178207953Y-117137113D01*
X178229316Y-117177159D01*
X178237601Y-117196083D01*
X178244336Y-117214431D01*
X178249708Y-117235121D01*
X178253902Y-117261074D01*
X178257105Y-117295209D01*
X178259504Y-117340445D01*
X178261284Y-117399703D01*
X178262632Y-117475901D01*
X178263734Y-117571960D01*
X178264777Y-117690799D01*
X178265168Y-117739026D01*
X178269126Y-118230316D01*
X177866842Y-118230316D01*
X177866260Y-117852658D01*
X177865713Y-117751603D01*
X177864460Y-117656525D01*
X177862615Y-117571519D01*
X177860288Y-117500681D01*
X177857590Y-117448107D01*
X177854633Y-117417891D01*
X177854422Y-117416738D01*
X177832138Y-117347286D01*
X177794668Y-117297375D01*
X177739877Y-117265469D01*
X177665630Y-117250035D01*
X177619527Y-117248012D01*
X177525948Y-117247737D01*
X177522441Y-117739026D01*
X177518934Y-118230316D01*
X177118540Y-118230316D01*
X177115033Y-117739026D01*
X177111527Y-117247737D01*
X176969209Y-117243957D01*
X176902534Y-117242923D01*
X176857344Y-117244397D01*
X176828459Y-117248940D01*
X176810700Y-117257109D01*
X176805446Y-117261622D01*
X176799715Y-117269898D01*
X176795088Y-117283848D01*
X176791451Y-117306119D01*
X176788690Y-117339358D01*
X176786690Y-117386212D01*
X176785335Y-117449327D01*
X176784512Y-117531351D01*
X176784105Y-117634931D01*
X176784000Y-117756692D01*
X176784000Y-118230316D01*
X176382948Y-118230316D01*
X176382948Y-117661625D01*
X176382997Y-117523038D01*
X176383221Y-117408592D01*
X176383730Y-117315693D01*
X176384639Y-117241746D01*
X176386059Y-117184155D01*
X176388102Y-117140327D01*
X176390881Y-117107666D01*
X176394509Y-117083577D01*
X176399097Y-117065464D01*
X176404759Y-117050734D01*
X176409864Y-117040174D01*
X176451791Y-116986267D01*
X176489542Y-116960496D01*
X176502316Y-116954437D01*
X176516409Y-116949362D01*
X176534171Y-116945183D01*
X176557949Y-116941814D01*
X176590095Y-116939168D01*
X176632957Y-116937158D01*
X176688884Y-116935697D01*
X176760225Y-116934698D01*
X176849330Y-116934073D01*
X176958549Y-116933737D01*
X177090230Y-116933601D01*
X177216533Y-116933579D01*
X177368938Y-116933626D01*
G37*
X177368938Y-116933626D02*
X177497077Y-116933826D01*
X177603418Y-116934266D01*
X177690433Y-116935033D01*
X177760592Y-116936214D01*
X177816364Y-116937896D01*
X177860220Y-116940167D01*
X177894629Y-116943114D01*
X177922062Y-116946824D01*
X177944989Y-116951385D01*
X177965880Y-116956883D01*
X177977773Y-116960454D01*
X178068503Y-117001186D01*
X178147002Y-117061600D01*
X178207953Y-117137113D01*
X178229316Y-117177159D01*
X178237601Y-117196083D01*
X178244336Y-117214431D01*
X178249708Y-117235121D01*
X178253902Y-117261074D01*
X178257105Y-117295209D01*
X178259504Y-117340445D01*
X178261284Y-117399703D01*
X178262632Y-117475901D01*
X178263734Y-117571960D01*
X178264777Y-117690799D01*
X178265168Y-117739026D01*
X178269126Y-118230316D01*
X177866842Y-118230316D01*
X177866260Y-117852658D01*
X177865713Y-117751603D01*
X177864460Y-117656525D01*
X177862615Y-117571519D01*
X177860288Y-117500681D01*
X177857590Y-117448107D01*
X177854633Y-117417891D01*
X177854422Y-117416738D01*
X177832138Y-117347286D01*
X177794668Y-117297375D01*
X177739877Y-117265469D01*
X177665630Y-117250035D01*
X177619527Y-117248012D01*
X177525948Y-117247737D01*
X177522441Y-117739026D01*
X177518934Y-118230316D01*
X177118540Y-118230316D01*
X177115033Y-117739026D01*
X177111527Y-117247737D01*
X176969209Y-117243957D01*
X176902534Y-117242923D01*
X176857344Y-117244397D01*
X176828459Y-117248940D01*
X176810700Y-117257109D01*
X176805446Y-117261622D01*
X176799715Y-117269898D01*
X176795088Y-117283848D01*
X176791451Y-117306119D01*
X176788690Y-117339358D01*
X176786690Y-117386212D01*
X176785335Y-117449327D01*
X176784512Y-117531351D01*
X176784105Y-117634931D01*
X176784000Y-117756692D01*
X176784000Y-118230316D01*
X176382948Y-118230316D01*
X176382948Y-117661625D01*
X176382997Y-117523038D01*
X176383221Y-117408592D01*
X176383730Y-117315693D01*
X176384639Y-117241746D01*
X176386059Y-117184155D01*
X176388102Y-117140327D01*
X176390881Y-117107666D01*
X176394509Y-117083577D01*
X176399097Y-117065464D01*
X176404759Y-117050734D01*
X176409864Y-117040174D01*
X176451791Y-116986267D01*
X176489542Y-116960496D01*
X176502316Y-116954437D01*
X176516409Y-116949362D01*
X176534171Y-116945183D01*
X176557949Y-116941814D01*
X176590095Y-116939168D01*
X176632957Y-116937158D01*
X176688884Y-116935697D01*
X176760225Y-116934698D01*
X176849330Y-116934073D01*
X176958549Y-116933737D01*
X177090230Y-116933601D01*
X177216533Y-116933579D01*
X177368938Y-116933626D01*
X180302230Y-117351342D02*
X180303549Y-117468831D01*
X180303549Y-117468831D02*
X180304930Y-117562657D01*
X180304930Y-117562657D02*
X180306578Y-117635894D01*
X180306578Y-117635894D02*
X180308701Y-117691616D01*
X180308701Y-117691616D02*
X180311505Y-117732895D01*
X180311505Y-117732895D02*
X180315195Y-117762805D01*
X180315195Y-117762805D02*
X180319978Y-117784421D01*
X180319978Y-117784421D02*
X180326061Y-117800815D01*
X180326061Y-117800815D02*
X180333316Y-117814497D01*
X180333316Y-117814497D02*
X180359370Y-117853924D01*
X180359370Y-117853924D02*
X180387004Y-117881882D01*
X180387004Y-117881882D02*
X180421467Y-117900480D01*
X180421467Y-117900480D02*
X180468009Y-117911828D01*
X180468009Y-117911828D02*
X180531881Y-117918036D01*
X180531881Y-117918036D02*
X180597587Y-117920680D01*
X180597587Y-117920680D02*
X180667023Y-117922198D01*
X180667023Y-117922198D02*
X180714619Y-117921829D01*
X180714619Y-117921829D02*
X180745234Y-117919053D01*
X180745234Y-117919053D02*
X180763731Y-117913348D01*
X180763731Y-117913348D02*
X180774969Y-117904192D01*
X180774969Y-117904192D02*
X180777132Y-117901415D01*
X180777132Y-117901415D02*
X180781992Y-117888886D01*
X180781992Y-117888886D02*
X180785925Y-117864428D01*
X180785925Y-117864428D02*
X180789011Y-117825789D01*
X180789011Y-117825789D02*
X180791328Y-117770717D01*
X180791328Y-117770717D02*
X180792955Y-117696958D01*
X180792955Y-117696958D02*
X180793972Y-117602259D01*
X180793972Y-117602259D02*
X180794457Y-117484369D01*
X180794457Y-117484369D02*
X180794527Y-117405603D01*
X180794527Y-117405603D02*
X180794527Y-116933579D01*
X180794527Y-116933579D02*
X181210291Y-116933579D01*
X181210291Y-116933579D02*
X181206277Y-117498395D01*
X181206277Y-117498395D02*
X181205177Y-117644465D01*
X181205177Y-117644465D02*
X181203915Y-117766273D01*
X181203915Y-117766273D02*
X181202161Y-117866295D01*
X181202161Y-117866295D02*
X181199583Y-117947004D01*
X181199583Y-117947004D02*
X181195850Y-118010875D01*
X181195850Y-118010875D02*
X181190632Y-118060383D01*
X181190632Y-118060383D02*
X181183597Y-118098003D01*
X181183597Y-118098003D02*
X181174414Y-118126209D01*
X181174414Y-118126209D02*
X181162753Y-118147476D01*
X181162753Y-118147476D02*
X181148281Y-118164278D01*
X181148281Y-118164278D02*
X181130668Y-118179090D01*
X181130668Y-118179090D02*
X181113539Y-118191565D01*
X181113539Y-118191565D02*
X181100249Y-118200680D01*
X181100249Y-118200680D02*
X181086730Y-118207902D01*
X181086730Y-118207902D02*
X181069846Y-118213478D01*
X181069846Y-118213478D02*
X181046460Y-118217654D01*
X181046460Y-118217654D02*
X181013437Y-118220675D01*
X181013437Y-118220675D02*
X180967641Y-118222789D01*
X180967641Y-118222789D02*
X180905937Y-118224239D01*
X180905937Y-118224239D02*
X180825187Y-118225273D01*
X180825187Y-118225273D02*
X180722257Y-118226137D01*
X180722257Y-118226137D02*
X180667527Y-118226537D01*
X180667527Y-118226537D02*
X180550608Y-118227229D01*
X180550608Y-118227229D02*
X180457046Y-118227324D01*
X180457046Y-118227324D02*
X180383465Y-118226672D01*
X180383465Y-118226672D02*
X180326488Y-118225123D01*
X180326488Y-118225123D02*
X180282741Y-118222526D01*
X180282741Y-118222526D02*
X180248846Y-118218732D01*
X180248846Y-118218732D02*
X180221427Y-118213591D01*
X180221427Y-118213591D02*
X180197109Y-118206952D01*
X180197109Y-118206952D02*
X180192212Y-118205396D01*
X180192212Y-118205396D02*
X180092524Y-118161326D01*
X180092524Y-118161326D02*
X180013199Y-118100060D01*
X180013199Y-118100060D02*
X179953732Y-118021114D01*
X179953732Y-118021114D02*
X179920407Y-117945770D01*
X179920407Y-117945770D02*
X179914537Y-117924853D01*
X179914537Y-117924853D02*
X179909806Y-117898616D01*
X179909806Y-117898616D02*
X179906098Y-117864181D01*
X179906098Y-117864181D02*
X179903298Y-117818671D01*
X179903298Y-117818671D02*
X179901290Y-117759210D01*
X179901290Y-117759210D02*
X179899960Y-117682922D01*
X179899960Y-117682922D02*
X179899193Y-117586929D01*
X179899193Y-117586929D02*
X179898872Y-117468355D01*
X179898872Y-117468355D02*
X179898842Y-117407691D01*
X179898842Y-117407691D02*
X179898842Y-116933579D01*
X179898842Y-116933579D02*
X180297881Y-116933579D01*
X180297881Y-116933579D02*
X180302230Y-117351342D01*
X180302230Y-117351342D02*
X180302230Y-117351342D01*
G36*
X180302230Y-117351342D02*
G01*
X180303549Y-117468831D01*
X180304930Y-117562657D01*
X180306578Y-117635894D01*
X180308701Y-117691616D01*
X180311505Y-117732895D01*
X180315195Y-117762805D01*
X180319978Y-117784421D01*
X180326061Y-117800815D01*
X180333316Y-117814497D01*
X180359370Y-117853924D01*
X180387004Y-117881882D01*
X180421467Y-117900480D01*
X180468009Y-117911828D01*
X180531881Y-117918036D01*
X180597587Y-117920680D01*
X180667023Y-117922198D01*
X180714619Y-117921829D01*
X180745234Y-117919053D01*
X180763731Y-117913348D01*
X180774969Y-117904192D01*
X180777132Y-117901415D01*
X180781992Y-117888886D01*
X180785925Y-117864428D01*
X180789011Y-117825789D01*
X180791328Y-117770717D01*
X180792955Y-117696958D01*
X180793972Y-117602259D01*
X180794457Y-117484369D01*
X180794527Y-117405603D01*
X180794527Y-116933579D01*
X181210291Y-116933579D01*
X181206277Y-117498395D01*
X181205177Y-117644465D01*
X181203915Y-117766273D01*
X181202161Y-117866295D01*
X181199583Y-117947004D01*
X181195850Y-118010875D01*
X181190632Y-118060383D01*
X181183597Y-118098003D01*
X181174414Y-118126209D01*
X181162753Y-118147476D01*
X181148281Y-118164278D01*
X181130668Y-118179090D01*
X181113539Y-118191565D01*
X181100249Y-118200680D01*
X181086730Y-118207902D01*
X181069846Y-118213478D01*
X181046460Y-118217654D01*
X181013437Y-118220675D01*
X180967641Y-118222789D01*
X180905937Y-118224239D01*
X180825187Y-118225273D01*
X180722257Y-118226137D01*
X180667527Y-118226537D01*
X180550608Y-118227229D01*
X180457046Y-118227324D01*
X180383465Y-118226672D01*
X180326488Y-118225123D01*
X180282741Y-118222526D01*
X180248846Y-118218732D01*
X180221427Y-118213591D01*
X180197109Y-118206952D01*
X180192212Y-118205396D01*
X180092524Y-118161326D01*
X180013199Y-118100060D01*
X179953732Y-118021114D01*
X179920407Y-117945770D01*
X179914537Y-117924853D01*
X179909806Y-117898616D01*
X179906098Y-117864181D01*
X179903298Y-117818671D01*
X179901290Y-117759210D01*
X179899960Y-117682922D01*
X179899193Y-117586929D01*
X179898872Y-117468355D01*
X179898842Y-117407691D01*
X179898842Y-116933579D01*
X180297881Y-116933579D01*
X180302230Y-117351342D01*
G37*
X180302230Y-117351342D02*
X180303549Y-117468831D01*
X180304930Y-117562657D01*
X180306578Y-117635894D01*
X180308701Y-117691616D01*
X180311505Y-117732895D01*
X180315195Y-117762805D01*
X180319978Y-117784421D01*
X180326061Y-117800815D01*
X180333316Y-117814497D01*
X180359370Y-117853924D01*
X180387004Y-117881882D01*
X180421467Y-117900480D01*
X180468009Y-117911828D01*
X180531881Y-117918036D01*
X180597587Y-117920680D01*
X180667023Y-117922198D01*
X180714619Y-117921829D01*
X180745234Y-117919053D01*
X180763731Y-117913348D01*
X180774969Y-117904192D01*
X180777132Y-117901415D01*
X180781992Y-117888886D01*
X180785925Y-117864428D01*
X180789011Y-117825789D01*
X180791328Y-117770717D01*
X180792955Y-117696958D01*
X180793972Y-117602259D01*
X180794457Y-117484369D01*
X180794527Y-117405603D01*
X180794527Y-116933579D01*
X181210291Y-116933579D01*
X181206277Y-117498395D01*
X181205177Y-117644465D01*
X181203915Y-117766273D01*
X181202161Y-117866295D01*
X181199583Y-117947004D01*
X181195850Y-118010875D01*
X181190632Y-118060383D01*
X181183597Y-118098003D01*
X181174414Y-118126209D01*
X181162753Y-118147476D01*
X181148281Y-118164278D01*
X181130668Y-118179090D01*
X181113539Y-118191565D01*
X181100249Y-118200680D01*
X181086730Y-118207902D01*
X181069846Y-118213478D01*
X181046460Y-118217654D01*
X181013437Y-118220675D01*
X180967641Y-118222789D01*
X180905937Y-118224239D01*
X180825187Y-118225273D01*
X180722257Y-118226137D01*
X180667527Y-118226537D01*
X180550608Y-118227229D01*
X180457046Y-118227324D01*
X180383465Y-118226672D01*
X180326488Y-118225123D01*
X180282741Y-118222526D01*
X180248846Y-118218732D01*
X180221427Y-118213591D01*
X180197109Y-118206952D01*
X180192212Y-118205396D01*
X180092524Y-118161326D01*
X180013199Y-118100060D01*
X179953732Y-118021114D01*
X179920407Y-117945770D01*
X179914537Y-117924853D01*
X179909806Y-117898616D01*
X179906098Y-117864181D01*
X179903298Y-117818671D01*
X179901290Y-117759210D01*
X179899960Y-117682922D01*
X179899193Y-117586929D01*
X179898872Y-117468355D01*
X179898842Y-117407691D01*
X179898842Y-116933579D01*
X180297881Y-116933579D01*
X180302230Y-117351342D01*
X181853626Y-116723026D02*
X181857316Y-116926895D01*
X181857316Y-116926895D02*
X182034448Y-116930625D01*
X182034448Y-116930625D02*
X182211579Y-116934355D01*
X182211579Y-116934355D02*
X182211579Y-117240277D01*
X182211579Y-117240277D02*
X182034448Y-117244007D01*
X182034448Y-117244007D02*
X181857316Y-117247737D01*
X181857316Y-117247737D02*
X181853171Y-117428211D01*
X181853171Y-117428211D02*
X181852234Y-117503957D01*
X181852234Y-117503957D02*
X181852714Y-117578435D01*
X181852714Y-117578435D02*
X181854470Y-117643291D01*
X181854470Y-117643291D02*
X181857367Y-117690169D01*
X181857367Y-117690169D02*
X181857526Y-117691764D01*
X181857526Y-117691764D02*
X181874551Y-117773982D01*
X181874551Y-117773982D02*
X181907811Y-117836445D01*
X181907811Y-117836445D02*
X181959013Y-117880677D01*
X181959013Y-117880677D02*
X182029863Y-117908204D01*
X182029863Y-117908204D02*
X182112811Y-117920020D01*
X182112811Y-117920020D02*
X182211579Y-117926358D01*
X182211579Y-117926358D02*
X182211579Y-118230316D01*
X182211579Y-118230316D02*
X182001027Y-118229499D01*
X182001027Y-118229499D02*
X181908031Y-118228283D01*
X181908031Y-118228283D02*
X181836825Y-118225178D01*
X181836825Y-118225178D02*
X181782504Y-118219777D01*
X181782504Y-118219777D02*
X181740162Y-118211669D01*
X181740162Y-118211669D02*
X181720807Y-118206104D01*
X181720807Y-118206104D02*
X181625607Y-118162928D01*
X181625607Y-118162928D02*
X181549342Y-118101573D01*
X181549342Y-118101573D02*
X181496369Y-118028978D01*
X181496369Y-118028978D02*
X181456263Y-117956263D01*
X181456263Y-117956263D02*
X181442895Y-117247737D01*
X181442895Y-117247737D02*
X181262421Y-117239831D01*
X181262421Y-117239831D02*
X181262421Y-116934801D01*
X181262421Y-116934801D02*
X181442895Y-116926895D01*
X181442895Y-116926895D02*
X181446585Y-116723026D01*
X181446585Y-116723026D02*
X181450276Y-116519158D01*
X181450276Y-116519158D02*
X181849935Y-116519158D01*
X181849935Y-116519158D02*
X181853626Y-116723026D01*
X181853626Y-116723026D02*
X181853626Y-116723026D01*
G36*
X181853626Y-116723026D02*
G01*
X181857316Y-116926895D01*
X182034448Y-116930625D01*
X182211579Y-116934355D01*
X182211579Y-117240277D01*
X182034448Y-117244007D01*
X181857316Y-117247737D01*
X181853171Y-117428211D01*
X181852234Y-117503957D01*
X181852714Y-117578435D01*
X181854470Y-117643291D01*
X181857367Y-117690169D01*
X181857526Y-117691764D01*
X181874551Y-117773982D01*
X181907811Y-117836445D01*
X181959013Y-117880677D01*
X182029863Y-117908204D01*
X182112811Y-117920020D01*
X182211579Y-117926358D01*
X182211579Y-118230316D01*
X182001027Y-118229499D01*
X181908031Y-118228283D01*
X181836825Y-118225178D01*
X181782504Y-118219777D01*
X181740162Y-118211669D01*
X181720807Y-118206104D01*
X181625607Y-118162928D01*
X181549342Y-118101573D01*
X181496369Y-118028978D01*
X181456263Y-117956263D01*
X181442895Y-117247737D01*
X181262421Y-117239831D01*
X181262421Y-116934801D01*
X181442895Y-116926895D01*
X181446585Y-116723026D01*
X181450276Y-116519158D01*
X181849935Y-116519158D01*
X181853626Y-116723026D01*
G37*
X181853626Y-116723026D02*
X181857316Y-116926895D01*
X182034448Y-116930625D01*
X182211579Y-116934355D01*
X182211579Y-117240277D01*
X182034448Y-117244007D01*
X181857316Y-117247737D01*
X181853171Y-117428211D01*
X181852234Y-117503957D01*
X181852714Y-117578435D01*
X181854470Y-117643291D01*
X181857367Y-117690169D01*
X181857526Y-117691764D01*
X181874551Y-117773982D01*
X181907811Y-117836445D01*
X181959013Y-117880677D01*
X182029863Y-117908204D01*
X182112811Y-117920020D01*
X182211579Y-117926358D01*
X182211579Y-118230316D01*
X182001027Y-118229499D01*
X181908031Y-118228283D01*
X181836825Y-118225178D01*
X181782504Y-118219777D01*
X181740162Y-118211669D01*
X181720807Y-118206104D01*
X181625607Y-118162928D01*
X181549342Y-118101573D01*
X181496369Y-118028978D01*
X181456263Y-117956263D01*
X181442895Y-117247737D01*
X181262421Y-117239831D01*
X181262421Y-116934801D01*
X181442895Y-116926895D01*
X181446585Y-116723026D01*
X181450276Y-116519158D01*
X181849935Y-116519158D01*
X181853626Y-116723026D01*
X182706211Y-118230316D02*
X182305158Y-118230316D01*
X182305158Y-118230316D02*
X182305158Y-116933579D01*
X182305158Y-116933579D02*
X182706211Y-116933579D01*
X182706211Y-116933579D02*
X182706211Y-118230316D01*
X182706211Y-118230316D02*
X182706211Y-118230316D01*
G36*
X182706211Y-118230316D02*
G01*
X182305158Y-118230316D01*
X182305158Y-116933579D01*
X182706211Y-116933579D01*
X182706211Y-118230316D01*
G37*
X182706211Y-118230316D02*
X182305158Y-118230316D01*
X182305158Y-116933579D01*
X182706211Y-116933579D01*
X182706211Y-118230316D01*
X183524992Y-116933738D02*
X183614134Y-116934357D01*
X183614134Y-116934357D02*
X183683906Y-116935653D01*
X183683906Y-116935653D02*
X183737989Y-116937839D01*
X183737989Y-116937839D02*
X183780065Y-116941130D01*
X183780065Y-116941130D02*
X183813817Y-116945742D01*
X183813817Y-116945742D02*
X183842928Y-116951890D01*
X183842928Y-116951890D02*
X183871079Y-116959787D01*
X183871079Y-116959787D02*
X183873247Y-116960454D01*
X183873247Y-116960454D02*
X183963976Y-117001186D01*
X183963976Y-117001186D02*
X184042476Y-117061600D01*
X184042476Y-117061600D02*
X184103427Y-117137113D01*
X184103427Y-117137113D02*
X184124790Y-117177159D01*
X184124790Y-117177159D02*
X184133075Y-117196083D01*
X184133075Y-117196083D02*
X184139810Y-117214431D01*
X184139810Y-117214431D02*
X184145181Y-117235121D01*
X184145181Y-117235121D02*
X184149376Y-117261074D01*
X184149376Y-117261074D02*
X184152579Y-117295209D01*
X184152579Y-117295209D02*
X184154977Y-117340445D01*
X184154977Y-117340445D02*
X184156758Y-117399703D01*
X184156758Y-117399703D02*
X184158106Y-117475901D01*
X184158106Y-117475901D02*
X184159208Y-117571960D01*
X184159208Y-117571960D02*
X184160251Y-117690799D01*
X184160251Y-117690799D02*
X184160642Y-117739026D01*
X184160642Y-117739026D02*
X184164599Y-118230316D01*
X184164599Y-118230316D02*
X183762316Y-118230316D01*
X183762316Y-118230316D02*
X183761734Y-117852658D01*
X183761734Y-117852658D02*
X183761220Y-117725475D01*
X183761220Y-117725475D02*
X183759929Y-117622061D01*
X183759929Y-117622061D02*
X183757583Y-117539451D01*
X183757583Y-117539451D02*
X183753907Y-117474683D01*
X183753907Y-117474683D02*
X183748627Y-117424792D01*
X183748627Y-117424792D02*
X183741466Y-117386815D01*
X183741466Y-117386815D02*
X183732150Y-117357788D01*
X183732150Y-117357788D02*
X183720402Y-117334748D01*
X183720402Y-117334748D02*
X183712513Y-117323159D01*
X183712513Y-117323159D02*
X183684129Y-117291920D01*
X183684129Y-117291920D02*
X183649433Y-117269984D01*
X183649433Y-117269984D02*
X183603192Y-117255649D01*
X183603192Y-117255649D02*
X183540173Y-117247214D01*
X183540173Y-117247214D02*
X183466951Y-117243329D01*
X183466951Y-117243329D02*
X183401048Y-117241902D01*
X183401048Y-117241902D02*
X183356481Y-117243015D01*
X183356481Y-117243015D02*
X183327924Y-117247242D01*
X183327924Y-117247242D02*
X183310047Y-117255155D01*
X183310047Y-117255155D02*
X183303188Y-117260933D01*
X183303188Y-117260933D02*
X183297288Y-117269088D01*
X183297288Y-117269088D02*
X183292527Y-117282315D01*
X183292527Y-117282315D02*
X183288785Y-117303287D01*
X183288785Y-117303287D02*
X183285942Y-117334673D01*
X183285942Y-117334673D02*
X183283880Y-117379144D01*
X183283880Y-117379144D02*
X183282480Y-117439370D01*
X183282480Y-117439370D02*
X183281621Y-117518022D01*
X183281621Y-117518022D02*
X183281186Y-117617771D01*
X183281186Y-117617771D02*
X183281054Y-117741286D01*
X183281054Y-117741286D02*
X183281053Y-117756692D01*
X183281053Y-117756692D02*
X183281053Y-118230316D01*
X183281053Y-118230316D02*
X182880000Y-118230316D01*
X182880000Y-118230316D02*
X182880000Y-117661625D01*
X182880000Y-117661625D02*
X182880050Y-117523038D01*
X182880050Y-117523038D02*
X182880273Y-117408592D01*
X182880273Y-117408592D02*
X182880783Y-117315693D01*
X182880783Y-117315693D02*
X182881692Y-117241746D01*
X182881692Y-117241746D02*
X182883111Y-117184155D01*
X182883111Y-117184155D02*
X182885155Y-117140327D01*
X182885155Y-117140327D02*
X182887934Y-117107666D01*
X182887934Y-117107666D02*
X182891562Y-117083577D01*
X182891562Y-117083577D02*
X182896150Y-117065464D01*
X182896150Y-117065464D02*
X182901812Y-117050734D01*
X182901812Y-117050734D02*
X182906917Y-117040174D01*
X182906917Y-117040174D02*
X182948844Y-116986267D01*
X182948844Y-116986267D02*
X182986595Y-116960496D01*
X182986595Y-116960496D02*
X183003751Y-116952540D01*
X183003751Y-116952540D02*
X183022590Y-116946321D01*
X183022590Y-116946321D02*
X183046471Y-116941627D01*
X183046471Y-116941627D02*
X183078754Y-116938245D01*
X183078754Y-116938245D02*
X183122799Y-116935964D01*
X183122799Y-116935964D02*
X183181964Y-116934570D01*
X183181964Y-116934570D02*
X183259610Y-116933852D01*
X183259610Y-116933852D02*
X183359096Y-116933599D01*
X183359096Y-116933599D02*
X183412796Y-116933579D01*
X183412796Y-116933579D02*
X183524992Y-116933738D01*
X183524992Y-116933738D02*
X183524992Y-116933738D01*
G36*
X183524992Y-116933738D02*
G01*
X183614134Y-116934357D01*
X183683906Y-116935653D01*
X183737989Y-116937839D01*
X183780065Y-116941130D01*
X183813817Y-116945742D01*
X183842928Y-116951890D01*
X183871079Y-116959787D01*
X183873247Y-116960454D01*
X183963976Y-117001186D01*
X184042476Y-117061600D01*
X184103427Y-117137113D01*
X184124790Y-117177159D01*
X184133075Y-117196083D01*
X184139810Y-117214431D01*
X184145181Y-117235121D01*
X184149376Y-117261074D01*
X184152579Y-117295209D01*
X184154977Y-117340445D01*
X184156758Y-117399703D01*
X184158106Y-117475901D01*
X184159208Y-117571960D01*
X184160251Y-117690799D01*
X184160642Y-117739026D01*
X184164599Y-118230316D01*
X183762316Y-118230316D01*
X183761734Y-117852658D01*
X183761220Y-117725475D01*
X183759929Y-117622061D01*
X183757583Y-117539451D01*
X183753907Y-117474683D01*
X183748627Y-117424792D01*
X183741466Y-117386815D01*
X183732150Y-117357788D01*
X183720402Y-117334748D01*
X183712513Y-117323159D01*
X183684129Y-117291920D01*
X183649433Y-117269984D01*
X183603192Y-117255649D01*
X183540173Y-117247214D01*
X183466951Y-117243329D01*
X183401048Y-117241902D01*
X183356481Y-117243015D01*
X183327924Y-117247242D01*
X183310047Y-117255155D01*
X183303188Y-117260933D01*
X183297288Y-117269088D01*
X183292527Y-117282315D01*
X183288785Y-117303287D01*
X183285942Y-117334673D01*
X183283880Y-117379144D01*
X183282480Y-117439370D01*
X183281621Y-117518022D01*
X183281186Y-117617771D01*
X183281054Y-117741286D01*
X183281053Y-117756692D01*
X183281053Y-118230316D01*
X182880000Y-118230316D01*
X182880000Y-117661625D01*
X182880050Y-117523038D01*
X182880273Y-117408592D01*
X182880783Y-117315693D01*
X182881692Y-117241746D01*
X182883111Y-117184155D01*
X182885155Y-117140327D01*
X182887934Y-117107666D01*
X182891562Y-117083577D01*
X182896150Y-117065464D01*
X182901812Y-117050734D01*
X182906917Y-117040174D01*
X182948844Y-116986267D01*
X182986595Y-116960496D01*
X183003751Y-116952540D01*
X183022590Y-116946321D01*
X183046471Y-116941627D01*
X183078754Y-116938245D01*
X183122799Y-116935964D01*
X183181964Y-116934570D01*
X183259610Y-116933852D01*
X183359096Y-116933599D01*
X183412796Y-116933579D01*
X183524992Y-116933738D01*
G37*
X183524992Y-116933738D02*
X183614134Y-116934357D01*
X183683906Y-116935653D01*
X183737989Y-116937839D01*
X183780065Y-116941130D01*
X183813817Y-116945742D01*
X183842928Y-116951890D01*
X183871079Y-116959787D01*
X183873247Y-116960454D01*
X183963976Y-117001186D01*
X184042476Y-117061600D01*
X184103427Y-117137113D01*
X184124790Y-117177159D01*
X184133075Y-117196083D01*
X184139810Y-117214431D01*
X184145181Y-117235121D01*
X184149376Y-117261074D01*
X184152579Y-117295209D01*
X184154977Y-117340445D01*
X184156758Y-117399703D01*
X184158106Y-117475901D01*
X184159208Y-117571960D01*
X184160251Y-117690799D01*
X184160642Y-117739026D01*
X184164599Y-118230316D01*
X183762316Y-118230316D01*
X183761734Y-117852658D01*
X183761220Y-117725475D01*
X183759929Y-117622061D01*
X183757583Y-117539451D01*
X183753907Y-117474683D01*
X183748627Y-117424792D01*
X183741466Y-117386815D01*
X183732150Y-117357788D01*
X183720402Y-117334748D01*
X183712513Y-117323159D01*
X183684129Y-117291920D01*
X183649433Y-117269984D01*
X183603192Y-117255649D01*
X183540173Y-117247214D01*
X183466951Y-117243329D01*
X183401048Y-117241902D01*
X183356481Y-117243015D01*
X183327924Y-117247242D01*
X183310047Y-117255155D01*
X183303188Y-117260933D01*
X183297288Y-117269088D01*
X183292527Y-117282315D01*
X183288785Y-117303287D01*
X183285942Y-117334673D01*
X183283880Y-117379144D01*
X183282480Y-117439370D01*
X183281621Y-117518022D01*
X183281186Y-117617771D01*
X183281054Y-117741286D01*
X183281053Y-117756692D01*
X183281053Y-118230316D01*
X182880000Y-118230316D01*
X182880000Y-117661625D01*
X182880050Y-117523038D01*
X182880273Y-117408592D01*
X182880783Y-117315693D01*
X182881692Y-117241746D01*
X182883111Y-117184155D01*
X182885155Y-117140327D01*
X182887934Y-117107666D01*
X182891562Y-117083577D01*
X182896150Y-117065464D01*
X182901812Y-117050734D01*
X182906917Y-117040174D01*
X182948844Y-116986267D01*
X182986595Y-116960496D01*
X183003751Y-116952540D01*
X183022590Y-116946321D01*
X183046471Y-116941627D01*
X183078754Y-116938245D01*
X183122799Y-116935964D01*
X183181964Y-116934570D01*
X183259610Y-116933852D01*
X183359096Y-116933599D01*
X183412796Y-116933579D01*
X183524992Y-116933738D01*
X175933469Y-115079428D02*
X176022526Y-115111951D01*
X176022526Y-115111951D02*
X176096517Y-115162883D01*
X176096517Y-115162883D02*
X176141128Y-115214010D01*
X176141128Y-115214010D02*
X176155693Y-115241345D01*
X176155693Y-115241345D02*
X176178117Y-115291824D01*
X176178117Y-115291824D02*
X176207555Y-115363310D01*
X176207555Y-115363310D02*
X176243166Y-115453667D01*
X176243166Y-115453667D02*
X176284104Y-115560757D01*
X176284104Y-115560757D02*
X176329527Y-115682444D01*
X176329527Y-115682444D02*
X176374338Y-115804861D01*
X176374338Y-115804861D02*
X176415702Y-115918140D01*
X176415702Y-115918140D02*
X176454629Y-116023400D01*
X176454629Y-116023400D02*
X176490116Y-116118023D01*
X176490116Y-116118023D02*
X176521159Y-116199395D01*
X176521159Y-116199395D02*
X176546754Y-116264897D01*
X176546754Y-116264897D02*
X176565897Y-116311914D01*
X176565897Y-116311914D02*
X176577585Y-116337829D01*
X176577585Y-116337829D02*
X176580485Y-116342144D01*
X176580485Y-116342144D02*
X176587608Y-116330922D01*
X176587608Y-116330922D02*
X176602642Y-116297116D01*
X176602642Y-116297116D02*
X176624570Y-116243343D01*
X176624570Y-116243343D02*
X176652375Y-116172222D01*
X176652375Y-116172222D02*
X176685040Y-116086371D01*
X176685040Y-116086371D02*
X176721549Y-115988407D01*
X176721549Y-115988407D02*
X176760884Y-115880948D01*
X176760884Y-115880948D02*
X176777671Y-115834532D01*
X176777671Y-115834532D02*
X176818610Y-115721396D01*
X176818610Y-115721396D02*
X176857611Y-115614474D01*
X176857611Y-115614474D02*
X176893557Y-115516762D01*
X176893557Y-115516762D02*
X176925334Y-115431257D01*
X176925334Y-115431257D02*
X176951826Y-115360954D01*
X176951826Y-115360954D02*
X176971916Y-115308851D01*
X176971916Y-115308851D02*
X176984489Y-115277944D01*
X176984489Y-115277944D02*
X176986789Y-115272924D01*
X176986789Y-115272924D02*
X177041296Y-115190298D01*
X177041296Y-115190298D02*
X177112427Y-115127895D01*
X177112427Y-115127895D02*
X177161561Y-115101195D01*
X177161561Y-115101195D02*
X177228685Y-115080755D01*
X177228685Y-115080755D02*
X177309408Y-115069982D01*
X177309408Y-115069982D02*
X177394390Y-115068928D01*
X177394390Y-115068928D02*
X177474292Y-115077647D01*
X177474292Y-115077647D02*
X177539773Y-115096194D01*
X177539773Y-115096194D02*
X177546000Y-115098980D01*
X177546000Y-115098980D02*
X177597751Y-115125521D01*
X177597751Y-115125521D02*
X177632893Y-115150765D01*
X177632893Y-115150765D02*
X177660139Y-115181997D01*
X177660139Y-115181997D02*
X177677942Y-115209289D01*
X177677942Y-115209289D02*
X177683886Y-115219522D01*
X177683886Y-115219522D02*
X177688937Y-115230598D01*
X177688937Y-115230598D02*
X177693166Y-115244652D01*
X177693166Y-115244652D02*
X177696648Y-115263818D01*
X177696648Y-115263818D02*
X177699455Y-115290231D01*
X177699455Y-115290231D02*
X177701660Y-115326027D01*
X177701660Y-115326027D02*
X177703336Y-115373341D01*
X177703336Y-115373341D02*
X177704556Y-115434307D01*
X177704556Y-115434307D02*
X177705393Y-115511061D01*
X177705393Y-115511061D02*
X177705920Y-115605737D01*
X177705920Y-115605737D02*
X177706210Y-115720471D01*
X177706210Y-115720471D02*
X177706335Y-115857398D01*
X177706335Y-115857398D02*
X177706370Y-116018652D01*
X177706370Y-116018652D02*
X177706371Y-116041237D01*
X177706371Y-116041237D02*
X177706421Y-116826632D01*
X177706421Y-116826632D02*
X177234281Y-116826632D01*
X177234281Y-116826632D02*
X177243722Y-116215506D01*
X177243722Y-116215506D02*
X177245503Y-116090870D01*
X177245503Y-116090870D02*
X177246879Y-115975069D01*
X177246879Y-115975069D02*
X177247837Y-115870710D01*
X177247837Y-115870710D02*
X177248369Y-115780399D01*
X177248369Y-115780399D02*
X177248463Y-115706743D01*
X177248463Y-115706743D02*
X177248108Y-115652349D01*
X177248108Y-115652349D02*
X177247293Y-115619823D01*
X177247293Y-115619823D02*
X177246208Y-115611336D01*
X177246208Y-115611336D02*
X177240419Y-115625015D01*
X177240419Y-115625015D02*
X177226696Y-115661299D01*
X177226696Y-115661299D02*
X177205984Y-115717573D01*
X177205984Y-115717573D02*
X177179232Y-115791223D01*
X177179232Y-115791223D02*
X177147386Y-115879634D01*
X177147386Y-115879634D02*
X177111392Y-115980193D01*
X177111392Y-115980193D02*
X177072197Y-116090285D01*
X177072197Y-116090285D02*
X177046685Y-116162236D01*
X177046685Y-116162236D02*
X176998184Y-116297999D01*
X176998184Y-116297999D02*
X176953809Y-116419742D01*
X176953809Y-116419742D02*
X176914292Y-116525565D01*
X176914292Y-116525565D02*
X176880365Y-116613565D01*
X176880365Y-116613565D02*
X176852762Y-116681840D01*
X176852762Y-116681840D02*
X176832216Y-116728490D01*
X176832216Y-116728490D02*
X176819814Y-116751157D01*
X176819814Y-116751157D02*
X176785412Y-116786477D01*
X176785412Y-116786477D02*
X176745357Y-116814948D01*
X176745357Y-116814948D02*
X176739106Y-116818152D01*
X176739106Y-116818152D02*
X176696561Y-116832001D01*
X176696561Y-116832001D02*
X176639918Y-116842527D01*
X176639918Y-116842527D02*
X176580435Y-116848392D01*
X176580435Y-116848392D02*
X176529370Y-116848259D01*
X176529370Y-116848259D02*
X176509948Y-116845392D01*
X176509948Y-116845392D02*
X176473577Y-116837032D01*
X176473577Y-116837032D02*
X176454162Y-116832799D01*
X176454162Y-116832799D02*
X176413768Y-116814158D01*
X176413768Y-116814158D02*
X176370458Y-116778526D01*
X176370458Y-116778526D02*
X176332305Y-116733286D01*
X176332305Y-116733286D02*
X176316372Y-116706838D01*
X176316372Y-116706838D02*
X176306259Y-116683191D01*
X176306259Y-116683191D02*
X176288473Y-116637434D01*
X176288473Y-116637434D02*
X176264164Y-116572696D01*
X176264164Y-116572696D02*
X176234485Y-116492108D01*
X176234485Y-116492108D02*
X176200588Y-116398796D01*
X176200588Y-116398796D02*
X176163623Y-116295891D01*
X176163623Y-116295891D02*
X176124742Y-116186522D01*
X176124742Y-116186522D02*
X176121420Y-116177125D01*
X176121420Y-116177125D02*
X176082650Y-116067544D01*
X176082650Y-116067544D02*
X176046021Y-115964282D01*
X176046021Y-115964282D02*
X176012640Y-115870439D01*
X176012640Y-115870439D02*
X175983616Y-115789119D01*
X175983616Y-115789119D02*
X175960055Y-115723424D01*
X175960055Y-115723424D02*
X175943064Y-115676456D01*
X175943064Y-115676456D02*
X175933753Y-115651317D01*
X175933753Y-115651317D02*
X175933321Y-115650211D01*
X175933321Y-115650211D02*
X175928996Y-115641981D01*
X175928996Y-115641981D02*
X175925495Y-115642691D01*
X175925495Y-115642691D02*
X175922780Y-115654304D01*
X175922780Y-115654304D02*
X175920817Y-115678783D01*
X175920817Y-115678783D02*
X175919567Y-115718093D01*
X175919567Y-115718093D02*
X175918996Y-115774197D01*
X175918996Y-115774197D02*
X175919067Y-115849059D01*
X175919067Y-115849059D02*
X175919744Y-115944643D01*
X175919744Y-115944643D02*
X175920990Y-116062913D01*
X175920990Y-116062913D02*
X175922769Y-116205831D01*
X175922769Y-116205831D02*
X175922894Y-116215340D01*
X175922894Y-116215340D02*
X175930912Y-116827259D01*
X175930912Y-116827259D02*
X175453842Y-116819947D01*
X175453842Y-116819947D02*
X175453842Y-115269211D01*
X175453842Y-115269211D02*
X175489295Y-115208909D01*
X175489295Y-115208909D02*
X175532253Y-115154114D01*
X175532253Y-115154114D02*
X175589889Y-115113973D01*
X175589889Y-115113973D02*
X175666287Y-115086141D01*
X175666287Y-115086141D02*
X175723865Y-115074201D01*
X175723865Y-115074201D02*
X175832773Y-115066462D01*
X175832773Y-115066462D02*
X175933469Y-115079428D01*
X175933469Y-115079428D02*
X175933469Y-115079428D01*
G36*
X175933469Y-115079428D02*
G01*
X176022526Y-115111951D01*
X176096517Y-115162883D01*
X176141128Y-115214010D01*
X176155693Y-115241345D01*
X176178117Y-115291824D01*
X176207555Y-115363310D01*
X176243166Y-115453667D01*
X176284104Y-115560757D01*
X176329527Y-115682444D01*
X176374338Y-115804861D01*
X176415702Y-115918140D01*
X176454629Y-116023400D01*
X176490116Y-116118023D01*
X176521159Y-116199395D01*
X176546754Y-116264897D01*
X176565897Y-116311914D01*
X176577585Y-116337829D01*
X176580485Y-116342144D01*
X176587608Y-116330922D01*
X176602642Y-116297116D01*
X176624570Y-116243343D01*
X176652375Y-116172222D01*
X176685040Y-116086371D01*
X176721549Y-115988407D01*
X176760884Y-115880948D01*
X176777671Y-115834532D01*
X176818610Y-115721396D01*
X176857611Y-115614474D01*
X176893557Y-115516762D01*
X176925334Y-115431257D01*
X176951826Y-115360954D01*
X176971916Y-115308851D01*
X176984489Y-115277944D01*
X176986789Y-115272924D01*
X177041296Y-115190298D01*
X177112427Y-115127895D01*
X177161561Y-115101195D01*
X177228685Y-115080755D01*
X177309408Y-115069982D01*
X177394390Y-115068928D01*
X177474292Y-115077647D01*
X177539773Y-115096194D01*
X177546000Y-115098980D01*
X177597751Y-115125521D01*
X177632893Y-115150765D01*
X177660139Y-115181997D01*
X177677942Y-115209289D01*
X177683886Y-115219522D01*
X177688937Y-115230598D01*
X177693166Y-115244652D01*
X177696648Y-115263818D01*
X177699455Y-115290231D01*
X177701660Y-115326027D01*
X177703336Y-115373341D01*
X177704556Y-115434307D01*
X177705393Y-115511061D01*
X177705920Y-115605737D01*
X177706210Y-115720471D01*
X177706335Y-115857398D01*
X177706370Y-116018652D01*
X177706371Y-116041237D01*
X177706421Y-116826632D01*
X177234281Y-116826632D01*
X177243722Y-116215506D01*
X177245503Y-116090870D01*
X177246879Y-115975069D01*
X177247837Y-115870710D01*
X177248369Y-115780399D01*
X177248463Y-115706743D01*
X177248108Y-115652349D01*
X177247293Y-115619823D01*
X177246208Y-115611336D01*
X177240419Y-115625015D01*
X177226696Y-115661299D01*
X177205984Y-115717573D01*
X177179232Y-115791223D01*
X177147386Y-115879634D01*
X177111392Y-115980193D01*
X177072197Y-116090285D01*
X177046685Y-116162236D01*
X176998184Y-116297999D01*
X176953809Y-116419742D01*
X176914292Y-116525565D01*
X176880365Y-116613565D01*
X176852762Y-116681840D01*
X176832216Y-116728490D01*
X176819814Y-116751157D01*
X176785412Y-116786477D01*
X176745357Y-116814948D01*
X176739106Y-116818152D01*
X176696561Y-116832001D01*
X176639918Y-116842527D01*
X176580435Y-116848392D01*
X176529370Y-116848259D01*
X176509948Y-116845392D01*
X176473577Y-116837032D01*
X176454162Y-116832799D01*
X176413768Y-116814158D01*
X176370458Y-116778526D01*
X176332305Y-116733286D01*
X176316372Y-116706838D01*
X176306259Y-116683191D01*
X176288473Y-116637434D01*
X176264164Y-116572696D01*
X176234485Y-116492108D01*
X176200588Y-116398796D01*
X176163623Y-116295891D01*
X176124742Y-116186522D01*
X176121420Y-116177125D01*
X176082650Y-116067544D01*
X176046021Y-115964282D01*
X176012640Y-115870439D01*
X175983616Y-115789119D01*
X175960055Y-115723424D01*
X175943064Y-115676456D01*
X175933753Y-115651317D01*
X175933321Y-115650211D01*
X175928996Y-115641981D01*
X175925495Y-115642691D01*
X175922780Y-115654304D01*
X175920817Y-115678783D01*
X175919567Y-115718093D01*
X175918996Y-115774197D01*
X175919067Y-115849059D01*
X175919744Y-115944643D01*
X175920990Y-116062913D01*
X175922769Y-116205831D01*
X175922894Y-116215340D01*
X175930912Y-116827259D01*
X175453842Y-116819947D01*
X175453842Y-115269211D01*
X175489295Y-115208909D01*
X175532253Y-115154114D01*
X175589889Y-115113973D01*
X175666287Y-115086141D01*
X175723865Y-115074201D01*
X175832773Y-115066462D01*
X175933469Y-115079428D01*
G37*
X175933469Y-115079428D02*
X176022526Y-115111951D01*
X176096517Y-115162883D01*
X176141128Y-115214010D01*
X176155693Y-115241345D01*
X176178117Y-115291824D01*
X176207555Y-115363310D01*
X176243166Y-115453667D01*
X176284104Y-115560757D01*
X176329527Y-115682444D01*
X176374338Y-115804861D01*
X176415702Y-115918140D01*
X176454629Y-116023400D01*
X176490116Y-116118023D01*
X176521159Y-116199395D01*
X176546754Y-116264897D01*
X176565897Y-116311914D01*
X176577585Y-116337829D01*
X176580485Y-116342144D01*
X176587608Y-116330922D01*
X176602642Y-116297116D01*
X176624570Y-116243343D01*
X176652375Y-116172222D01*
X176685040Y-116086371D01*
X176721549Y-115988407D01*
X176760884Y-115880948D01*
X176777671Y-115834532D01*
X176818610Y-115721396D01*
X176857611Y-115614474D01*
X176893557Y-115516762D01*
X176925334Y-115431257D01*
X176951826Y-115360954D01*
X176971916Y-115308851D01*
X176984489Y-115277944D01*
X176986789Y-115272924D01*
X177041296Y-115190298D01*
X177112427Y-115127895D01*
X177161561Y-115101195D01*
X177228685Y-115080755D01*
X177309408Y-115069982D01*
X177394390Y-115068928D01*
X177474292Y-115077647D01*
X177539773Y-115096194D01*
X177546000Y-115098980D01*
X177597751Y-115125521D01*
X177632893Y-115150765D01*
X177660139Y-115181997D01*
X177677942Y-115209289D01*
X177683886Y-115219522D01*
X177688937Y-115230598D01*
X177693166Y-115244652D01*
X177696648Y-115263818D01*
X177699455Y-115290231D01*
X177701660Y-115326027D01*
X177703336Y-115373341D01*
X177704556Y-115434307D01*
X177705393Y-115511061D01*
X177705920Y-115605737D01*
X177706210Y-115720471D01*
X177706335Y-115857398D01*
X177706370Y-116018652D01*
X177706371Y-116041237D01*
X177706421Y-116826632D01*
X177234281Y-116826632D01*
X177243722Y-116215506D01*
X177245503Y-116090870D01*
X177246879Y-115975069D01*
X177247837Y-115870710D01*
X177248369Y-115780399D01*
X177248463Y-115706743D01*
X177248108Y-115652349D01*
X177247293Y-115619823D01*
X177246208Y-115611336D01*
X177240419Y-115625015D01*
X177226696Y-115661299D01*
X177205984Y-115717573D01*
X177179232Y-115791223D01*
X177147386Y-115879634D01*
X177111392Y-115980193D01*
X177072197Y-116090285D01*
X177046685Y-116162236D01*
X176998184Y-116297999D01*
X176953809Y-116419742D01*
X176914292Y-116525565D01*
X176880365Y-116613565D01*
X176852762Y-116681840D01*
X176832216Y-116728490D01*
X176819814Y-116751157D01*
X176785412Y-116786477D01*
X176745357Y-116814948D01*
X176739106Y-116818152D01*
X176696561Y-116832001D01*
X176639918Y-116842527D01*
X176580435Y-116848392D01*
X176529370Y-116848259D01*
X176509948Y-116845392D01*
X176473577Y-116837032D01*
X176454162Y-116832799D01*
X176413768Y-116814158D01*
X176370458Y-116778526D01*
X176332305Y-116733286D01*
X176316372Y-116706838D01*
X176306259Y-116683191D01*
X176288473Y-116637434D01*
X176264164Y-116572696D01*
X176234485Y-116492108D01*
X176200588Y-116398796D01*
X176163623Y-116295891D01*
X176124742Y-116186522D01*
X176121420Y-116177125D01*
X176082650Y-116067544D01*
X176046021Y-115964282D01*
X176012640Y-115870439D01*
X175983616Y-115789119D01*
X175960055Y-115723424D01*
X175943064Y-115676456D01*
X175933753Y-115651317D01*
X175933321Y-115650211D01*
X175928996Y-115641981D01*
X175925495Y-115642691D01*
X175922780Y-115654304D01*
X175920817Y-115678783D01*
X175919567Y-115718093D01*
X175918996Y-115774197D01*
X175919067Y-115849059D01*
X175919744Y-115944643D01*
X175920990Y-116062913D01*
X175922769Y-116205831D01*
X175922894Y-116215340D01*
X175930912Y-116827259D01*
X175453842Y-116819947D01*
X175453842Y-115269211D01*
X175489295Y-115208909D01*
X175532253Y-115154114D01*
X175589889Y-115113973D01*
X175666287Y-115086141D01*
X175723865Y-115074201D01*
X175832773Y-115066462D01*
X175933469Y-115079428D01*
X178939108Y-115071132D02*
X179061544Y-115079228D01*
X179061544Y-115079228D02*
X179170331Y-115092535D01*
X179170331Y-115092535D02*
X179250474Y-115108809D01*
X179250474Y-115108809D02*
X179372570Y-115152104D01*
X179372570Y-115152104D02*
X179475175Y-115213601D01*
X179475175Y-115213601D02*
X179558794Y-115293803D01*
X179558794Y-115293803D02*
X179623929Y-115393216D01*
X179623929Y-115393216D02*
X179671083Y-115512344D01*
X179671083Y-115512344D02*
X179678174Y-115537714D01*
X179678174Y-115537714D02*
X179694987Y-115621051D01*
X179694987Y-115621051D02*
X179707654Y-115723439D01*
X179707654Y-115723439D02*
X179715741Y-115837452D01*
X179715741Y-115837452D02*
X179718812Y-115955665D01*
X179718812Y-115955665D02*
X179716433Y-116070650D01*
X179716433Y-116070650D02*
X179712782Y-116128132D01*
X179712782Y-116128132D02*
X179698746Y-116260358D01*
X179698746Y-116260358D02*
X179679130Y-116370228D01*
X179679130Y-116370228D02*
X179652421Y-116461810D01*
X179652421Y-116461810D02*
X179617106Y-116539175D01*
X179617106Y-116539175D02*
X179571675Y-116606392D01*
X179571675Y-116606392D02*
X179514613Y-116667529D01*
X179514613Y-116667529D02*
X179511111Y-116670793D01*
X179511111Y-116670793D02*
X179444300Y-116724418D01*
X179444300Y-116724418D02*
X179371186Y-116765285D01*
X179371186Y-116765285D02*
X179284947Y-116796506D01*
X179284947Y-116796506D02*
X179183370Y-116820311D01*
X179183370Y-116820311D02*
X179119787Y-116829434D01*
X179119787Y-116829434D02*
X179036495Y-116836864D01*
X179036495Y-116836864D02*
X178940483Y-116842372D01*
X178940483Y-116842372D02*
X178838740Y-116845729D01*
X178838740Y-116845729D02*
X178738254Y-116846705D01*
X178738254Y-116846705D02*
X178646013Y-116845069D01*
X178646013Y-116845069D02*
X178569007Y-116840594D01*
X178569007Y-116840594D02*
X178568253Y-116840526D01*
X178568253Y-116840526D02*
X178416983Y-116819529D01*
X178416983Y-116819529D02*
X178287980Y-116785138D01*
X178287980Y-116785138D02*
X178179796Y-116736309D01*
X178179796Y-116736309D02*
X178090986Y-116672003D01*
X178090986Y-116672003D02*
X178020106Y-116591178D01*
X178020106Y-116591178D02*
X177965708Y-116492793D01*
X177965708Y-116492793D02*
X177927113Y-116378790D01*
X177927113Y-116378790D02*
X177907647Y-116279712D01*
X177907647Y-116279712D02*
X177894510Y-116162219D01*
X177894510Y-116162219D02*
X177887701Y-116033526D01*
X177887701Y-116033526D02*
X177887427Y-115957684D01*
X177887427Y-115957684D02*
X178381527Y-115957684D01*
X178381527Y-115957684D02*
X178381743Y-116046106D01*
X178381743Y-116046106D02*
X178382697Y-116112460D01*
X178382697Y-116112460D02*
X178384845Y-116161411D01*
X178384845Y-116161411D02*
X178388644Y-116197628D01*
X178388644Y-116197628D02*
X178394551Y-116225777D01*
X178394551Y-116225777D02*
X178403022Y-116250525D01*
X178403022Y-116250525D02*
X178412258Y-116271676D01*
X178412258Y-116271676D02*
X178448095Y-116337323D01*
X178448095Y-116337323D02*
X178489746Y-116387084D01*
X178489746Y-116387084D02*
X178540968Y-116422660D01*
X178540968Y-116422660D02*
X178605516Y-116445752D01*
X178605516Y-116445752D02*
X178687146Y-116458062D01*
X178687146Y-116458062D02*
X178789615Y-116461291D01*
X178789615Y-116461291D02*
X178829369Y-116460636D01*
X178829369Y-116460636D02*
X178916539Y-116456534D01*
X178916539Y-116456534D02*
X178981150Y-116448973D01*
X178981150Y-116448973D02*
X179027217Y-116437432D01*
X179027217Y-116437432D02*
X179036397Y-116433825D01*
X179036397Y-116433825D02*
X179098072Y-116399392D01*
X179098072Y-116399392D02*
X179146555Y-116353295D01*
X179146555Y-116353295D02*
X179182921Y-116292894D01*
X179182921Y-116292894D02*
X179208243Y-116215555D01*
X179208243Y-116215555D02*
X179223597Y-116118639D01*
X179223597Y-116118639D02*
X179230057Y-115999509D01*
X179230057Y-115999509D02*
X179230421Y-115957684D01*
X179230421Y-115957684D02*
X179225999Y-115828054D01*
X179225999Y-115828054D02*
X179212093Y-115721562D01*
X179212093Y-115721562D02*
X179187747Y-115636008D01*
X179187747Y-115636008D02*
X179152002Y-115569189D01*
X179152002Y-115569189D02*
X179103902Y-115518902D01*
X179103902Y-115518902D02*
X179042489Y-115482946D01*
X179042489Y-115482946D02*
X179020208Y-115474228D01*
X179020208Y-115474228D02*
X178979663Y-115465558D01*
X178979663Y-115465558D02*
X178919902Y-115459700D01*
X178919902Y-115459700D02*
X178848293Y-115456650D01*
X178848293Y-115456650D02*
X178772209Y-115456403D01*
X178772209Y-115456403D02*
X178699021Y-115458955D01*
X178699021Y-115458955D02*
X178636099Y-115464301D01*
X178636099Y-115464301D02*
X178590814Y-115472437D01*
X178590814Y-115472437D02*
X178584248Y-115474494D01*
X178584248Y-115474494D02*
X178511019Y-115514237D01*
X178511019Y-115514237D02*
X178450701Y-115575893D01*
X178450701Y-115575893D02*
X178413294Y-115640087D01*
X178413294Y-115640087D02*
X178402013Y-115666639D01*
X178402013Y-115666639D02*
X178393767Y-115692119D01*
X178393767Y-115692119D02*
X178388083Y-115721247D01*
X178388083Y-115721247D02*
X178384489Y-115758740D01*
X178384489Y-115758740D02*
X178382513Y-115809317D01*
X178382513Y-115809317D02*
X178381683Y-115877696D01*
X178381683Y-115877696D02*
X178381527Y-115957684D01*
X178381527Y-115957684D02*
X177887427Y-115957684D01*
X177887427Y-115957684D02*
X177887221Y-115900849D01*
X177887221Y-115900849D02*
X177893070Y-115771406D01*
X177893070Y-115771406D02*
X177905247Y-115652412D01*
X177905247Y-115652412D02*
X177923753Y-115551085D01*
X177923753Y-115551085D02*
X177927111Y-115537714D01*
X177927111Y-115537714D02*
X177970812Y-115414734D01*
X177970812Y-115414734D02*
X178032418Y-115311548D01*
X178032418Y-115311548D02*
X178112425Y-115227661D01*
X178112425Y-115227661D02*
X178211329Y-115162573D01*
X178211329Y-115162573D02*
X178329626Y-115115789D01*
X178329626Y-115115789D02*
X178354790Y-115108809D01*
X178354790Y-115108809D02*
X178445787Y-115090853D01*
X178445787Y-115090853D02*
X178556363Y-115078106D01*
X178556363Y-115078106D02*
X178679872Y-115070571D01*
X178679872Y-115070571D02*
X178809669Y-115068246D01*
X178809669Y-115068246D02*
X178939108Y-115071132D01*
X178939108Y-115071132D02*
X178939108Y-115071132D01*
G36*
X177893070Y-115771406D02*
G01*
X177905247Y-115652412D01*
X177923753Y-115551085D01*
X177927111Y-115537714D01*
X177970812Y-115414734D01*
X178032418Y-115311548D01*
X178112425Y-115227661D01*
X178211329Y-115162573D01*
X178329626Y-115115789D01*
X178354790Y-115108809D01*
X178445787Y-115090853D01*
X178556363Y-115078106D01*
X178679872Y-115070571D01*
X178809669Y-115068246D01*
X178939108Y-115071132D01*
X179061544Y-115079228D01*
X179170331Y-115092535D01*
X179250474Y-115108809D01*
X179372570Y-115152104D01*
X179475175Y-115213601D01*
X179558794Y-115293803D01*
X179623929Y-115393216D01*
X179671083Y-115512344D01*
X179678174Y-115537714D01*
X179694987Y-115621051D01*
X179707654Y-115723439D01*
X179715741Y-115837452D01*
X179718812Y-115955665D01*
X179716433Y-116070650D01*
X179712782Y-116128132D01*
X179698746Y-116260358D01*
X179679130Y-116370228D01*
X179652421Y-116461810D01*
X179617106Y-116539175D01*
X179571675Y-116606392D01*
X179514613Y-116667529D01*
X179511111Y-116670793D01*
X179444300Y-116724418D01*
X179371186Y-116765285D01*
X179284947Y-116796506D01*
X179183370Y-116820311D01*
X179119787Y-116829434D01*
X179036495Y-116836864D01*
X178940483Y-116842372D01*
X178838740Y-116845729D01*
X178738254Y-116846705D01*
X178646013Y-116845069D01*
X178569007Y-116840594D01*
X178568253Y-116840526D01*
X178416983Y-116819529D01*
X178287980Y-116785138D01*
X178179796Y-116736309D01*
X178090986Y-116672003D01*
X178020106Y-116591178D01*
X177965708Y-116492793D01*
X177927113Y-116378790D01*
X177907647Y-116279712D01*
X177894510Y-116162219D01*
X177887701Y-116033526D01*
X177887427Y-115957684D01*
X178381527Y-115957684D01*
X178381743Y-116046106D01*
X178382697Y-116112460D01*
X178384845Y-116161411D01*
X178388644Y-116197628D01*
X178394551Y-116225777D01*
X178403022Y-116250525D01*
X178412258Y-116271676D01*
X178448095Y-116337323D01*
X178489746Y-116387084D01*
X178540968Y-116422660D01*
X178605516Y-116445752D01*
X178687146Y-116458062D01*
X178789615Y-116461291D01*
X178829369Y-116460636D01*
X178916539Y-116456534D01*
X178981150Y-116448973D01*
X179027217Y-116437432D01*
X179036397Y-116433825D01*
X179098072Y-116399392D01*
X179146555Y-116353295D01*
X179182921Y-116292894D01*
X179208243Y-116215555D01*
X179223597Y-116118639D01*
X179230057Y-115999509D01*
X179230421Y-115957684D01*
X179225999Y-115828054D01*
X179212093Y-115721562D01*
X179187747Y-115636008D01*
X179152002Y-115569189D01*
X179103902Y-115518902D01*
X179042489Y-115482946D01*
X179020208Y-115474228D01*
X178979663Y-115465558D01*
X178919902Y-115459700D01*
X178848293Y-115456650D01*
X178772209Y-115456403D01*
X178699021Y-115458955D01*
X178636099Y-115464301D01*
X178590814Y-115472437D01*
X178584248Y-115474494D01*
X178511019Y-115514237D01*
X178450701Y-115575893D01*
X178413294Y-115640087D01*
X178402013Y-115666639D01*
X178393767Y-115692119D01*
X178388083Y-115721247D01*
X178384489Y-115758740D01*
X178382513Y-115809317D01*
X178381683Y-115877696D01*
X178381527Y-115957684D01*
X177887427Y-115957684D01*
X177887221Y-115900849D01*
X177893070Y-115771406D01*
G37*
X177893070Y-115771406D02*
X177905247Y-115652412D01*
X177923753Y-115551085D01*
X177927111Y-115537714D01*
X177970812Y-115414734D01*
X178032418Y-115311548D01*
X178112425Y-115227661D01*
X178211329Y-115162573D01*
X178329626Y-115115789D01*
X178354790Y-115108809D01*
X178445787Y-115090853D01*
X178556363Y-115078106D01*
X178679872Y-115070571D01*
X178809669Y-115068246D01*
X178939108Y-115071132D01*
X179061544Y-115079228D01*
X179170331Y-115092535D01*
X179250474Y-115108809D01*
X179372570Y-115152104D01*
X179475175Y-115213601D01*
X179558794Y-115293803D01*
X179623929Y-115393216D01*
X179671083Y-115512344D01*
X179678174Y-115537714D01*
X179694987Y-115621051D01*
X179707654Y-115723439D01*
X179715741Y-115837452D01*
X179718812Y-115955665D01*
X179716433Y-116070650D01*
X179712782Y-116128132D01*
X179698746Y-116260358D01*
X179679130Y-116370228D01*
X179652421Y-116461810D01*
X179617106Y-116539175D01*
X179571675Y-116606392D01*
X179514613Y-116667529D01*
X179511111Y-116670793D01*
X179444300Y-116724418D01*
X179371186Y-116765285D01*
X179284947Y-116796506D01*
X179183370Y-116820311D01*
X179119787Y-116829434D01*
X179036495Y-116836864D01*
X178940483Y-116842372D01*
X178838740Y-116845729D01*
X178738254Y-116846705D01*
X178646013Y-116845069D01*
X178569007Y-116840594D01*
X178568253Y-116840526D01*
X178416983Y-116819529D01*
X178287980Y-116785138D01*
X178179796Y-116736309D01*
X178090986Y-116672003D01*
X178020106Y-116591178D01*
X177965708Y-116492793D01*
X177927113Y-116378790D01*
X177907647Y-116279712D01*
X177894510Y-116162219D01*
X177887701Y-116033526D01*
X177887427Y-115957684D01*
X178381527Y-115957684D01*
X178381743Y-116046106D01*
X178382697Y-116112460D01*
X178384845Y-116161411D01*
X178388644Y-116197628D01*
X178394551Y-116225777D01*
X178403022Y-116250525D01*
X178412258Y-116271676D01*
X178448095Y-116337323D01*
X178489746Y-116387084D01*
X178540968Y-116422660D01*
X178605516Y-116445752D01*
X178687146Y-116458062D01*
X178789615Y-116461291D01*
X178829369Y-116460636D01*
X178916539Y-116456534D01*
X178981150Y-116448973D01*
X179027217Y-116437432D01*
X179036397Y-116433825D01*
X179098072Y-116399392D01*
X179146555Y-116353295D01*
X179182921Y-116292894D01*
X179208243Y-116215555D01*
X179223597Y-116118639D01*
X179230057Y-115999509D01*
X179230421Y-115957684D01*
X179225999Y-115828054D01*
X179212093Y-115721562D01*
X179187747Y-115636008D01*
X179152002Y-115569189D01*
X179103902Y-115518902D01*
X179042489Y-115482946D01*
X179020208Y-115474228D01*
X178979663Y-115465558D01*
X178919902Y-115459700D01*
X178848293Y-115456650D01*
X178772209Y-115456403D01*
X178699021Y-115458955D01*
X178636099Y-115464301D01*
X178590814Y-115472437D01*
X178584248Y-115474494D01*
X178511019Y-115514237D01*
X178450701Y-115575893D01*
X178413294Y-115640087D01*
X178402013Y-115666639D01*
X178393767Y-115692119D01*
X178388083Y-115721247D01*
X178384489Y-115758740D01*
X178382513Y-115809317D01*
X178381683Y-115877696D01*
X178381527Y-115957684D01*
X177887427Y-115957684D01*
X177887221Y-115900849D01*
X177893070Y-115771406D01*
X174522180Y-115074105D02*
X174600089Y-115090902D01*
X174600089Y-115090902D02*
X174662628Y-115121066D01*
X174662628Y-115121066D02*
X174714460Y-115166158D01*
X174714460Y-115166158D02*
X174714666Y-115166386D01*
X174714666Y-115166386D02*
X174726830Y-115183083D01*
X174726830Y-115183083D02*
X174743014Y-115211202D01*
X174743014Y-115211202D02*
X174763894Y-115252259D01*
X174763894Y-115252259D02*
X174790146Y-115307769D01*
X174790146Y-115307769D02*
X174822444Y-115379249D01*
X174822444Y-115379249D02*
X174861464Y-115468214D01*
X174861464Y-115468214D02*
X174907882Y-115576178D01*
X174907882Y-115576178D02*
X174962372Y-115704657D01*
X174962372Y-115704657D02*
X175025610Y-115855168D01*
X175025610Y-115855168D02*
X175085176Y-115997790D01*
X175085176Y-115997790D02*
X175142304Y-116134997D01*
X175142304Y-116134997D02*
X175196441Y-116265278D01*
X175196441Y-116265278D02*
X175246698Y-116386476D01*
X175246698Y-116386476D02*
X175292185Y-116496431D01*
X175292185Y-116496431D02*
X175332011Y-116592984D01*
X175332011Y-116592984D02*
X175365286Y-116673977D01*
X175365286Y-116673977D02*
X175391120Y-116737251D01*
X175391120Y-116737251D02*
X175408624Y-116780648D01*
X175408624Y-116780648D02*
X175416906Y-116802009D01*
X175416906Y-116802009D02*
X175417403Y-116803538D01*
X175417403Y-116803538D02*
X175418020Y-116811796D01*
X175418020Y-116811796D02*
X175412542Y-116817788D01*
X175412542Y-116817788D02*
X175397533Y-116821795D01*
X175397533Y-116821795D02*
X175369560Y-116824098D01*
X175369560Y-116824098D02*
X175325186Y-116824979D01*
X175325186Y-116824979D02*
X175260978Y-116824720D01*
X175260978Y-116824720D02*
X175173500Y-116823601D01*
X175173500Y-116823601D02*
X175172743Y-116823591D01*
X175172743Y-116823591D02*
X174921789Y-116819947D01*
X174921789Y-116819947D02*
X174774175Y-116438947D01*
X174774175Y-116438947D02*
X174432219Y-116439311D01*
X174432219Y-116439311D02*
X174090263Y-116439674D01*
X174090263Y-116439674D02*
X174016392Y-116629811D01*
X174016392Y-116629811D02*
X173942520Y-116819947D01*
X173942520Y-116819947D02*
X173690662Y-116823590D01*
X173690662Y-116823590D02*
X173601862Y-116824627D01*
X173601862Y-116824627D02*
X173536555Y-116824658D01*
X173536555Y-116824658D02*
X173491507Y-116823475D01*
X173491507Y-116823475D02*
X173463485Y-116820869D01*
X173463485Y-116820869D02*
X173449256Y-116816632D01*
X173449256Y-116816632D02*
X173445589Y-116810556D01*
X173445589Y-116810556D02*
X173446251Y-116807825D01*
X173446251Y-116807825D02*
X173469423Y-116748728D01*
X173469423Y-116748728D02*
X173500100Y-116672472D01*
X173500100Y-116672472D02*
X173537209Y-116581587D01*
X173537209Y-116581587D02*
X173579678Y-116478601D01*
X173579678Y-116478601D02*
X173626434Y-116366043D01*
X173626434Y-116366043D02*
X173676406Y-116246442D01*
X173676406Y-116246442D02*
X173728521Y-116122326D01*
X173728521Y-116122326D02*
X173752853Y-116064632D01*
X173752853Y-116064632D02*
X174217653Y-116064632D01*
X174217653Y-116064632D02*
X174431353Y-116064632D01*
X174431353Y-116064632D02*
X174503525Y-116064434D01*
X174503525Y-116064434D02*
X174565266Y-116063889D01*
X174565266Y-116063889D02*
X174612102Y-116063065D01*
X174612102Y-116063065D02*
X174639563Y-116062034D01*
X174639563Y-116062034D02*
X174644904Y-116061290D01*
X174644904Y-116061290D02*
X174640172Y-116048444D01*
X174640172Y-116048444D02*
X174627017Y-116014390D01*
X174627017Y-116014390D02*
X174606866Y-115962773D01*
X174606866Y-115962773D02*
X174581144Y-115897242D01*
X174581144Y-115897242D02*
X174551276Y-115821444D01*
X174551276Y-115821444D02*
X174539085Y-115790579D01*
X174539085Y-115790579D02*
X174504096Y-115702621D01*
X174504096Y-115702621D02*
X174477318Y-115637072D01*
X174477318Y-115637072D02*
X174457444Y-115591359D01*
X174457444Y-115591359D02*
X174443169Y-115562906D01*
X174443169Y-115562906D02*
X174433184Y-115549137D01*
X174433184Y-115549137D02*
X174426183Y-115547479D01*
X174426183Y-115547479D02*
X174420858Y-115555355D01*
X174420858Y-115555355D02*
X174420343Y-115556632D01*
X174420343Y-115556632D02*
X174410672Y-115581058D01*
X174410672Y-115581058D02*
X174393301Y-115624649D01*
X174393301Y-115624649D02*
X174370486Y-115681755D01*
X174370486Y-115681755D02*
X174344483Y-115746724D01*
X174344483Y-115746724D02*
X174337625Y-115763842D01*
X174337625Y-115763842D02*
X174309761Y-115833424D01*
X174309761Y-115833424D02*
X174283141Y-115899991D01*
X174283141Y-115899991D02*
X174260514Y-115956662D01*
X174260514Y-115956662D02*
X174244630Y-115996558D01*
X174244630Y-115996558D02*
X174242816Y-116001132D01*
X174242816Y-116001132D02*
X174217653Y-116064632D01*
X174217653Y-116064632D02*
X173752853Y-116064632D01*
X173752853Y-116064632D02*
X173781706Y-115996223D01*
X173781706Y-115996223D02*
X173834889Y-115870664D01*
X173834889Y-115870664D02*
X173886999Y-115748175D01*
X173886999Y-115748175D02*
X173936962Y-115631287D01*
X173936962Y-115631287D02*
X173983706Y-115522527D01*
X173983706Y-115522527D02*
X174026159Y-115424424D01*
X174026159Y-115424424D02*
X174063248Y-115339507D01*
X174063248Y-115339507D02*
X174093902Y-115270305D01*
X174093902Y-115270305D02*
X174117047Y-115219346D01*
X174117047Y-115219346D02*
X174131612Y-115189159D01*
X174131612Y-115189159D02*
X174135586Y-115182316D01*
X174135586Y-115182316D02*
X174169646Y-115148407D01*
X174169646Y-115148407D02*
X174214954Y-115115435D01*
X174214954Y-115115435D02*
X174237761Y-115102533D01*
X174237761Y-115102533D02*
X174276136Y-115085656D01*
X174276136Y-115085656D02*
X174314181Y-115075540D01*
X174314181Y-115075540D02*
X174360943Y-115070565D01*
X174360943Y-115070565D02*
X174424236Y-115069112D01*
X174424236Y-115069112D02*
X174522180Y-115074105D01*
X174522180Y-115074105D02*
X174522180Y-115074105D01*
G36*
X173834889Y-115870664D02*
G01*
X173886999Y-115748175D01*
X173936962Y-115631287D01*
X173983706Y-115522527D01*
X174026159Y-115424424D01*
X174063248Y-115339507D01*
X174093902Y-115270305D01*
X174117047Y-115219346D01*
X174131612Y-115189159D01*
X174135586Y-115182316D01*
X174169646Y-115148407D01*
X174214954Y-115115435D01*
X174237761Y-115102533D01*
X174276136Y-115085656D01*
X174314181Y-115075540D01*
X174360943Y-115070565D01*
X174424236Y-115069112D01*
X174522180Y-115074105D01*
X174600089Y-115090902D01*
X174662628Y-115121066D01*
X174714460Y-115166158D01*
X174714666Y-115166386D01*
X174726830Y-115183083D01*
X174743014Y-115211202D01*
X174763894Y-115252259D01*
X174790146Y-115307769D01*
X174822444Y-115379249D01*
X174861464Y-115468214D01*
X174907882Y-115576178D01*
X174962372Y-115704657D01*
X175025610Y-115855168D01*
X175085176Y-115997790D01*
X175142304Y-116134997D01*
X175196441Y-116265278D01*
X175246698Y-116386476D01*
X175292185Y-116496431D01*
X175332011Y-116592984D01*
X175365286Y-116673977D01*
X175391120Y-116737251D01*
X175408624Y-116780648D01*
X175416906Y-116802009D01*
X175417403Y-116803538D01*
X175418020Y-116811796D01*
X175412542Y-116817788D01*
X175397533Y-116821795D01*
X175369560Y-116824098D01*
X175325186Y-116824979D01*
X175260978Y-116824720D01*
X175173500Y-116823601D01*
X175172743Y-116823591D01*
X174921789Y-116819947D01*
X174774175Y-116438947D01*
X174432219Y-116439311D01*
X174090263Y-116439674D01*
X174016392Y-116629811D01*
X173942520Y-116819947D01*
X173690662Y-116823590D01*
X173601862Y-116824627D01*
X173536555Y-116824658D01*
X173491507Y-116823475D01*
X173463485Y-116820869D01*
X173449256Y-116816632D01*
X173445589Y-116810556D01*
X173446251Y-116807825D01*
X173469423Y-116748728D01*
X173500100Y-116672472D01*
X173537209Y-116581587D01*
X173579678Y-116478601D01*
X173626434Y-116366043D01*
X173676406Y-116246442D01*
X173728521Y-116122326D01*
X173752853Y-116064632D01*
X174217653Y-116064632D01*
X174431353Y-116064632D01*
X174503525Y-116064434D01*
X174565266Y-116063889D01*
X174612102Y-116063065D01*
X174639563Y-116062034D01*
X174644904Y-116061290D01*
X174640172Y-116048444D01*
X174627017Y-116014390D01*
X174606866Y-115962773D01*
X174581144Y-115897242D01*
X174551276Y-115821444D01*
X174539085Y-115790579D01*
X174504096Y-115702621D01*
X174477318Y-115637072D01*
X174457444Y-115591359D01*
X174443169Y-115562906D01*
X174433184Y-115549137D01*
X174426183Y-115547479D01*
X174420858Y-115555355D01*
X174420343Y-115556632D01*
X174410672Y-115581058D01*
X174393301Y-115624649D01*
X174370486Y-115681755D01*
X174344483Y-115746724D01*
X174337625Y-115763842D01*
X174309761Y-115833424D01*
X174283141Y-115899991D01*
X174260514Y-115956662D01*
X174244630Y-115996558D01*
X174242816Y-116001132D01*
X174217653Y-116064632D01*
X173752853Y-116064632D01*
X173781706Y-115996223D01*
X173834889Y-115870664D01*
G37*
X173834889Y-115870664D02*
X173886999Y-115748175D01*
X173936962Y-115631287D01*
X173983706Y-115522527D01*
X174026159Y-115424424D01*
X174063248Y-115339507D01*
X174093902Y-115270305D01*
X174117047Y-115219346D01*
X174131612Y-115189159D01*
X174135586Y-115182316D01*
X174169646Y-115148407D01*
X174214954Y-115115435D01*
X174237761Y-115102533D01*
X174276136Y-115085656D01*
X174314181Y-115075540D01*
X174360943Y-115070565D01*
X174424236Y-115069112D01*
X174522180Y-115074105D01*
X174600089Y-115090902D01*
X174662628Y-115121066D01*
X174714460Y-115166158D01*
X174714666Y-115166386D01*
X174726830Y-115183083D01*
X174743014Y-115211202D01*
X174763894Y-115252259D01*
X174790146Y-115307769D01*
X174822444Y-115379249D01*
X174861464Y-115468214D01*
X174907882Y-115576178D01*
X174962372Y-115704657D01*
X175025610Y-115855168D01*
X175085176Y-115997790D01*
X175142304Y-116134997D01*
X175196441Y-116265278D01*
X175246698Y-116386476D01*
X175292185Y-116496431D01*
X175332011Y-116592984D01*
X175365286Y-116673977D01*
X175391120Y-116737251D01*
X175408624Y-116780648D01*
X175416906Y-116802009D01*
X175417403Y-116803538D01*
X175418020Y-116811796D01*
X175412542Y-116817788D01*
X175397533Y-116821795D01*
X175369560Y-116824098D01*
X175325186Y-116824979D01*
X175260978Y-116824720D01*
X175173500Y-116823601D01*
X175172743Y-116823591D01*
X174921789Y-116819947D01*
X174774175Y-116438947D01*
X174432219Y-116439311D01*
X174090263Y-116439674D01*
X174016392Y-116629811D01*
X173942520Y-116819947D01*
X173690662Y-116823590D01*
X173601862Y-116824627D01*
X173536555Y-116824658D01*
X173491507Y-116823475D01*
X173463485Y-116820869D01*
X173449256Y-116816632D01*
X173445589Y-116810556D01*
X173446251Y-116807825D01*
X173469423Y-116748728D01*
X173500100Y-116672472D01*
X173537209Y-116581587D01*
X173579678Y-116478601D01*
X173626434Y-116366043D01*
X173676406Y-116246442D01*
X173728521Y-116122326D01*
X173752853Y-116064632D01*
X174217653Y-116064632D01*
X174431353Y-116064632D01*
X174503525Y-116064434D01*
X174565266Y-116063889D01*
X174612102Y-116063065D01*
X174639563Y-116062034D01*
X174644904Y-116061290D01*
X174640172Y-116048444D01*
X174627017Y-116014390D01*
X174606866Y-115962773D01*
X174581144Y-115897242D01*
X174551276Y-115821444D01*
X174539085Y-115790579D01*
X174504096Y-115702621D01*
X174477318Y-115637072D01*
X174457444Y-115591359D01*
X174443169Y-115562906D01*
X174433184Y-115549137D01*
X174426183Y-115547479D01*
X174420858Y-115555355D01*
X174420343Y-115556632D01*
X174410672Y-115581058D01*
X174393301Y-115624649D01*
X174370486Y-115681755D01*
X174344483Y-115746724D01*
X174337625Y-115763842D01*
X174309761Y-115833424D01*
X174283141Y-115899991D01*
X174260514Y-115956662D01*
X174244630Y-115996558D01*
X174242816Y-116001132D01*
X174217653Y-116064632D01*
X173752853Y-116064632D01*
X173781706Y-115996223D01*
X173834889Y-115870664D01*
X181302527Y-115476421D02*
X180828902Y-115476421D01*
X180828902Y-115476421D02*
X180698047Y-115476468D01*
X180698047Y-115476468D02*
X180591443Y-115476867D01*
X180591443Y-115476867D02*
X180506605Y-115478003D01*
X180506605Y-115478003D02*
X180441048Y-115480263D01*
X180441048Y-115480263D02*
X180392287Y-115484032D01*
X180392287Y-115484032D02*
X180357837Y-115489696D01*
X180357837Y-115489696D02*
X180335212Y-115497642D01*
X180335212Y-115497642D02*
X180321927Y-115508254D01*
X180321927Y-115508254D02*
X180315497Y-115521920D01*
X180315497Y-115521920D02*
X180313436Y-115539025D01*
X180313436Y-115539025D02*
X180313263Y-115556493D01*
X180313263Y-115556493D02*
X180318755Y-115605468D01*
X180318755Y-115605468D02*
X180338045Y-115637593D01*
X180338045Y-115637593D02*
X180365015Y-115655984D01*
X180365015Y-115655984D02*
X180386897Y-115664430D01*
X180386897Y-115664430D02*
X180430752Y-115679031D01*
X180430752Y-115679031D02*
X180492838Y-115698623D01*
X180492838Y-115698623D02*
X180569412Y-115722047D01*
X180569412Y-115722047D02*
X180656730Y-115748141D01*
X180656730Y-115748141D02*
X180751049Y-115775744D01*
X180751049Y-115775744D02*
X180752076Y-115776042D01*
X180752076Y-115776042D02*
X180869902Y-115810448D01*
X180869902Y-115810448D02*
X180965155Y-115839123D01*
X180965155Y-115839123D02*
X181041064Y-115863352D01*
X181041064Y-115863352D02*
X181100856Y-115884418D01*
X181100856Y-115884418D02*
X181147760Y-115903604D01*
X181147760Y-115903604D02*
X181185002Y-115922194D01*
X181185002Y-115922194D02*
X181215812Y-115941471D01*
X181215812Y-115941471D02*
X181243416Y-115962720D01*
X181243416Y-115962720D02*
X181261736Y-115978708D01*
X181261736Y-115978708D02*
X181318394Y-116047232D01*
X181318394Y-116047232D02*
X181359571Y-116134633D01*
X181359571Y-116134633D02*
X181384349Y-116237366D01*
X181384349Y-116237366D02*
X181391810Y-116351884D01*
X181391810Y-116351884D02*
X181384335Y-116452309D01*
X181384335Y-116452309D02*
X181362295Y-116560945D01*
X181362295Y-116560945D02*
X181327356Y-116648105D01*
X181327356Y-116648105D02*
X181277711Y-116716640D01*
X181277711Y-116716640D02*
X181211552Y-116769404D01*
X181211552Y-116769404D02*
X181168992Y-116792032D01*
X181168992Y-116792032D02*
X181154074Y-116798515D01*
X181154074Y-116798515D02*
X181138148Y-116803933D01*
X181138148Y-116803933D02*
X181118747Y-116808402D01*
X181118747Y-116808402D02*
X181093401Y-116812034D01*
X181093401Y-116812034D02*
X181059642Y-116814946D01*
X181059642Y-116814946D02*
X181015003Y-116817251D01*
X181015003Y-116817251D02*
X180957014Y-116819064D01*
X180957014Y-116819064D02*
X180883206Y-116820499D01*
X180883206Y-116820499D02*
X180791112Y-116821670D01*
X180791112Y-116821670D02*
X180678263Y-116822693D01*
X180678263Y-116822693D02*
X180542190Y-116823682D01*
X180542190Y-116823682D02*
X180477027Y-116824118D01*
X180477027Y-116824118D02*
X179845369Y-116828288D01*
X179845369Y-116828288D02*
X179845369Y-116438947D01*
X179845369Y-116438947D02*
X180352414Y-116438947D01*
X180352414Y-116438947D02*
X180487853Y-116438915D01*
X180487853Y-116438915D02*
X180598963Y-116438585D01*
X180598963Y-116438585D02*
X180688152Y-116437605D01*
X180688152Y-116437605D02*
X180757829Y-116435625D01*
X180757829Y-116435625D02*
X180810400Y-116432292D01*
X180810400Y-116432292D02*
X180848275Y-116427257D01*
X180848275Y-116427257D02*
X180873862Y-116420168D01*
X180873862Y-116420168D02*
X180889567Y-116410673D01*
X180889567Y-116410673D02*
X180897800Y-116398422D01*
X180897800Y-116398422D02*
X180900968Y-116383063D01*
X180900968Y-116383063D02*
X180901479Y-116364245D01*
X180901479Y-116364245D02*
X180901474Y-116358875D01*
X180901474Y-116358875D02*
X180896026Y-116310075D01*
X180896026Y-116310075D02*
X180876745Y-116277960D01*
X180876745Y-116277960D02*
X180848547Y-116258756D01*
X180848547Y-116258756D02*
X180826546Y-116250145D01*
X180826546Y-116250145D02*
X180782543Y-116235199D01*
X180782543Y-116235199D02*
X180720200Y-116215079D01*
X180720200Y-116215079D02*
X180643180Y-116190946D01*
X180643180Y-116190946D02*
X180555146Y-116163961D01*
X180555146Y-116163961D02*
X180459760Y-116135284D01*
X180459760Y-116135284D02*
X180447213Y-116131552D01*
X180447213Y-116131552D02*
X180328522Y-116096073D01*
X180328522Y-116096073D02*
X180232543Y-116066680D01*
X180232543Y-116066680D02*
X180156268Y-116042165D01*
X180156268Y-116042165D02*
X180096688Y-116021318D01*
X180096688Y-116021318D02*
X180050794Y-116002927D01*
X180050794Y-116002927D02*
X180015577Y-115985784D01*
X180015577Y-115985784D02*
X179988028Y-115968678D01*
X179988028Y-115968678D02*
X179965137Y-115950399D01*
X179965137Y-115950399D02*
X179943896Y-115929737D01*
X179943896Y-115929737D02*
X179942974Y-115928777D01*
X179942974Y-115928777D02*
X179893712Y-115860094D01*
X179893712Y-115860094D02*
X179856859Y-115773093D01*
X179856859Y-115773093D02*
X179833187Y-115673527D01*
X179833187Y-115673527D02*
X179823469Y-115567150D01*
X179823469Y-115567150D02*
X179828479Y-115459715D01*
X179828479Y-115459715D02*
X179848990Y-115356975D01*
X179848990Y-115356975D02*
X179861177Y-115319908D01*
X179861177Y-115319908D02*
X179896139Y-115255884D01*
X179896139Y-115255884D02*
X179949092Y-115194621D01*
X179949092Y-115194621D02*
X180011835Y-115144231D01*
X180011835Y-115144231D02*
X180067697Y-115115660D01*
X180067697Y-115115660D02*
X180086472Y-115110895D01*
X180086472Y-115110895D02*
X180115706Y-115106835D01*
X180115706Y-115106835D02*
X180157569Y-115103399D01*
X180157569Y-115103399D02*
X180214231Y-115100508D01*
X180214231Y-115100508D02*
X180287860Y-115098083D01*
X180287860Y-115098083D02*
X180380627Y-115096044D01*
X180380627Y-115096044D02*
X180494700Y-115094313D01*
X180494700Y-115094313D02*
X180632250Y-115092809D01*
X180632250Y-115092809D02*
X180710974Y-115092114D01*
X180710974Y-115092114D02*
X181302527Y-115087213D01*
X181302527Y-115087213D02*
X181302527Y-115476421D01*
X181302527Y-115476421D02*
X181302527Y-115476421D01*
G36*
X181302527Y-115476421D02*
G01*
X180828902Y-115476421D01*
X180698047Y-115476468D01*
X180591443Y-115476867D01*
X180506605Y-115478003D01*
X180441048Y-115480263D01*
X180392287Y-115484032D01*
X180357837Y-115489696D01*
X180335212Y-115497642D01*
X180321927Y-115508254D01*
X180315497Y-115521920D01*
X180313436Y-115539025D01*
X180313263Y-115556493D01*
X180318755Y-115605468D01*
X180338045Y-115637593D01*
X180365015Y-115655984D01*
X180386897Y-115664430D01*
X180430752Y-115679031D01*
X180492838Y-115698623D01*
X180569412Y-115722047D01*
X180656730Y-115748141D01*
X180751049Y-115775744D01*
X180752076Y-115776042D01*
X180869902Y-115810448D01*
X180965155Y-115839123D01*
X181041064Y-115863352D01*
X181100856Y-115884418D01*
X181147760Y-115903604D01*
X181185002Y-115922194D01*
X181215812Y-115941471D01*
X181243416Y-115962720D01*
X181261736Y-115978708D01*
X181318394Y-116047232D01*
X181359571Y-116134633D01*
X181384349Y-116237366D01*
X181391810Y-116351884D01*
X181384335Y-116452309D01*
X181362295Y-116560945D01*
X181327356Y-116648105D01*
X181277711Y-116716640D01*
X181211552Y-116769404D01*
X181168992Y-116792032D01*
X181154074Y-116798515D01*
X181138148Y-116803933D01*
X181118747Y-116808402D01*
X181093401Y-116812034D01*
X181059642Y-116814946D01*
X181015003Y-116817251D01*
X180957014Y-116819064D01*
X180883206Y-116820499D01*
X180791112Y-116821670D01*
X180678263Y-116822693D01*
X180542190Y-116823682D01*
X180477027Y-116824118D01*
X179845369Y-116828288D01*
X179845369Y-116438947D01*
X180352414Y-116438947D01*
X180487853Y-116438915D01*
X180598963Y-116438585D01*
X180688152Y-116437605D01*
X180757829Y-116435625D01*
X180810400Y-116432292D01*
X180848275Y-116427257D01*
X180873862Y-116420168D01*
X180889567Y-116410673D01*
X180897800Y-116398422D01*
X180900968Y-116383063D01*
X180901479Y-116364245D01*
X180901474Y-116358875D01*
X180896026Y-116310075D01*
X180876745Y-116277960D01*
X180848547Y-116258756D01*
X180826546Y-116250145D01*
X180782543Y-116235199D01*
X180720200Y-116215079D01*
X180643180Y-116190946D01*
X180555146Y-116163961D01*
X180459760Y-116135284D01*
X180447213Y-116131552D01*
X180328522Y-116096073D01*
X180232543Y-116066680D01*
X180156268Y-116042165D01*
X180096688Y-116021318D01*
X180050794Y-116002927D01*
X180015577Y-115985784D01*
X179988028Y-115968678D01*
X179965137Y-115950399D01*
X179943896Y-115929737D01*
X179942974Y-115928777D01*
X179893712Y-115860094D01*
X179856859Y-115773093D01*
X179833187Y-115673527D01*
X179823469Y-115567150D01*
X179828479Y-115459715D01*
X179848990Y-115356975D01*
X179861177Y-115319908D01*
X179896139Y-115255884D01*
X179949092Y-115194621D01*
X180011835Y-115144231D01*
X180067697Y-115115660D01*
X180086472Y-115110895D01*
X180115706Y-115106835D01*
X180157569Y-115103399D01*
X180214231Y-115100508D01*
X180287860Y-115098083D01*
X180380627Y-115096044D01*
X180494700Y-115094313D01*
X180632250Y-115092809D01*
X180710974Y-115092114D01*
X181302527Y-115087213D01*
X181302527Y-115476421D01*
G37*
X181302527Y-115476421D02*
X180828902Y-115476421D01*
X180698047Y-115476468D01*
X180591443Y-115476867D01*
X180506605Y-115478003D01*
X180441048Y-115480263D01*
X180392287Y-115484032D01*
X180357837Y-115489696D01*
X180335212Y-115497642D01*
X180321927Y-115508254D01*
X180315497Y-115521920D01*
X180313436Y-115539025D01*
X180313263Y-115556493D01*
X180318755Y-115605468D01*
X180338045Y-115637593D01*
X180365015Y-115655984D01*
X180386897Y-115664430D01*
X180430752Y-115679031D01*
X180492838Y-115698623D01*
X180569412Y-115722047D01*
X180656730Y-115748141D01*
X180751049Y-115775744D01*
X180752076Y-115776042D01*
X180869902Y-115810448D01*
X180965155Y-115839123D01*
X181041064Y-115863352D01*
X181100856Y-115884418D01*
X181147760Y-115903604D01*
X181185002Y-115922194D01*
X181215812Y-115941471D01*
X181243416Y-115962720D01*
X181261736Y-115978708D01*
X181318394Y-116047232D01*
X181359571Y-116134633D01*
X181384349Y-116237366D01*
X181391810Y-116351884D01*
X181384335Y-116452309D01*
X181362295Y-116560945D01*
X181327356Y-116648105D01*
X181277711Y-116716640D01*
X181211552Y-116769404D01*
X181168992Y-116792032D01*
X181154074Y-116798515D01*
X181138148Y-116803933D01*
X181118747Y-116808402D01*
X181093401Y-116812034D01*
X181059642Y-116814946D01*
X181015003Y-116817251D01*
X180957014Y-116819064D01*
X180883206Y-116820499D01*
X180791112Y-116821670D01*
X180678263Y-116822693D01*
X180542190Y-116823682D01*
X180477027Y-116824118D01*
X179845369Y-116828288D01*
X179845369Y-116438947D01*
X180352414Y-116438947D01*
X180487853Y-116438915D01*
X180598963Y-116438585D01*
X180688152Y-116437605D01*
X180757829Y-116435625D01*
X180810400Y-116432292D01*
X180848275Y-116427257D01*
X180873862Y-116420168D01*
X180889567Y-116410673D01*
X180897800Y-116398422D01*
X180900968Y-116383063D01*
X180901479Y-116364245D01*
X180901474Y-116358875D01*
X180896026Y-116310075D01*
X180876745Y-116277960D01*
X180848547Y-116258756D01*
X180826546Y-116250145D01*
X180782543Y-116235199D01*
X180720200Y-116215079D01*
X180643180Y-116190946D01*
X180555146Y-116163961D01*
X180459760Y-116135284D01*
X180447213Y-116131552D01*
X180328522Y-116096073D01*
X180232543Y-116066680D01*
X180156268Y-116042165D01*
X180096688Y-116021318D01*
X180050794Y-116002927D01*
X180015577Y-115985784D01*
X179988028Y-115968678D01*
X179965137Y-115950399D01*
X179943896Y-115929737D01*
X179942974Y-115928777D01*
X179893712Y-115860094D01*
X179856859Y-115773093D01*
X179833187Y-115673527D01*
X179823469Y-115567150D01*
X179828479Y-115459715D01*
X179848990Y-115356975D01*
X179861177Y-115319908D01*
X179896139Y-115255884D01*
X179949092Y-115194621D01*
X180011835Y-115144231D01*
X180067697Y-115115660D01*
X180086472Y-115110895D01*
X180115706Y-115106835D01*
X180157569Y-115103399D01*
X180214231Y-115100508D01*
X180287860Y-115098083D01*
X180380627Y-115096044D01*
X180494700Y-115094313D01*
X180632250Y-115092809D01*
X180710974Y-115092114D01*
X181302527Y-115087213D01*
X181302527Y-115476421D01*
X182706211Y-116826632D02*
X182305158Y-116826632D01*
X182305158Y-116826632D02*
X182305158Y-116519158D01*
X182305158Y-116519158D02*
X182706211Y-116519158D01*
X182706211Y-116519158D02*
X182706211Y-116826632D01*
X182706211Y-116826632D02*
X182706211Y-116826632D01*
G36*
X182706211Y-116826632D02*
G01*
X182305158Y-116826632D01*
X182305158Y-116519158D01*
X182706211Y-116519158D01*
X182706211Y-116826632D01*
G37*
X182706211Y-116826632D02*
X182305158Y-116826632D01*
X182305158Y-116519158D01*
X182706211Y-116519158D01*
X182706211Y-116826632D01*
D13*
X162050000Y-101898267D02*
X162050000Y-101555733D01*
X163070000Y-101898267D02*
X163070000Y-101555733D01*
%LPC*%
D15*
X116972000Y-104902000D03*
X118872000Y-104902000D03*
D16*
X173584000Y-95631000D03*
D17*
X167284000Y-95631000D03*
X167284000Y-97931000D03*
X167284000Y-93331000D03*
D18*
X166958000Y-90551000D03*
X168783000Y-90551000D03*
D19*
X162915500Y-90551000D03*
X164490500Y-90551000D03*
D20*
X164685000Y-97409000D03*
X162560000Y-97409000D03*
D21*
X185140600Y-93462000D03*
X185140600Y-90922000D03*
X185140600Y-79482000D03*
X185140600Y-76942000D03*
X187680600Y-94732000D03*
X187680600Y-92192000D03*
X187680600Y-80752000D03*
X187680600Y-78212000D03*
D22*
X182897602Y-99172000D03*
X182897602Y-85202000D03*
X182897602Y-71232000D03*
D23*
X193097600Y-111872000D03*
X193097600Y-58532000D03*
D22*
X196762800Y-114571994D03*
X196762800Y-55832005D03*
D21*
X185140600Y-82022000D03*
X187680600Y-83292000D03*
X185140600Y-96002000D03*
X187680600Y-97272000D03*
X185140600Y-88382000D03*
X187680600Y-89652000D03*
X185140600Y-74402000D03*
X187680600Y-75672000D03*
X185140600Y-107442000D03*
X185140600Y-104902000D03*
X187680600Y-108712000D03*
X187680600Y-106172000D03*
X185140600Y-109982000D03*
X187680600Y-111252000D03*
X185140600Y-102362000D03*
X187680600Y-103632000D03*
X185140600Y-65522000D03*
X185140600Y-62982000D03*
X187680600Y-66792000D03*
X187680600Y-64252000D03*
X185140600Y-68062000D03*
X187680600Y-69332000D03*
X185140600Y-60442000D03*
X187680600Y-61712000D03*
X111531400Y-76870400D03*
X111531400Y-79410400D03*
X111531400Y-90850400D03*
X111531400Y-93390400D03*
X108991400Y-75600400D03*
X108991400Y-78140400D03*
X108991400Y-89580400D03*
X108991400Y-92120400D03*
D22*
X113774398Y-71160400D03*
X113774398Y-85130400D03*
X113774398Y-99100400D03*
D23*
X103574400Y-58460400D03*
X103574400Y-111800400D03*
D22*
X99909200Y-55760406D03*
X99909200Y-114500395D03*
D21*
X111531400Y-88310400D03*
X108991400Y-87040400D03*
X111531400Y-74330400D03*
X108991400Y-73060400D03*
X111531400Y-81950400D03*
X108991400Y-80680400D03*
X111531400Y-95930400D03*
X108991400Y-94660400D03*
X111531400Y-62890400D03*
X111531400Y-65430400D03*
X108991400Y-61620400D03*
X108991400Y-64160400D03*
X111531400Y-60350400D03*
X108991400Y-59080400D03*
X111531400Y-67970400D03*
X108991400Y-66700400D03*
X111531400Y-104810400D03*
X111531400Y-107350400D03*
X108991400Y-103540400D03*
X108991400Y-106080400D03*
X111531400Y-102270400D03*
X108991400Y-101000400D03*
X111531400Y-109890400D03*
X108991400Y-108620400D03*
D24*
X135128000Y-111506000D03*
X123698000Y-111506000D03*
D25*
X124968000Y-105156000D03*
D26*
X126238000Y-102616000D03*
X127508000Y-105156000D03*
X128778000Y-102616000D03*
X130048000Y-105156000D03*
X131318000Y-102616000D03*
X132588000Y-105156000D03*
D27*
X121538000Y-108456000D03*
D26*
X133858000Y-102616000D03*
D27*
X137288000Y-108456000D03*
D26*
X123088000Y-116586000D03*
X125628000Y-114886000D03*
X135738000Y-114886000D03*
X133198000Y-116586000D03*
D28*
X162584400Y-106121200D03*
X159284400Y-106121200D03*
D29*
X164543000Y-94234000D03*
X161593000Y-94234000D03*
D30*
X167259000Y-103427000D03*
X167259000Y-106377000D03*
D31*
X136222000Y-98171000D03*
X136222000Y-96901000D03*
X136222000Y-95631000D03*
X136222000Y-94361000D03*
X136222000Y-93091000D03*
X136222000Y-91821000D03*
X136222000Y-90551000D03*
X136222000Y-89281000D03*
X136222000Y-88011000D03*
X136222000Y-86741000D03*
X126922000Y-86741000D03*
X126922000Y-88011000D03*
X126922000Y-89281000D03*
X126922000Y-90551000D03*
X126922000Y-91821000D03*
X126922000Y-93091000D03*
X126922000Y-94361000D03*
X126922000Y-95631000D03*
X126922000Y-96901000D03*
X126922000Y-98171000D03*
D32*
X162736000Y-62103000D03*
X162736000Y-63373000D03*
X162736000Y-64643000D03*
X162736000Y-65913000D03*
X162736000Y-67183000D03*
X162736000Y-68453000D03*
X162736000Y-69723000D03*
X162736000Y-70993000D03*
X162736000Y-72263000D03*
X162736000Y-73533000D03*
X172036000Y-73533000D03*
X172036000Y-72263000D03*
X172036000Y-70993000D03*
X172036000Y-69723000D03*
X172036000Y-68453000D03*
X172036000Y-67183000D03*
X172036000Y-65913000D03*
X172036000Y-64643000D03*
X172036000Y-63373000D03*
X172036000Y-62103000D03*
D31*
X136222000Y-74295000D03*
X136222000Y-73025000D03*
X136222000Y-71755000D03*
X136222000Y-70485000D03*
X136222000Y-69215000D03*
X136222000Y-67945000D03*
X136222000Y-66675000D03*
X136222000Y-65405000D03*
X136222000Y-64135000D03*
X136222000Y-62865000D03*
X126922000Y-62865000D03*
X126922000Y-64135000D03*
X126922000Y-65405000D03*
X126922000Y-66675000D03*
X126922000Y-67945000D03*
X126922000Y-69215000D03*
X126922000Y-70485000D03*
X126922000Y-71755000D03*
X126922000Y-73025000D03*
X126922000Y-74295000D03*
D32*
X162736000Y-75946000D03*
X162736000Y-77216000D03*
X162736000Y-78486000D03*
X162736000Y-79756000D03*
X162736000Y-81026000D03*
X162736000Y-82296000D03*
X162736000Y-83566000D03*
X162736000Y-84836000D03*
X162736000Y-86106000D03*
X162736000Y-87376000D03*
X172036000Y-87376000D03*
X172036000Y-86106000D03*
X172036000Y-84836000D03*
X172036000Y-83566000D03*
X172036000Y-82296000D03*
X172036000Y-81026000D03*
X172036000Y-79756000D03*
X172036000Y-78486000D03*
X172036000Y-77216000D03*
X172036000Y-75946000D03*
D33*
X180278500Y-100330000D03*
X177353500Y-100330000D03*
D34*
X116393500Y-84074000D03*
X119318500Y-84074000D03*
X116393500Y-86614000D03*
X119318500Y-86614000D03*
X116393500Y-89154000D03*
X119318500Y-89154000D03*
X116393500Y-91694000D03*
X119318500Y-91694000D03*
X116393500Y-94234000D03*
X119318500Y-94234000D03*
X116393500Y-96774000D03*
X119318500Y-96774000D03*
X116393500Y-99314000D03*
X119318500Y-99314000D03*
X116393500Y-101854000D03*
X119318500Y-101854000D03*
D33*
X180278500Y-79248000D03*
X177353500Y-79248000D03*
X180278500Y-76708000D03*
X177353500Y-76708000D03*
X180278500Y-74168000D03*
X177353500Y-74168000D03*
X180278500Y-71628000D03*
X177353500Y-71628000D03*
X180278500Y-69088000D03*
X177353500Y-69088000D03*
X180278500Y-66548000D03*
X177353500Y-66548000D03*
X180278500Y-64008000D03*
X177353500Y-64008000D03*
X180278500Y-61468000D03*
X177353500Y-61468000D03*
D34*
X116393500Y-58928000D03*
X119318500Y-58928000D03*
X116393500Y-61468000D03*
X119318500Y-61468000D03*
X116393500Y-64008000D03*
X119318500Y-64008000D03*
X116393500Y-66619120D03*
X119318500Y-66619120D03*
X116393500Y-69088000D03*
X119318500Y-69088000D03*
X116393500Y-71628000D03*
X119318500Y-71628000D03*
X116393500Y-74155300D03*
X119318500Y-74155300D03*
X116393500Y-76708000D03*
X119318500Y-76708000D03*
D33*
X180278500Y-97790000D03*
X177353500Y-97790000D03*
X180278500Y-95250000D03*
X177353500Y-95250000D03*
X180278500Y-92710000D03*
X177353500Y-92710000D03*
X180278500Y-90170000D03*
X177353500Y-90170000D03*
X180278500Y-87630000D03*
X177353500Y-87630000D03*
X180278500Y-85090000D03*
X177353500Y-85090000D03*
X180278500Y-82550000D03*
X177353500Y-82550000D03*
D35*
X162087560Y-114300000D03*
D36*
X167167560Y-114300000D03*
D37*
X141168120Y-113718340D03*
X141168120Y-111178340D03*
X141168120Y-108638340D03*
X141168120Y-106098340D03*
X141168120Y-103558340D03*
X141168120Y-101018340D03*
X141168120Y-98478340D03*
X141168120Y-95938340D03*
X141168120Y-93398340D03*
X141168120Y-90858340D03*
X141168120Y-88318340D03*
X141168120Y-85778340D03*
X141168120Y-83238340D03*
X141168120Y-80698340D03*
D38*
X156408120Y-113718340D03*
D37*
X156408120Y-111178340D03*
X156408120Y-108638340D03*
X156408120Y-106098340D03*
X156408120Y-103558340D03*
X156408120Y-101018340D03*
X156408120Y-98478340D03*
X156408120Y-95938340D03*
X156408120Y-93398340D03*
X156408120Y-90858340D03*
X156408120Y-88318340D03*
X156408120Y-85778340D03*
X156408120Y-83238340D03*
X141168120Y-78158340D03*
X141168120Y-75618340D03*
X141168120Y-73078340D03*
X141168120Y-70538340D03*
X141168120Y-67998340D03*
X141168120Y-65458340D03*
X141168120Y-62918340D03*
X141168120Y-60378340D03*
X141168120Y-57838340D03*
X141168120Y-55298340D03*
X156408120Y-55298340D03*
X156408120Y-57838340D03*
X156408120Y-60378340D03*
X156408120Y-62918340D03*
X156408120Y-80698340D03*
X156408120Y-78158340D03*
X156408120Y-75618340D03*
X156408120Y-65458340D03*
X156408120Y-67998340D03*
X156408120Y-70538340D03*
X156408120Y-73078340D03*
D39*
X143606520Y-100748340D03*
D40*
X143606520Y-98748340D03*
X145606520Y-100748340D03*
X145606520Y-98748340D03*
X147606520Y-98748340D03*
X147606520Y-100748340D03*
D41*
X176070596Y-105722084D03*
X174373540Y-105019140D03*
X172676484Y-105722084D03*
X171973540Y-107419140D03*
X172676484Y-109116196D03*
X174373540Y-109819140D03*
X176070596Y-109116196D03*
X176773540Y-107419140D03*
D42*
X174373540Y-107419140D03*
D41*
X125270596Y-80322084D03*
X123573540Y-79619140D03*
X121876484Y-80322084D03*
X121173540Y-82019140D03*
X121876484Y-83716196D03*
X123573540Y-84419140D03*
X125270596Y-83716196D03*
X125973540Y-82019140D03*
D42*
X123573540Y-82019140D03*
D41*
X176070596Y-54922084D03*
X174373540Y-54219140D03*
X172676484Y-54922084D03*
X171973540Y-56619140D03*
X172676484Y-58316196D03*
X174373540Y-59019140D03*
X176070596Y-58316196D03*
X176773540Y-56619140D03*
D42*
X174373540Y-56619140D03*
D41*
X125270596Y-54922084D03*
X123573540Y-54219140D03*
X121876484Y-54922084D03*
X121173540Y-56619140D03*
X121876484Y-58316196D03*
X123573540Y-59019140D03*
X125270596Y-58316196D03*
X125973540Y-56619140D03*
D42*
X123573540Y-56619140D03*
D43*
X162560000Y-100852000D03*
X162560000Y-102602000D03*
M02*
